<svg width="51" height="51" viewBox="0 0 51 51" fill="none" xmlns="http://www.w3.org/2000/svg">
<g filter="url(#filter0_d_1803_483)">
<path d="M26.2844 43.2076V50.1002C26.2844 50.5436 25.9241 50.9029 25.4817 50.9029C25.0383 50.9029 24.679 50.5426 24.679 50.1002V43.2076C24.679 42.7643 25.0393 42.4049 25.4817 42.4049C25.9251 42.4049 26.2844 42.7643 26.2844 43.2076ZM49.5628 25.2174H42.6702C42.2268 25.2174 41.8674 25.5777 41.8674 26.0201C41.8674 26.4635 42.2278 26.8229 42.6702 26.8229H49.5628C50.0061 26.8229 50.3655 26.4625 50.3655 26.0201C50.3655 25.5768 50.0051 25.2174 49.5628 25.2174ZM11.0481 26.0201C11.0481 33.9928 17.512 40.4537 25.4817 40.4537C33.4544 40.4537 39.9153 33.9928 39.9153 26.0201C39.9153 22.9059 38.927 20.0182 37.2493 17.6598L33.8587 21.0504C34.7219 22.5035 35.221 24.2037 35.221 26.0191C35.221 31.3981 30.8606 35.7574 25.4827 35.7574C20.1047 35.7574 15.7444 31.3971 15.7444 26.0191C15.7444 20.6402 20.1047 16.2809 25.4827 16.2809C27.2991 16.2809 28.9983 16.7789 30.4514 17.6432L33.842 14.2545C31.4837 12.5738 28.5989 11.5856 25.4817 11.5856C17.512 11.5865 11.0481 18.0504 11.0481 26.0201ZM26.9133 21.1842C26.4592 21.0484 25.9807 20.9762 25.4817 20.9762C22.6965 20.9762 20.4377 23.235 20.4377 26.0201C20.4377 28.8053 22.6965 31.0641 25.4817 31.0641C28.2669 31.0641 30.5256 28.8053 30.5256 26.0201C30.5256 25.5221 30.4534 25.0426 30.3206 24.5885L27.1838 27.7223C26.2454 28.6637 24.717 28.6637 23.7786 27.7223C22.8372 26.7838 22.8372 25.2555 23.7786 24.317L26.9133 21.1842ZM5.5061 21.9977C5.93482 22.1031 6.36939 21.8375 6.47193 21.4078C7.33032 17.8648 9.15454 14.6949 11.6536 12.1949C14.1526 9.69493 17.3254 7.86778 20.8694 7.01328C21.2981 6.90782 21.5618 6.47618 21.4592 6.04746C21.3538 5.61875 20.9221 5.35313 20.4934 5.45762C16.6516 6.38535 13.221 8.35899 10.5198 11.0602C7.82056 13.7594 5.84693 17.1891 4.91724 21.0309C4.8147 21.4606 5.07739 21.8922 5.5061 21.9977ZM45.4573 30.0416C45.0286 29.9391 44.594 30.2018 44.4915 30.6315C43.6331 34.1744 41.8088 37.3443 39.3098 39.8443C36.8108 42.3443 33.6409 44.1715 30.094 45.026C29.6653 45.1315 29.4016 45.5631 29.5042 45.9918C29.6096 46.4235 30.0413 46.6861 30.47 46.5817C34.3118 45.6539 37.7424 43.6803 40.4436 40.9791C43.1428 38.2799 45.1165 34.8502 46.0462 31.0084C46.1497 30.5787 45.886 30.1471 45.4573 30.0416ZM20.8704 45.026C17.3274 44.1705 14.1545 42.3434 11.6545 39.8443C9.15454 37.3453 7.33032 34.1754 6.4729 30.6315C6.37036 30.2027 5.93579 29.9391 5.50708 30.0416C5.07837 30.1471 4.8147 30.5787 4.91724 31.0074C5.84693 34.8492 7.82153 38.2799 10.5198 40.9781C13.2219 43.6803 16.6516 45.6539 20.4934 46.5807C20.9221 46.6861 21.3547 46.4225 21.4592 45.9908C21.5618 45.5631 21.2991 45.1315 20.8704 45.026ZM25.4817 9.63438C25.9251 9.63438 26.2844 9.27403 26.2844 8.83165V1.94199C26.2844 1.49668 25.9241 1.13926 25.4817 1.13926C25.0383 1.13926 24.679 1.49668 24.679 1.94199V8.83165C24.679 9.275 25.0393 9.63438 25.4817 9.63438ZM9.09693 26.0201C9.09693 25.5768 8.73755 25.2174 8.29419 25.2174H1.40454C0.959229 25.2174 0.601807 25.5777 0.601807 26.0201C0.601807 26.4635 0.959229 26.8229 1.40454 26.8229H8.29419C8.73657 26.8229 9.09693 26.4625 9.09693 26.0201ZM24.9143 25.4527C24.6018 25.7652 24.6018 26.275 24.9143 26.5875C25.2268 26.9 25.7366 26.9 26.0491 26.5875L41.8753 10.7643L46.2708 10.8609C46.4124 10.8639 46.5364 10.8141 46.636 10.7145L50.3538 6.99668C50.4973 6.8502 50.5422 6.64512 50.4641 6.45371C50.387 6.26231 50.2151 6.14414 50.01 6.13828L45.9436 6.04942C45.6751 6.04356 45.4592 5.82774 45.4505 5.55918L45.3616 1.48985C45.3557 1.28477 45.2366 1.11387 45.0462 1.03574C44.8547 0.960549 44.6506 1.00254 44.5032 1.1461L40.7854 4.86387C40.6858 4.96641 40.636 5.08848 40.6389 5.2291L40.7385 9.62461L24.9143 25.4527Z" fill="white"/>
</g>
<defs>
<filter id="filter0_d_1803_483" x="-3.39819" y="-0.000976562" width="57.9001" height="57.9043" filterUnits="userSpaceOnUse" color-interpolation-filters="sRGB">
<feFlood flood-opacity="0" result="BackgroundImageFix"/>
<feColorMatrix in="SourceAlpha" type="matrix" values="0 0 0 0 0 0 0 0 0 0 0 0 0 0 0 0 0 0 127 0" result="hardAlpha"/>
<feOffset dy="3"/>
<feGaussianBlur stdDeviation="2"/>
<feComposite in2="hardAlpha" operator="out"/>
<feColorMatrix type="matrix" values="0 0 0 0 0 0 0 0 0 0 0 0 0 0 0 0 0 0 0.5 0"/>
<feBlend mode="normal" in2="BackgroundImageFix" result="effect1_dropShadow_1803_483"/>
<feBlend mode="normal" in="SourceGraphic" in2="effect1_dropShadow_1803_483" result="shape"/>
</filter>
</defs>
</svg>
