<svg width="21" height="21" viewBox="0 0 21 21" fill="none" xmlns="http://www.w3.org/2000/svg">
<g clip-path="url(#clip0_432_343)">
<path d="M5.58849 8.38719C5.58849 10.2144 7.075 11.7009 8.90224 11.7009C9.33299 11.7009 9.68196 12.0501 9.68196 12.4807C9.68196 12.9114 9.33299 13.2604 8.90224 13.2604C6.21517 13.2604 4.02905 11.0743 4.02905 8.38719C4.02905 5.69997 6.21517 3.51385 8.90224 3.51385C11.5895 3.51385 13.7756 5.69997 13.7756 8.38719C13.7756 8.81779 13.4265 9.16691 12.9959 9.16691C12.5653 9.16691 12.2161 8.81779 12.2161 8.38719C12.2161 6.55995 10.7295 5.07329 8.90224 5.07329C7.075 5.07329 5.58849 6.55995 5.58849 8.38719ZM6.20113 15.2837C4.20025 13.0927 2.47235 11.2003 2.4696 8.37956C2.47372 4.83678 5.35946 1.9544 8.90224 1.9544C12.4452 1.9544 15.3308 4.83678 15.3349 8.37956C15.3355 8.81001 15.6844 9.15852 16.1146 9.15837H16.1155C16.5461 9.15791 16.8949 8.80833 16.8943 8.37773C16.8919 6.24486 16.0595 4.24017 14.5504 2.73275C13.0413 1.22519 11.0354 0.394958 8.90224 0.394958C6.76921 0.394958 4.7633 1.22519 3.25405 2.73275C1.74512 4.24017 0.912598 6.24486 0.910156 8.37941C0.911682 9.93321 1.3432 11.391 2.22958 12.8362C2.99694 14.0876 3.99395 15.1793 5.04955 16.3353C6.0844 17.4687 7.15465 18.6406 8.00929 19.9928C8.15761 20.2275 8.41045 20.356 8.66908 20.356C8.8116 20.356 8.95564 20.3171 9.08504 20.2353C9.44896 20.0052 9.5576 19.5236 9.3275 19.1596C8.39916 17.6909 7.28176 16.4672 6.20113 15.2837ZM20.6667 15.6578C20.5129 15.8261 20.3024 15.9114 20.0912 15.9114C19.9032 15.9114 19.7147 15.844 19.5652 15.7073L19.4676 15.618V18.1981C19.4676 19.4095 18.4828 20.3949 17.2724 20.3949H12.8907C11.6804 20.3949 10.6956 19.4095 10.6956 18.1981V15.6537L10.637 15.7073C10.3192 15.998 9.826 15.9758 9.53532 15.658C9.24479 15.3401 9.26692 14.8468 9.58476 14.5563L13.6093 10.8768C14.4598 10.0994 15.7424 10.0994 16.5928 10.8768L19.1714 13.2344C19.1999 13.257 19.2268 13.2816 19.2518 13.3078L20.6175 14.5563C20.9353 14.8468 20.9574 15.3401 20.6667 15.6578ZM17.9081 14.1922L15.5406 12.0278C15.29 11.7987 14.9122 11.7987 14.6617 12.0278L12.255 14.2278V18.1981C12.255 18.5495 12.5402 18.8355 12.8909 18.8355H17.2724C17.6229 18.8355 17.9081 18.5495 17.9081 18.1981V14.1922Z" fill="white"/>
</g>
<defs>
<clipPath id="clip0_432_343">
<rect width="20" height="20" fill="white" transform="translate(0.871094 0.394958)"/>
</clipPath>
</defs>
</svg>
