<svg width="162" height="47" viewBox="0 0 162 47" fill="none" xmlns="http://www.w3.org/2000/svg">
<path d="M161.1 41.6623C161.1 44.129 159.038 46.127 156.487 46.127H5.51958C2.96994 46.127 0.900391 44.129 0.900391 41.6623V6.05835C0.900391 3.5929 2.96994 1.58789 5.51958 1.58789H156.486C159.038 1.58789 161.099 3.5929 161.099 6.05835L161.1 41.6623Z" fill="black"/>
<path d="M156 1.6434C158.778 1.6434 161.039 3.82317 161.039 6.50196V41.2162C161.039 43.895 158.778 46.0748 156 46.0748H6C3.222 46.0748 0.9615 43.895 0.9615 41.2162V6.50196C0.9615 3.82317 3.222 1.6434 6 1.6434H156ZM156 0.716244H6C2.7015 0.716244 0 3.32126 0 6.50196V41.2162C0 44.3969 2.7015 47.002 6 47.002H156C159.298 47.002 162 44.3969 162 41.2162V6.50196C162 3.32126 159.298 0.716244 156 0.716244Z" fill="#A6A6A6"/>
<path d="M36.1529 23.6072C36.1181 19.8777 39.3197 18.0633 39.4661 17.9788C37.6529 15.4296 34.8425 15.0813 33.8549 15.0536C31.4945 14.814 29.2049 16.4155 28.0025 16.4155C26.7761 16.4155 24.9245 15.0767 22.9289 15.116C20.3609 15.1542 17.9585 16.5879 16.6409 18.8143C13.9217 23.3537 15.9497 30.0247 18.5549 33.694C19.8581 35.491 21.3809 37.4975 23.3741 37.4269C25.3241 37.3494 26.0525 36.2281 28.4057 36.2281C30.7373 36.2281 31.4213 37.4269 33.4541 37.3818C35.5469 37.3494 36.8645 35.5766 38.1221 33.7634C39.6281 31.7037 40.2329 29.6752 40.2569 29.5711C40.2077 29.5549 36.1925 28.0772 36.1529 23.6072Z" fill="white"/>
<path d="M32.3129 12.6398C33.3617 11.375 34.0793 9.65433 33.8801 7.9082C32.3621 7.973 30.4637 8.9207 29.3705 10.1577C28.4033 11.2477 27.5393 13.0343 27.7625 14.7145C29.4677 14.8372 31.2185 13.8848 32.3129 12.6398Z" fill="white"/>
<path d="M58.8599 12.2968C58.8599 13.6587 58.4363 14.6839 57.5903 15.3724C56.8067 16.0077 55.6931 16.3259 54.2507 16.3259C53.5355 16.3259 52.9235 16.2958 52.4111 16.2357V8.79409C53.0795 8.68995 53.7995 8.63672 54.5771 8.63672C55.9511 8.63672 56.9867 8.92485 57.6851 9.5011C58.4675 10.1526 58.8599 11.0841 58.8599 12.2968ZM57.5339 12.3303C57.5339 11.4474 57.2915 10.7705 56.8067 10.2984C56.3219 9.82742 55.6139 9.59136 54.6815 9.59136C54.2855 9.59136 53.9483 9.61682 53.6687 9.67005V15.3273C53.8235 15.3505 54.1067 15.3609 54.5183 15.3609C55.4807 15.3609 56.2235 15.1028 56.7467 14.5867C57.2699 14.0707 57.5339 13.3185 57.5339 12.3303Z" fill="white"/>
<path d="M65.891 13.4867C65.891 14.3256 65.6426 15.013 65.1458 15.5522C64.625 16.1065 63.935 16.383 63.0734 16.383C62.243 16.383 61.5818 16.118 61.0886 15.5858C60.5966 15.0546 60.3506 14.3846 60.3506 13.577C60.3506 12.7322 60.6038 12.0391 61.1126 11.501C61.6214 10.963 62.3054 10.6934 63.167 10.6934C63.9974 10.6934 64.6646 10.9583 65.1698 11.4895C65.6498 12.0056 65.891 12.6721 65.891 13.4867ZM64.5866 13.526C64.5866 13.0227 64.4738 12.5911 64.2494 12.2312C63.9854 11.7961 63.6098 11.5786 63.1214 11.5786C62.6162 11.5786 62.2322 11.7961 61.9682 12.2312C61.7426 12.5911 61.631 13.0296 61.631 13.548C61.631 14.0514 61.7438 14.483 61.9682 14.8429C62.2406 15.278 62.6198 15.4955 63.1094 15.4955C63.5894 15.4955 63.9662 15.2745 64.2374 14.8313C64.4702 14.4645 64.5866 14.0294 64.5866 13.526Z" fill="white"/>
<path d="M75.3181 10.8027L73.5481 16.2575H72.3961L71.6629 13.8888C71.4769 13.2975 71.3257 12.7097 71.2081 12.1265H71.1853C71.0761 12.7259 70.9249 13.3126 70.7305 13.8888L69.9517 16.2575H68.7865L67.1221 10.8027H68.4145L69.0541 13.3959C69.2089 14.0092 69.3361 14.5935 69.4381 15.1466H69.4609C69.5545 14.6907 69.7093 14.1098 69.9277 13.4075L70.7305 10.8039H71.7553L72.5245 13.3519C72.7105 13.9733 72.8617 14.5715 72.9781 15.1478H73.0129C73.0981 14.5866 73.2265 13.9883 73.3969 13.3519L74.0833 10.8039H75.3181V10.8027Z" fill="white"/>
<path d="M81.8373 16.2588H80.5797V13.1345C80.5797 12.1718 80.2005 11.6904 79.4397 11.6904C79.0665 11.6904 78.7653 11.8223 78.5313 12.0873C78.2997 12.3523 78.1821 12.6647 78.1821 13.0223V16.2576H76.9245V12.3627C76.9245 11.8836 76.9089 11.3641 76.8789 10.8017H77.9841L78.0429 11.6545H78.0777C78.2241 11.3895 78.4425 11.1708 78.7293 10.9961C79.0701 10.7924 79.4517 10.6895 79.8693 10.6895C80.3973 10.6895 80.8365 10.8538 81.1857 11.1836C81.6201 11.5874 81.8373 12.1903 81.8373 12.991V16.2588V16.2588Z" fill="white"/>
<path d="M85.3052 16.2585H84.0488V8.30078H85.3052V16.2585Z" fill="white"/>
<path d="M92.7094 13.4867C92.7094 14.3256 92.4609 15.013 91.9641 15.5522C91.4433 16.1065 90.7522 16.383 89.8918 16.383C89.0602 16.383 88.3989 16.118 87.9069 15.5858C87.4149 15.0546 87.1689 14.3846 87.1689 13.577C87.1689 12.7322 87.4221 12.0391 87.9309 11.501C88.4397 10.963 89.1237 10.6934 89.9841 10.6934C90.8157 10.6934 91.4817 10.9583 91.9881 11.4895C92.4681 12.0056 92.7094 12.6721 92.7094 13.4867ZM91.4037 13.526C91.4037 13.0227 91.2909 12.5911 91.0665 12.2312C90.8037 11.7961 90.4269 11.5786 89.9397 11.5786C89.4333 11.5786 89.0493 11.7961 88.7865 12.2312C88.5609 12.5911 88.4493 13.0296 88.4493 13.548C88.4493 14.0514 88.5621 14.483 88.7865 14.8429C89.0589 15.278 89.4381 15.4955 89.9277 15.4955C90.4077 15.4955 90.7833 15.2745 91.0545 14.8313C91.2885 14.4645 91.4037 14.0294 91.4037 13.526Z" fill="white"/>
<path d="M98.7963 16.2592H97.6671L97.5735 15.6309H97.5387C97.1523 16.1319 96.6015 16.383 95.8863 16.383C95.3523 16.383 94.9203 16.2176 94.5951 15.8889C94.2999 15.5904 94.1523 15.2189 94.1523 14.7781C94.1523 14.1116 94.4403 13.6036 95.0199 13.2518C95.5983 12.9 96.4119 12.7276 97.4595 12.7357V12.6339C97.4595 11.9153 97.0683 11.5566 96.2847 11.5566C95.7267 11.5566 95.2347 11.692 94.8099 11.9604L94.5543 11.1643C95.0799 10.8507 95.7291 10.6934 96.4947 10.6934C97.9731 10.6934 98.7147 11.4455 98.7147 12.9498V14.9586C98.7147 15.5036 98.7423 15.9375 98.7963 16.2592ZM97.4907 14.3846V13.5434C96.1035 13.5203 95.4099 13.8871 95.4099 14.6427C95.4099 14.9273 95.4891 15.1403 95.6511 15.2826C95.8131 15.4249 96.0195 15.4955 96.2655 15.4955C96.5415 15.4955 96.7995 15.411 97.0347 15.2432C97.2711 15.0743 97.4163 14.8602 97.4703 14.5976C97.4835 14.5385 97.4907 14.4668 97.4907 14.3846Z" fill="white"/>
<path d="M105.942 16.2585H104.826L104.767 15.3825H104.732C104.376 16.049 103.769 16.3823 102.916 16.3823C102.234 16.3823 101.666 16.1242 101.216 15.6081C100.766 15.0921 100.542 14.4221 100.542 13.5993C100.542 12.7164 100.786 12.0013 101.275 11.4552C101.749 10.946 102.33 10.6914 103.021 10.6914C103.781 10.6914 104.312 10.9379 104.615 11.432H104.639V8.30078H105.898V14.7889C105.898 15.32 105.912 15.8095 105.942 16.2585ZM104.639 13.9581V13.0485C104.639 12.8912 104.627 12.7639 104.604 12.6667C104.533 12.3751 104.381 12.1298 104.149 11.9319C103.915 11.734 103.633 11.6345 103.308 11.6345C102.839 11.6345 102.472 11.8139 102.202 12.1737C101.934 12.5336 101.798 12.993 101.798 13.5542C101.798 14.0934 101.927 14.5308 102.185 14.8676C102.457 15.2263 102.824 15.4056 103.284 15.4056C103.697 15.4056 104.027 15.2564 104.278 14.9567C104.52 14.6801 104.639 14.3469 104.639 13.9581Z" fill="white"/>
<path d="M116.698 13.4867C116.698 14.3256 116.449 15.013 115.952 15.5522C115.432 16.1065 114.743 16.383 113.88 16.383C113.051 16.383 112.39 16.118 111.895 15.5858C111.403 15.0546 111.157 14.3846 111.157 13.577C111.157 12.7322 111.41 12.0391 111.919 11.501C112.428 10.963 113.112 10.6934 113.975 10.6934C114.804 10.6934 115.472 10.9583 115.976 11.4895C116.456 12.0056 116.698 12.6721 116.698 13.4867ZM115.394 13.526C115.394 13.0227 115.282 12.5911 115.057 12.2312C114.792 11.7961 114.418 11.5786 113.928 11.5786C113.424 11.5786 113.04 11.7961 112.775 12.2312C112.549 12.5911 112.438 13.0296 112.438 13.548C112.438 14.0514 112.55 14.483 112.775 14.8429C113.047 15.278 113.426 15.4955 113.916 15.4955C114.396 15.4955 114.774 15.2745 115.045 14.8313C115.277 14.4645 115.394 14.0294 115.394 13.526Z" fill="white"/>
<path d="M123.459 16.2588H122.203V13.1345C122.203 12.1718 121.824 11.6904 121.062 11.6904C120.688 11.6904 120.387 11.8223 120.154 12.0873C119.922 12.3523 119.805 12.6647 119.805 13.0223V16.2576H118.546V12.3627C118.546 11.8836 118.532 11.3641 118.502 10.8017H119.606L119.665 11.6545H119.7C119.847 11.3895 120.066 11.1708 120.351 10.9961C120.693 10.7924 121.074 10.6895 121.492 10.6895C122.019 10.6895 122.458 10.8538 122.808 11.1836C123.243 11.5874 123.459 12.1903 123.459 12.991V16.2588V16.2588Z" fill="white"/>
<path d="M131.923 11.7122H130.538V14.362C130.538 15.0355 130.784 15.3722 131.271 15.3722C131.497 15.3722 131.684 15.3537 131.832 15.3155L131.864 16.2354C131.616 16.3257 131.289 16.3708 130.887 16.3708C130.39 16.3708 130.004 16.225 129.724 15.9334C129.444 15.6418 129.304 15.1512 129.304 14.4627V11.7122H128.478V10.8038H129.304V9.80403L130.537 9.44531V10.8026H131.922V11.7122H131.923Z" fill="white"/>
<path d="M138.581 16.2585H137.322V13.1573C137.322 12.1795 136.943 11.6901 136.183 11.6901C135.6 11.6901 135.202 11.9736 134.983 12.5406C134.946 12.6597 134.924 12.8055 134.924 12.9768V16.2573H133.668V8.30078H134.924V11.5882H134.948C135.344 10.99 135.912 10.6914 136.648 10.6914C137.168 10.6914 137.599 10.8558 137.941 11.1855C138.367 11.5963 138.581 12.2073 138.581 13.015V16.2585V16.2585Z" fill="white"/>
<path d="M145.448 13.2725C145.448 13.49 145.431 13.6729 145.401 13.8221H141.63C141.647 14.3614 141.827 14.7721 142.176 15.0568C142.495 15.3114 142.907 15.4387 143.411 15.4387C143.969 15.4387 144.477 15.353 144.936 15.1806L145.133 16.023C144.596 16.2475 143.965 16.3597 143.234 16.3597C142.358 16.3597 141.668 16.111 141.169 15.6134C140.667 15.1158 140.419 14.4481 140.419 13.6104C140.419 12.7876 140.651 12.1026 141.117 11.5564C141.605 10.9732 142.263 10.6816 143.095 10.6816C143.909 10.6816 144.527 10.9732 144.944 11.5564C145.281 12.0193 145.448 12.5921 145.448 13.2725ZM144.248 12.9589C144.258 12.599 144.175 12.2889 144.005 12.0274C143.786 11.6907 143.454 11.5217 143.004 11.5217C142.593 11.5217 142.259 11.686 142.003 12.0158C141.794 12.2785 141.671 12.5921 141.63 12.9589H144.248Z" fill="white"/>
<path d="M64.3736 37.1707H61.6484L60.1556 32.6475H54.9668L53.5448 37.1707H50.8916L56.0324 21.7715H59.2076L64.3736 37.1707ZM59.7056 30.7498L58.3556 26.7287C58.2128 26.3179 57.9452 25.3505 57.5504 23.8277H57.5024C57.3452 24.4827 57.092 25.45 56.744 26.7287L55.418 30.7498H59.7056V30.7498Z" fill="white"/>
<path d="M77.5941 31.4813C77.5941 33.3697 77.0649 34.8624 76.0065 35.9583C75.0585 36.9337 73.8813 37.4209 72.4761 37.4209C70.9593 37.4209 69.8697 36.8955 69.2061 35.8449H69.1581V41.6942H66.5997V29.7213C66.5997 28.534 66.5673 27.3156 66.5049 26.0658H68.7549L68.8977 27.8259H68.9457C69.7989 26.4998 71.0937 25.8379 72.8313 25.8379C74.1897 25.8379 75.3237 26.3551 76.2309 27.3908C77.1405 28.4276 77.5941 29.7907 77.5941 31.4813ZM74.9877 31.5715C74.9877 30.4908 74.7357 29.5998 74.2293 28.8985C73.6761 28.1672 72.9333 27.8016 72.0021 27.8016C71.3709 27.8016 70.7973 28.0052 70.2849 28.4067C69.7713 28.8117 69.4353 29.3406 69.2781 29.9955C69.1989 30.301 69.1593 30.5509 69.1593 30.7476V32.5991C69.1593 33.4068 69.4161 34.0883 69.9297 34.6449C70.4433 35.2015 71.1105 35.4792 71.9313 35.4792C72.8949 35.4792 73.6449 35.1205 74.1813 34.4054C74.7189 33.6891 74.9877 32.7449 74.9877 31.5715Z" fill="white"/>
<path d="M90.838 31.4813C90.838 33.3697 90.3088 34.8624 89.2492 35.9583C88.3024 36.9337 87.1252 37.4209 85.72 37.4209C84.2032 37.4209 83.1136 36.8955 82.4512 35.8449H82.4032V41.6942H79.8448V29.7213C79.8448 28.534 79.8124 27.3156 79.75 26.0658H82L82.1428 27.8259H82.1908C83.0428 26.4998 84.3376 25.8379 86.0764 25.8379C87.4336 25.8379 88.5676 26.3551 89.4772 27.3908C90.3832 28.4276 90.838 29.7907 90.838 31.4813ZM88.2316 31.5715C88.2316 30.4908 87.9784 29.5998 87.472 28.8985C86.9188 28.1672 86.1784 27.8016 85.246 27.8016C84.6136 27.8016 84.0412 28.0052 83.5276 28.4067C83.014 28.8117 82.6792 29.3406 82.522 29.9955C82.444 30.301 82.4032 30.5509 82.4032 30.7476V32.5991C82.4032 33.4068 82.66 34.0883 83.1712 34.6449C83.6848 35.2003 84.352 35.4792 85.1752 35.4792C86.1388 35.4792 86.8888 35.1205 87.4252 34.4054C87.9628 33.6891 88.2316 32.7449 88.2316 31.5715Z" fill="white"/>
<path d="M105.646 32.8514C105.646 34.1613 105.175 35.227 104.228 36.0497C103.188 36.9488 101.739 37.3978 99.8781 37.3978C98.1597 37.3978 96.7821 37.0784 95.7393 36.4385L96.3321 34.3823C97.4553 35.0372 98.6877 35.3658 100.03 35.3658C100.994 35.3658 101.744 35.1552 102.283 34.7364C102.819 34.3175 103.087 33.7551 103.087 33.0539C103.087 32.429 102.866 31.9025 102.423 31.4755C101.983 31.0485 101.247 30.6516 100.22 30.2848C97.4241 29.2793 96.0273 27.8062 96.0273 25.8692C96.0273 24.6033 96.5169 23.5653 97.4973 22.7576C98.4741 21.9488 99.7773 21.5449 101.407 21.5449C102.86 21.5449 104.067 21.7891 105.031 22.2762L104.391 24.2874C103.491 23.8152 102.474 23.5792 101.335 23.5792C100.435 23.5792 99.7317 23.7933 99.2277 24.2191C98.8017 24.5998 98.5881 25.0638 98.5881 25.6134C98.5881 26.2221 98.8317 26.7255 99.3213 27.1212C99.7473 27.4869 100.521 27.8826 101.644 28.3096C103.018 28.843 104.028 29.4667 104.677 30.1818C105.324 30.8946 105.646 31.7868 105.646 32.8514Z" fill="white"/>
<path d="M114.106 27.917H111.286V33.3081C111.286 34.6793 111.782 35.3644 112.778 35.3644C113.236 35.3644 113.615 35.3262 113.915 35.2498L113.986 37.1232C113.482 37.3049 112.818 37.3963 111.996 37.3963C110.986 37.3963 110.196 37.0989 109.626 36.5053C109.058 35.9105 108.773 34.9131 108.773 33.5118V27.9147H107.093V26.0632H108.773V24.0301L111.286 23.2988V26.0632H114.106V27.917Z" fill="white"/>
<path d="M126.829 31.5272C126.829 33.234 126.322 34.6353 125.312 35.7311C124.252 36.8593 122.846 37.4217 121.093 37.4217C119.403 37.4217 118.058 36.8813 117.055 35.8005C116.051 34.7198 115.55 33.3555 115.55 31.7112C115.55 29.9905 116.066 28.5811 117.101 27.4853C118.135 26.3883 119.529 25.8398 121.282 25.8398C122.972 25.8398 124.331 26.3802 125.357 27.4622C126.339 28.5117 126.829 29.8667 126.829 31.5272ZM124.174 31.607C124.174 30.583 123.947 29.7047 123.488 28.9722C122.951 28.0859 122.185 27.6438 121.191 27.6438C120.163 27.6438 119.381 28.087 118.845 28.9722C118.385 29.7059 118.159 30.598 118.159 31.6533C118.159 32.6774 118.385 33.5557 118.845 34.287C119.398 35.1734 120.171 35.6154 121.168 35.6154C122.145 35.6154 122.912 35.1641 123.465 34.2638C123.937 33.5175 124.174 32.63 124.174 31.607Z" fill="white"/>
<path d="M135.145 28.2355C134.892 28.1904 134.622 28.1672 134.339 28.1672C133.439 28.1672 132.743 28.4947 132.253 29.1508C131.827 29.7294 131.614 30.4607 131.614 31.3436V37.1698H129.056L129.08 29.5627C129.08 28.2829 129.048 27.1177 128.984 26.067H131.213L131.306 28.1915H131.377C131.647 27.4614 132.073 26.8735 132.656 26.4327C133.226 26.0358 133.842 25.8379 134.506 25.8379C134.742 25.8379 134.956 25.8541 135.145 25.883V28.2355Z" fill="white"/>
<path d="M146.587 31.0918C146.587 31.5338 146.557 31.9064 146.494 32.2108H138.818C138.848 33.3077 139.219 34.1467 139.932 34.7252C140.579 35.2425 141.415 35.5017 142.442 35.5017C143.579 35.5017 144.616 35.327 145.548 34.9763L145.949 36.6889C144.859 37.1471 143.573 37.3751 142.088 37.3751C140.303 37.3751 138.901 36.8683 137.881 35.8558C136.864 34.8433 136.354 33.4836 136.354 31.778C136.354 30.1036 136.828 28.7093 137.777 27.5972C138.77 26.41 140.113 25.8164 141.803 25.8164C143.462 25.8164 144.719 26.41 145.572 27.5972C146.248 28.5403 146.587 29.7067 146.587 31.0918ZM144.148 30.4519C144.164 29.7206 143.998 29.0888 143.651 28.5554C143.208 27.8692 142.528 27.5267 141.612 27.5267C140.776 27.5267 140.095 27.8611 139.576 28.5322C139.15 29.0657 138.896 29.7056 138.818 30.4508H144.148V30.4519Z" fill="white"/>
</svg>
