<svg width="70" height="71" viewBox="0 0 70 71" fill="none" xmlns="http://www.w3.org/2000/svg">
<rect y="0.348633" width="70" height="70" rx="15" fill="#724693"/>
<path d="M49.1406 37.6924C48.1805 37.6924 47.287 37.9466 46.4865 38.3577L44.9026 36.4753C45.6049 36.0603 46.3644 35.7411 47.1674 35.5613C47.822 35.4139 48.4708 35.3599 49.147 35.3499C50.0204 35.3566 50.8798 35.012 51.5228 34.3748C52.1936 33.7111 52.5781 32.7876 52.5781 31.6957C52.5781 25.6938 47.522 21.2861 42.1835 21.2861H40.8594C40.2118 21.2861 39.6875 21.8104 39.6875 22.458C39.6875 23.1056 40.2118 23.6299 40.8594 23.6299H42.1835C42.5327 23.6299 42.8656 23.69 43.2031 23.7333V25.9977C42.5226 26.0594 41.8817 26.27 41.2753 26.5522C41.2677 26.5434 41.2579 26.5376 41.2506 26.5287C40.2887 26.9786 39.4595 27.682 38.8589 28.5829L36.1914 32.5837C36.0083 32.8572 35.7199 33.0415 35.3937 33.0919C33.0212 33.4565 30.9647 34.969 29.8846 37.1776C30.8856 38.6735 31.4844 40.4557 31.4844 42.3799H29.0625C29.0625 38.5026 25.9085 35.3486 22.0312 35.3486C18.154 35.3486 15 38.5026 15 42.3799C15 46.2571 18.154 49.4111 22.0312 49.4111C25.0827 49.4111 27.6599 47.4458 28.6307 44.7236H39.6875C40.3351 44.7236 40.8594 44.1993 40.8594 43.5518C40.8594 42.9005 40.9372 42.2355 41.0895 41.5767C41.4087 40.2083 42.1204 38.9628 43.0756 37.9454L44.6573 39.825C43.811 40.8409 43.2812 42.1293 43.2812 43.5518C43.2812 46.7823 45.91 49.4111 49.1406 49.4111C52.3712 49.4111 55 46.7823 55 43.5518C55 40.3212 52.3712 37.6924 49.1406 37.6924ZM22.0312 47.0674C19.4461 47.0674 17.3438 44.965 17.3438 42.3799C17.3438 39.7947 19.4461 37.6924 22.0312 37.6924C24.6164 37.6924 26.7188 39.7947 26.7188 42.3799H23.2031C22.5565 42.3799 22.0312 41.8547 22.0312 41.208C22.0312 40.5604 21.507 40.0361 20.8594 40.0361C20.2118 40.0361 19.6875 40.5604 19.6875 41.208C19.6875 43.1465 21.2646 44.7236 23.2031 44.7236H26.0669C25.2539 46.118 23.7589 47.0674 22.0312 47.0674ZM49.1406 47.0674C47.2021 47.0674 45.625 45.4902 45.625 43.5518C45.625 42.8727 45.8273 42.2438 46.1621 41.7054L48.2251 44.2842C48.6325 44.7923 49.3704 44.8689 49.873 44.4673C50.3778 44.062 50.4602 43.3253 50.0562 42.8193L47.9956 40.2437C48.3563 40.1182 48.7375 40.0361 49.1406 40.0361C51.0791 40.0361 52.6562 41.6133 52.6562 43.5518C52.6562 45.4902 51.0791 47.0674 49.1406 47.0674Z" fill="white"/>
<path d="M34.9011 30.2946L36.9088 27.2828C37.5506 26.3197 38.3923 25.5372 39.3484 24.9296C38.0624 24.1176 36.5798 23.6299 34.9999 23.6299C32.2311 23.6299 29.6734 25.0413 28.168 27.3048L30.0424 28.4297C31.5481 29.333 33.197 29.9379 34.9011 30.2946Z" fill="white"/>
<path d="M28.8364 30.439L21.3162 25.9736H16.1719C15.5243 25.9736 15 26.4979 15 27.1455C15 30.3761 17.6288 33.0049 20.8594 33.0049C23.2034 33.0049 25.6351 33.0558 28.2404 35.3206C28.2504 35.3019 28.2504 35.2809 28.2617 35.2629C29.1708 33.8011 30.4544 32.6677 31.926 31.8712C30.8606 31.4814 29.8175 31.0273 28.8364 30.439Z" fill="white"/>
</svg>
