<svg width="71" height="71" viewBox="0 0 71 71" fill="none" xmlns="http://www.w3.org/2000/svg">
<rect x="0.707031" y="0.348633" width="70" height="70" rx="15" fill="#724693"/>
<path d="M55.4824 32.6882C55.232 32.2709 52.7608 31.2034 52.7608 31.2034C53.1906 30.9814 53.4844 30.9355 53.4844 30.0175C53.4844 29.016 53.4793 28.6821 52.8117 28.6821H50.5466C50.5374 28.6621 50.5274 28.6412 50.5182 28.6204C49.056 25.4272 48.8599 24.6202 46.6791 23.5335C43.7538 22.0788 38.2697 22.0054 36.1198 22.0054C33.9699 22.0054 28.4858 22.0788 25.563 23.5335C23.3797 24.6185 23.434 25.1768 21.7239 28.6204C21.7239 28.6295 21.7064 28.6537 21.6906 28.6821H19.423C18.7603 28.6821 18.7553 29.016 18.7553 30.0175C18.7553 30.9355 19.0491 30.9814 19.4789 31.2034C19.4789 31.2034 17.0911 32.3543 16.7573 32.6882C16.4234 33.022 16.0896 35.3589 16.0896 39.3649C16.0896 43.371 16.4234 47.377 16.4234 47.377H17.4199C17.4199 48.5454 17.5919 48.7124 18.0926 48.7124H24.7693C25.2701 48.7124 25.437 48.5454 25.437 47.377H46.8026C46.8026 48.5454 46.9695 48.7124 47.4703 48.7124H54.3139C54.6478 48.7124 54.8147 48.462 54.8147 47.377H55.8162C55.8162 47.377 56.15 43.2875 56.15 39.3649C56.15 35.4423 55.7327 33.1055 55.4824 32.6882ZM25.2083 36.4388C23.6884 36.605 22.1605 36.6903 20.6315 36.6942C18.9272 36.6942 18.8688 36.8035 18.7486 35.7394C18.7034 35.2524 18.7177 34.7616 18.7912 34.2781L18.8438 34.0235H19.0941C20.0956 34.0235 21.0362 34.0661 22.8122 34.5894C23.7156 34.8604 24.5652 35.2857 25.3235 35.8463C25.6874 36.11 25.7708 36.3604 25.7708 36.3604L25.2083 36.4388ZM45.8361 42.4479L45.4673 43.371H26.7724C26.7724 43.371 26.8049 43.32 26.3551 42.4379C26.0212 41.7852 26.4385 41.3679 27.0987 41.1309C28.3773 40.6702 32.1138 39.3649 36.1198 39.3649C40.1259 39.3649 43.9366 40.4899 45.1751 41.1309C45.6342 41.3679 46.2042 41.5349 45.8361 42.4529V42.4479ZM24.3871 31.0532C24.1175 31.0687 23.8474 31.0707 23.5775 31.059C23.7954 30.6718 23.9164 30.2403 24.1292 29.7896C24.7969 28.3708 25.5605 26.7651 26.9201 26.0882C28.8847 25.1101 32.9567 24.6694 36.1198 24.6694C39.2829 24.6694 43.3549 25.1067 45.3195 26.0882C46.6791 26.7651 47.4394 28.3716 48.1104 29.7896C48.3249 30.2445 48.4442 30.6793 48.6679 31.0691C48.501 31.0782 48.309 31.0691 47.8508 31.0532H24.3871ZM53.4076 35.7361C53.229 36.7777 53.3959 36.6942 51.6082 36.6942C50.0791 36.6903 48.5513 36.605 47.0313 36.4388C46.7934 36.3963 46.7258 35.9948 46.9161 35.8463C47.6707 35.2794 48.5214 34.8536 49.4274 34.5894C51.2034 34.0661 52.2033 33.996 53.1906 34.031C53.2569 34.0335 53.3199 34.0606 53.3676 34.1067C53.4152 34.153 53.444 34.2152 53.4485 34.2814C53.4957 34.7672 53.4819 35.257 53.4076 35.7394V35.7361Z" fill="white"/>
</svg>
