<svg width="26" height="26" viewBox="0 0 26 26" fill="none" xmlns="http://www.w3.org/2000/svg">
<g clip-path="url(#clip0_419_9024)">
<path d="M23.8533 13.7614C23.7527 13.5556 23.7527 13.3195 23.8533 13.1138L24.7857 11.2063C25.3049 10.1443 24.8936 8.87841 23.8493 8.32436L21.9739 7.32925C21.7715 7.22193 21.6328 7.03092 21.5932 6.80538L21.2264 4.71413C21.0221 3.54978 19.9451 2.76737 18.7748 2.93294L16.6727 3.2303C16.4458 3.26233 16.2214 3.18938 16.0568 3.03016L14.5309 1.55399C13.6812 0.732026 12.3502 0.731978 11.5006 1.55399L9.97461 3.0303C9.80996 3.18958 9.58559 3.26238 9.35874 3.23045L7.25656 2.93309C6.08591 2.76741 5.00925 3.54993 4.80501 4.71428L4.43821 6.80543C4.39861 7.03101 4.25989 7.22198 4.0576 7.32935L2.18212 8.32446C1.13789 8.87846 0.726565 10.1444 1.2457 11.2065L2.17807 13.1139C2.27866 13.3197 2.27866 13.5557 2.17807 13.7615L1.24565 15.6689C0.726516 16.731 1.13784 17.9968 2.18207 18.5509L4.05755 19.546C4.25989 19.6533 4.39861 19.8443 4.43821 20.0699L4.80501 22.1611C4.99094 23.2211 5.89983 23.9644 6.9444 23.9643C7.04728 23.9643 7.15167 23.9571 7.2566 23.9422L9.35879 23.6449C9.5855 23.6127 9.81001 23.6858 9.97465 23.845L11.5006 25.3212C11.9255 25.7322 12.4705 25.9377 13.0157 25.9376C13.5608 25.9376 14.1061 25.7321 14.5308 25.3212L16.0568 23.845C16.2214 23.6858 16.4459 23.613 16.6727 23.6449L18.7748 23.9422C19.9456 24.1079 21.0221 23.3254 21.2264 22.1611L21.5932 20.0699C21.6328 19.8443 21.7716 19.6533 21.9739 19.546L23.8493 18.5509C24.8936 17.9969 25.3049 16.7309 24.7857 15.6689L23.8533 13.7614ZM10.1319 6.94908C11.5895 6.94908 12.7754 8.13496 12.7754 9.59257C12.7754 11.0502 11.5895 12.2361 10.1319 12.2361C8.67427 12.2361 7.48839 11.0502 7.48839 9.59257C7.48839 8.13496 8.67427 6.94908 10.1319 6.94908ZM8.76744 18.7054C8.62666 18.8461 8.44214 18.9165 8.25767 18.9165C8.0732 18.9165 7.88863 18.8462 7.74791 18.7054C7.46637 18.4238 7.46637 17.9673 7.74791 17.6858L17.2639 8.16978C17.5454 7.88823 18.002 7.88823 18.2835 8.16978C18.565 8.45132 18.565 8.90781 18.2835 9.18935L8.76744 18.7054ZM15.8994 19.9262C14.4418 19.9262 13.2559 18.7403 13.2559 17.2827C13.2559 15.8251 14.4418 14.6392 15.8994 14.6392C17.357 14.6392 18.5429 15.8251 18.5429 17.2827C18.5429 18.7403 17.357 19.9262 15.8994 19.9262Z" fill="#724693"/>
<path d="M15.8989 16.0811C15.2363 16.0811 14.6973 16.6201 14.6973 17.2826C14.6973 17.9452 15.2363 18.4842 15.8989 18.4842C16.5614 18.4842 17.1004 17.9452 17.1004 17.2826C17.1004 16.6201 16.5614 16.0811 15.8989 16.0811Z" fill="#724693"/>
<path d="M10.1312 8.39099C9.4687 8.39099 8.92969 8.93 8.92969 9.59255C8.92969 10.2551 9.4687 10.7942 10.1312 10.7942C10.7938 10.7942 11.3328 10.2551 11.3328 9.59255C11.3328 8.93005 10.7938 8.39099 10.1312 8.39099Z" fill="#724693"/>
</g>
<defs>
<clipPath id="clip0_419_9024">
<rect width="25" height="25" fill="white" transform="translate(0.5 0.983887)"/>
</clipPath>
</defs>
</svg>
