<svg width="24" height="26" viewBox="0 0 24 26" fill="none" xmlns="http://www.w3.org/2000/svg">
<path d="M22.8533 13.7614C22.7527 13.5556 22.7527 13.3195 22.8533 13.1138L23.7857 11.2063C24.3049 10.1443 23.8936 8.87841 22.8493 8.32436L20.9739 7.32925C20.7715 7.22193 20.6328 7.03092 20.5932 6.80538L20.2264 4.71413C20.0221 3.54978 18.9451 2.76737 17.7748 2.93294L15.6727 3.2303C15.4458 3.26233 15.2214 3.18938 15.0568 3.03016L13.5309 1.55399C12.6812 0.732026 11.3502 0.731978 10.5006 1.55399L8.97461 3.0303C8.80996 3.18958 8.58559 3.26238 8.35874 3.23045L6.25656 2.93309C5.08591 2.76741 4.00925 3.54993 3.80501 4.71428L3.43821 6.80543C3.39861 7.03101 3.25989 7.22198 3.0576 7.32935L1.18212 8.32446C0.13789 8.87846 -0.273435 10.1444 0.245702 11.2065L1.17807 13.1139C1.27866 13.3197 1.27866 13.5557 1.17807 13.7615L0.245653 15.6689C-0.273484 16.731 0.137841 17.9968 1.18207 18.5509L3.05755 19.546C3.25989 19.6533 3.39861 19.8443 3.43821 20.0699L3.80501 22.1611C3.99094 23.2211 4.89983 23.9644 5.9444 23.9643C6.04728 23.9643 6.15167 23.9571 6.2566 23.9422L8.35879 23.6449C8.5855 23.6127 8.81001 23.6858 8.97465 23.845L10.5006 25.3212C10.9255 25.7322 11.4705 25.9377 12.0157 25.9376C12.5608 25.9376 13.1061 25.7321 13.5308 25.3212L15.0568 23.845C15.2214 23.6858 15.4459 23.613 15.6727 23.6449L17.7748 23.9422C18.9456 24.1079 20.0221 23.3254 20.2264 22.1611L20.5932 20.0699C20.6328 19.8443 20.7716 19.6533 20.9739 19.546L22.8493 18.5509C23.8936 17.9969 24.3049 16.7309 23.7857 15.6689L22.8533 13.7614ZM9.13188 6.94908C10.5895 6.94908 11.7754 8.13496 11.7754 9.59257C11.7754 11.0502 10.5895 12.2361 9.13188 12.2361C7.67427 12.2361 6.48839 11.0502 6.48839 9.59257C6.48839 8.13496 7.67427 6.94908 9.13188 6.94908ZM7.76744 18.7054C7.62666 18.8461 7.44214 18.9165 7.25767 18.9165C7.0732 18.9165 6.88863 18.8462 6.74791 18.7054C6.46637 18.4238 6.46637 17.9673 6.74791 17.6858L16.2639 8.16978C16.5454 7.88823 17.002 7.88823 17.2835 8.16978C17.565 8.45132 17.565 8.90781 17.2835 9.18935L7.76744 18.7054ZM14.8994 19.9262C13.4418 19.9262 12.2559 18.7403 12.2559 17.2827C12.2559 15.8251 13.4418 14.6392 14.8994 14.6392C16.357 14.6392 17.5429 15.8251 17.5429 17.2827C17.5429 18.7403 16.357 19.9262 14.8994 19.9262Z" fill="#724693"/>
</svg>
