<svg width="50" height="51" viewBox="0 0 50 51" fill="none" xmlns="http://www.w3.org/2000/svg">
<rect y="0.552734" width="50" height="50" rx="25" fill="#D9D9D9"/>
<rect y="0.552734" width="50" height="50" rx="25" fill="url(#paint0_linear_0_2587)"/>
<path d="M36.8209 24.7337C35.9429 22.8137 32.4999 16.5527 24.9999 16.5527C17.4999 16.5527 14.0569 22.8137 13.1789 24.7337C13.061 24.991 13 25.2707 13 25.5537C13 25.8367 13.061 26.1164 13.1789 26.3737C14.0569 28.2917 17.4999 34.5527 24.9999 34.5527C32.4999 34.5527 35.9429 28.2917 36.8209 26.3717C36.9385 26.1147 36.9994 25.8354 36.9994 25.5527C36.9994 25.2701 36.9385 24.9907 36.8209 24.7337ZM24.9999 32.5527C18.6929 32.5527 15.7499 27.1867 14.9999 25.5637C15.7499 23.9187 18.6929 18.5527 24.9999 18.5527C31.2919 18.5527 34.2359 23.8957 34.9999 25.5527C34.2359 27.2097 31.2919 32.5527 24.9999 32.5527Z" fill="white"/>
<path d="M25 20.5527C24.0111 20.5527 23.0444 20.846 22.2222 21.3954C21.3999 21.9448 20.759 22.7257 20.3806 23.6393C20.0022 24.5529 19.9031 25.5583 20.0961 26.5282C20.289 27.4981 20.7652 28.389 21.4645 29.0883C22.1637 29.7875 23.0546 30.2637 24.0246 30.4567C24.9945 30.6496 25.9998 30.5506 26.9134 30.1721C27.827 29.7937 28.6079 29.1528 29.1574 28.3306C29.7068 27.5083 30 26.5416 30 25.5527C29.9984 24.2271 29.4711 22.9563 28.5338 22.019C27.5964 21.0816 26.3256 20.5543 25 20.5527ZM25 28.5527C24.4067 28.5527 23.8266 28.3768 23.3333 28.0471C22.8399 27.7175 22.4554 27.249 22.2284 26.7008C22.0013 26.1526 21.9419 25.5494 22.0576 24.9675C22.1734 24.3855 22.4591 23.851 22.8787 23.4314C23.2982 23.0119 23.8328 22.7261 24.4147 22.6104C24.9967 22.4946 25.5999 22.554 26.1481 22.7811C26.6962 23.0082 27.1648 23.3927 27.4944 23.886C27.8241 24.3794 28 24.9594 28 25.5527C28 26.3484 27.6839 27.1114 27.1213 27.6741C26.5587 28.2367 25.7957 28.5527 25 28.5527Z" fill="white"/>
<defs>
<linearGradient id="paint0_linear_0_2587" x1="-6.4787" y1="-26.257" x2="53.9119" y2="-20.898" gradientUnits="userSpaceOnUse">
<stop stop-color="#FF4A4F"/>
<stop offset="1" stop-color="#8F2020"/>
</linearGradient>
</defs>
</svg>
