<svg width="40" height="40" viewBox="0 0 40 40" fill="none" xmlns="http://www.w3.org/2000/svg">
<path fill-rule="evenodd" clip-rule="evenodd" d="M11.4844 8.3606C8.01636 9.16534 6.68976 11.1932 5.02655 13.9844H11.4844V8.3606ZM31.7517 14.2188C31.0727 14.2188 30.5798 14.5465 30.5798 15.3125C30.5798 15.9586 31.1026 16.4825 31.7484 16.4844H38.8281C39.4754 16.4844 40 17.0093 40 17.6562C40 18.3035 39.4754 18.8281 38.8281 18.8281H28.2812C27.6279 18.8281 27.1048 19.3524 27.1048 20C27.1048 20.6473 27.6294 21.1719 28.2767 21.1719H38.8281C39.4754 21.1719 40 21.6965 40 22.3438C40 22.991 39.4754 23.5156 38.8281 23.5156H36.25V27.0312C36.25 27.6785 35.7254 28.2031 35.0781 28.2031H32.7225C32.3026 30.2716 30.4749 31.7969 28.3203 31.7969C26.1658 31.7969 24.3381 30.2716 23.9182 28.2031H12.0193C11.5994 30.2716 9.77173 31.7969 7.61719 31.7969C5.46265 31.7969 3.63495 30.2716 3.21503 28.2031H1.17188C0.524597 28.2031 0 27.6785 0 27.0312V20C0 16.5616 3.62671 16.3333 3.63007 16.3281H12.6562C13.3035 16.3281 13.8281 15.8035 13.8281 15.1562V8.125H35.0781C35.7254 8.125 36.25 8.6496 36.25 9.29688V11.875H37.6562C38.3035 11.875 38.8281 12.3996 38.8281 13.0469C38.8281 13.6942 38.3035 14.2188 37.6562 14.2188H31.7517ZM6.09802 25.7855C5.25909 26.6245 5.25909 27.9852 6.09802 28.8242C7.44751 30.1736 9.76562 29.2136 9.76562 27.3047C9.76562 25.3961 7.44751 24.436 6.09802 25.7855ZM26.8011 25.7855C25.9622 26.6245 25.9622 27.9852 26.8011 28.8242C28.1506 30.1736 30.4688 29.2136 30.4688 27.3047C30.4688 25.3961 28.1506 24.436 26.8011 25.7855Z" fill="white"/>
</svg>
