<svg width="218" height="57" viewBox="0 0 218 57" fill="none" xmlns="http://www.w3.org/2000/svg">
<g clip-path="url(#clip0_1810_655)">
<path d="M204.686 11.5724L195.125 11.5727C192.148 11.5727 189.776 12.303 188.157 13.8899C186.541 15.473 185.807 17.7787 185.807 20.6563V30.0231C185.807 32.9007 186.541 35.2064 188.157 36.7894C189.776 38.3764 192.148 39.1067 195.125 39.1067H211.914V34.0427H195.595C193.971 34.0427 192.909 33.6508 192.244 32.9976C191.574 32.3401 191.17 31.2839 191.17 29.6743V20.756C191.17 19.1245 191.586 18.0281 192.285 17.3375C192.978 16.6519 194.081 16.238 195.752 16.238H204.007C205.324 16.238 206.158 16.5462 206.666 17.0221C207.172 17.4954 207.491 18.2615 207.491 19.4604V20.6562C207.491 21.6495 207.191 22.266 206.714 22.6534C206.213 23.0608 205.375 23.3306 204.059 23.3306H191.659V27.7967H205.104C207.5 27.7967 209.448 27.3059 210.802 26.1833C212.178 25.0428 212.802 23.3682 212.802 21.3037V19.2112C212.802 16.7975 212.154 14.849 210.728 13.5104C209.303 12.1741 207.237 11.5724 204.686 11.5724Z" fill="white"/>
<path d="M104.887 11.5726C101.911 11.5726 99.5388 12.303 97.9193 13.8899C96.3037 15.473 95.5698 17.7786 95.5698 20.6563V30.023C95.5698 32.9007 96.3037 35.2063 97.9193 36.7894C99.5388 38.3763 101.911 39.1067 104.887 39.1067H117.862V33.9929H105.619C103.948 33.9929 102.831 33.5789 102.124 32.8852C101.413 32.1876 100.985 31.0789 100.985 29.4251V21.2544C100.985 19.6006 101.413 18.5072 102.12 17.823C102.825 17.1409 103.942 16.7364 105.619 16.7364H117.862V11.5728L104.887 11.5726Z" fill="white"/>
<path d="M181.4 0.860838L175.984 0.860634V29.4251C175.984 31.0788 175.557 32.1874 174.845 32.8851C174.138 33.5788 173.021 33.9928 171.35 33.9928H163.826C162.156 33.9928 161.039 33.5789 160.331 32.8851C159.62 32.1875 159.193 31.0789 159.193 29.4251V21.2543C159.193 19.6006 159.62 18.5072 160.328 17.823C161.033 17.1409 162.15 16.7363 163.826 16.7363H175.495V11.5727H163.095C160.118 11.5727 157.746 12.3031 156.127 13.89C154.511 15.4731 153.777 17.7787 153.777 20.6564V30.0231C153.777 32.9008 154.511 35.2064 156.127 36.7895C157.746 38.3764 160.118 39.1068 163.095 39.1068H172.082C175.059 39.1068 177.431 38.3764 179.05 36.7895C180.666 35.2064 181.4 32.9008 181.4 30.0231V0.860838Z" fill="white"/>
<path d="M132.151 11.8907H131.024V12.9645H132.151V11.8907Z" fill="white"/>
<path d="M134.403 11.8907H133.277V12.9645H134.403V11.8907Z" fill="white"/>
<path d="M135.529 11.8907H134.403V12.9645H135.529V11.8907Z" fill="white"/>
<path d="M137.782 11.8907H136.655V12.9645H137.782V11.8907Z" fill="white"/>
<path d="M138.908 11.8907H137.782V12.9645H138.908V11.8907Z" fill="white"/>
<path d="M132.151 12.9645H131.024V14.0382H132.151V12.9645Z" fill="white"/>
<path d="M133.277 12.9645H132.151V14.0382H133.277L133.277 12.9645Z" fill="white"/>
<path d="M134.403 12.9645H133.277L133.277 14.0382H134.403V12.9645Z" fill="white"/>
<path d="M135.529 12.9645H134.403V14.0382H135.529V12.9645Z" fill="white"/>
<path d="M136.655 12.9645H135.529V14.0382H136.656L136.655 12.9645Z" fill="white"/>
<path d="M138.908 12.9645H137.782L137.782 14.0382H138.908V12.9645Z" fill="white"/>
<path d="M132.151 14.0382H131.024V15.1122H132.151V14.0382Z" fill="white"/>
<path d="M133.277 14.0382H132.151V15.1122H133.277V14.0382Z" fill="white"/>
<path d="M135.529 14.0382H134.403L134.403 15.1122H135.529V14.0382Z" fill="white"/>
<path d="M136.656 14.0382H135.529V15.1122H136.656V14.0382Z" fill="white"/>
<path d="M137.782 14.0382H136.656V15.1122H137.782L137.782 14.0382Z" fill="white"/>
<path d="M138.908 14.0382H137.782L137.782 15.1122H138.908V14.0382Z" fill="white"/>
<path d="M133.277 15.1122H132.151L132.151 16.186H133.277V15.1122Z" fill="white"/>
<path d="M137.782 15.1122H136.656L136.655 16.186H137.782V15.1122Z" fill="white"/>
<path d="M140.034 15.1122L138.908 15.1122L138.908 16.186H140.034V15.1122Z" fill="white"/>
<path d="M141.16 15.1122H140.034V16.186H141.16V15.1122Z" fill="white"/>
<path d="M132.151 16.186L131.024 16.1862V17.26H132.151L132.151 16.186Z" fill="white"/>
<path d="M134.403 16.1862L133.277 16.186L133.277 17.26H134.403V16.1862Z" fill="white"/>
<path d="M137.782 16.186H136.655V17.26H137.782V16.186Z" fill="white"/>
<path d="M138.908 16.186H137.782V17.26H138.908L138.908 16.186Z" fill="white"/>
<path d="M135.529 17.2598L134.403 17.26L134.403 18.3337H135.529V17.2598Z" fill="white"/>
<path d="M136.655 17.26L135.529 17.2598V18.3337H136.656L136.655 17.26Z" fill="white"/>
<path d="M137.782 17.26H136.655L136.656 18.3337H137.782V17.26Z" fill="white"/>
<path d="M138.908 17.26H137.782V18.3337H138.908V17.26Z" fill="white"/>
<path d="M132.151 18.3337H131.024V19.4075H132.151V18.3337Z" fill="white"/>
<path d="M134.403 18.3337L133.277 18.3337V19.4075H134.403L134.403 18.3337Z" fill="white"/>
<path d="M136.656 18.3337H135.529L135.53 19.4075H136.656V18.3337Z" fill="white"/>
<path d="M138.908 18.3337H137.782L137.782 19.4075H138.908V18.3337Z" fill="white"/>
<path d="M141.16 18.3337H140.034V19.4075H141.16V18.3337Z" fill="white"/>
<path d="M133.277 19.4075H132.151L132.151 20.4814H133.277L133.277 19.4075Z" fill="white"/>
<path d="M137.782 19.4075H136.656L136.655 20.4814H137.782L137.782 19.4075Z" fill="white"/>
<path d="M141.16 19.4075H140.034V20.4814H141.16V19.4075Z" fill="white"/>
<path d="M123.141 20.4812H122.015V21.5551H123.141V20.4812Z" fill="white"/>
<path d="M126.52 20.4812H125.394V21.5551H126.52V20.4812Z" fill="white"/>
<path d="M127.646 20.4812H126.52V21.5551H127.646V20.4812Z" fill="white"/>
<path d="M128.772 20.4812H127.646V21.5551H128.772V20.4812Z" fill="white"/>
<path d="M129.899 20.4812H128.772V21.5551H129.899V20.4812Z" fill="white"/>
<path d="M131.025 20.4812H129.899V21.5551H131.025V20.4812Z" fill="white"/>
<path d="M132.151 20.4814L131.025 20.4812V21.5551H132.151L132.151 20.4814Z" fill="white"/>
<path d="M140.034 20.4814L138.908 20.4812V21.5551H140.034L140.034 20.4814Z" fill="white"/>
<path d="M141.16 20.4814H140.034L140.034 21.5551H141.16V20.4814Z" fill="white"/>
<path d="M142.286 20.4812L141.16 20.4814V21.5551H142.286V20.4812Z" fill="white"/>
<path d="M145.665 20.4812H144.539V21.5551H145.665V20.4812Z" fill="white"/>
<path d="M147.917 20.4812H146.791V21.5551H147.917V20.4812Z" fill="white"/>
<path d="M149.043 20.4812H147.917V21.5551H149.043V20.4812Z" fill="white"/>
<path d="M150.17 20.4812H149.043V21.5551H150.17V20.4812Z" fill="white"/>
<path d="M123.141 21.5551H122.015V22.629H123.141V21.5551Z" fill="white"/>
<path d="M124.268 21.5552L123.141 21.5551V22.629H124.268V21.5552Z" fill="white"/>
<path d="M125.394 21.5551L124.268 21.5552V22.629H125.394L125.394 21.5551Z" fill="white"/>
<path d="M128.772 21.5551H127.646L127.646 22.629H128.772V21.5551Z" fill="white"/>
<path d="M131.025 21.5551H129.899L129.899 22.629H131.025V21.5551Z" fill="white"/>
<path d="M132.151 21.5551H131.025V22.629H132.151V21.5551Z" fill="white"/>
<path d="M134.403 21.5552H133.277V22.629H134.403V21.5552Z" fill="white"/>
<path d="M135.529 21.5552H134.403V22.629H135.529V21.5552Z" fill="white"/>
<path d="M136.656 21.5552H135.529V22.629H136.656V21.5552Z" fill="white"/>
<path d="M137.782 21.5552H136.656V22.629H137.782V21.5552Z" fill="white"/>
<path d="M138.908 21.5551L137.782 21.5552V22.629H138.908L138.908 21.5551Z" fill="white"/>
<path d="M140.034 21.5551H138.908L138.908 22.629H140.034V21.5551Z" fill="white"/>
<path d="M144.539 21.5551L143.413 21.5552V22.629H144.539L144.539 21.5551Z" fill="white"/>
<path d="M145.665 21.5551H144.539L144.539 22.629H145.665V21.5551Z" fill="white"/>
<path d="M146.791 21.5551H145.665V22.629H146.791L146.791 21.5551Z" fill="white"/>
<path d="M147.917 21.5551H146.791L146.791 22.629H147.917V21.5551Z" fill="white"/>
<path d="M149.043 21.5551H147.917V22.629H149.043V21.5551Z" fill="white"/>
<path d="M124.268 22.629H123.141L123.141 23.7028H124.268V22.629Z" fill="white"/>
<path d="M125.394 22.629H124.268V23.7028H125.394V22.629Z" fill="white"/>
<path d="M126.52 22.629L125.394 22.629V23.7028H126.52V22.629Z" fill="white"/>
<path d="M128.772 22.629H127.646V23.7028H128.772V22.629Z" fill="white"/>
<path d="M129.899 22.629H128.772V23.7028H129.899L129.899 22.629Z" fill="white"/>
<path d="M131.025 22.629H129.899L129.899 23.7028H131.025V22.629Z" fill="white"/>
<path d="M134.403 22.629H133.277V23.7028H134.403V22.629Z" fill="white"/>
<path d="M136.656 22.629H135.529L135.53 23.7028H136.656V22.629Z" fill="white"/>
<path d="M137.782 22.629H136.656V23.7028H137.782V22.629Z" fill="white"/>
<path d="M140.034 22.629H138.908L138.908 23.7028H140.034V22.629Z" fill="white"/>
<path d="M142.286 22.629H141.16V23.7028H142.286V22.629Z" fill="white"/>
<path d="M145.665 22.629H144.539L144.539 23.7028H145.665V22.629Z" fill="white"/>
<path d="M146.791 22.629H145.665V23.7028H146.791V22.629Z" fill="white"/>
<path d="M150.17 22.629L149.043 22.629L149.044 23.7028H150.17V22.629Z" fill="white"/>
<path d="M124.268 23.7028H123.141V24.7769H124.268V23.7028Z" fill="white"/>
<path d="M126.52 23.7028H125.394L125.394 24.7769H126.52V23.7028Z" fill="white"/>
<path d="M128.772 23.7028H127.646V24.7769H128.772V23.7028Z" fill="white"/>
<path d="M131.025 23.7028H129.899L129.899 24.7769H131.025V23.7028Z" fill="white"/>
<path d="M132.151 23.7031L131.025 23.7028V24.7769H132.151V23.7031Z" fill="white"/>
<path d="M133.277 23.7028L132.151 23.7031V24.7769H133.277L133.277 23.7028Z" fill="white"/>
<path d="M135.53 23.7028H134.403L134.403 24.7769H135.529L135.53 23.7028Z" fill="white"/>
<path d="M136.656 23.7028H135.53L135.529 24.7769H136.656V23.7028Z" fill="white"/>
<path d="M143.413 23.7031L142.286 23.7028L142.286 24.7769H143.413V23.7031Z" fill="white"/>
<path d="M144.539 23.7028L143.413 23.7031V24.7769H144.539L144.539 23.7028Z" fill="white"/>
<path d="M145.665 23.7028H144.539L144.539 24.7769H145.665V23.7028Z" fill="white"/>
<path d="M146.791 23.7028H145.665V24.7769H146.791V23.7028Z" fill="white"/>
<path d="M147.917 23.7031L146.791 23.7028V24.7769H147.917V23.7031Z" fill="white"/>
<path d="M149.044 23.7028L147.917 23.7031V24.7769H149.043L149.044 23.7028Z" fill="white"/>
<path d="M150.17 23.7028H149.044L149.043 24.7769H150.17V23.7028Z" fill="white"/>
<path d="M123.141 24.7769L122.015 24.7767V25.8506H123.141L123.141 24.7769Z" fill="white"/>
<path d="M124.268 24.7769H123.141L123.141 25.8506H124.268V24.7769Z" fill="white"/>
<path d="M125.394 24.7769H124.268V25.8506H125.394L125.394 24.7769Z" fill="white"/>
<path d="M126.52 24.7769H125.394L125.394 25.8506H126.52V24.7769Z" fill="white"/>
<path d="M128.772 24.7769H127.646V25.8506H128.772V24.7769Z" fill="white"/>
<path d="M129.899 24.7769H128.772V25.8506H129.899L129.899 24.7769Z" fill="white"/>
<path d="M131.025 24.7769H129.899L129.899 25.8506H131.025V24.7769Z" fill="white"/>
<path d="M132.151 24.7769H131.025V25.8506H132.151V24.7769Z" fill="white"/>
<path d="M133.277 24.7769H132.151V25.8506H133.277V24.7769Z" fill="white"/>
<path d="M135.529 24.7769H134.403V25.8506H135.529V24.7769Z" fill="white"/>
<path d="M136.656 24.7769H135.529V25.8506H136.656V24.7769Z" fill="white"/>
<path d="M140.034 24.7767H138.908V25.8506H140.034V24.7767Z" fill="white"/>
<path d="M141.16 24.7767H140.034V25.8506H141.16V24.7767Z" fill="white"/>
<path d="M143.413 24.7769H142.286V25.8506H143.413V24.7769Z" fill="white"/>
<path d="M144.539 24.7769H143.413V25.8506H144.539V24.7769Z" fill="white"/>
<path d="M150.17 24.7769H149.043L149.044 25.8506H150.17V24.7769Z" fill="white"/>
<path d="M123.141 25.8506H122.015V26.9243H123.141V25.8506Z" fill="white"/>
<path d="M127.646 25.8506H126.52L126.52 26.9243H127.646L127.646 25.8506Z" fill="white"/>
<path d="M132.151 25.8506H131.025L131.024 26.9243H132.151V25.8506Z" fill="white"/>
<path d="M133.277 25.8506H132.151V26.9243H133.277V25.8506Z" fill="white"/>
<path d="M138.908 25.8506L137.782 25.8505V26.9243H138.908L138.908 25.8506Z" fill="white"/>
<path d="M140.034 25.8506H138.908L138.908 26.9243H140.034V25.8506Z" fill="white"/>
<path d="M141.16 25.8506H140.034V26.9243H141.16V25.8506Z" fill="white"/>
<path d="M145.665 25.8505L144.539 25.8506L144.539 26.9243H145.665V25.8505Z" fill="white"/>
<path d="M149.044 25.8506L147.917 25.8505V26.9243H149.043L149.044 25.8506Z" fill="white"/>
<path d="M123.141 26.9243H122.015V27.9984H123.141V26.9243Z" fill="white"/>
<path d="M124.268 26.9246L123.141 26.9243V27.9984H124.268V26.9246Z" fill="white"/>
<path d="M125.394 26.9246H124.268V27.9984H125.394V26.9246Z" fill="white"/>
<path d="M127.646 26.9243H126.52V27.9984H127.646V26.9243Z" fill="white"/>
<path d="M129.899 26.9246H128.772V27.9984H129.899V26.9246Z" fill="white"/>
<path d="M132.151 26.9243H131.024V27.9984H132.151V26.9243Z" fill="white"/>
<path d="M135.529 26.9246H134.403V27.9984H135.529V26.9246Z" fill="white"/>
<path d="M136.656 26.9246H135.529V27.9984H136.656V26.9246Z" fill="white"/>
<path d="M137.782 26.9243L136.656 26.9246V27.9984H137.782L137.782 26.9243Z" fill="white"/>
<path d="M140.034 26.9243H138.908L138.908 27.9984H140.034V26.9243Z" fill="white"/>
<path d="M142.286 26.9246L141.16 26.9243L141.16 27.9984H142.286V26.9246Z" fill="white"/>
<path d="M143.413 26.9246H142.286V27.9984H143.413V26.9246Z" fill="white"/>
<path d="M145.665 26.9243H144.539V27.9984H145.665V26.9243Z" fill="white"/>
<path d="M146.791 26.9246L145.665 26.9243V27.9984H146.791V26.9246Z" fill="white"/>
<path d="M147.917 26.9243L146.791 26.9246V27.9984H147.917L147.917 26.9243Z" fill="white"/>
<path d="M149.043 26.9243H147.917L147.917 27.9984H149.043V26.9243Z" fill="white"/>
<path d="M150.17 26.9246L149.043 26.9243V27.9984H150.17V26.9246Z" fill="white"/>
<path d="M123.141 27.9984H122.015V29.072H123.141V27.9984Z" fill="white"/>
<path d="M126.52 27.9984H125.394L125.394 29.072H126.52L126.52 27.9984Z" fill="white"/>
<path d="M127.646 27.9984H126.52L126.52 29.072H127.646V27.9984Z" fill="white"/>
<path d="M131.024 27.9984H129.899L129.899 29.072H131.025L131.024 27.9984Z" fill="white"/>
<path d="M133.277 27.9981L132.151 27.9984L132.151 29.072H133.277V27.9981Z" fill="white"/>
<path d="M134.403 27.9984L133.277 27.9981V29.072H134.403L134.403 27.9984Z" fill="white"/>
<path d="M135.529 27.9984H134.403L134.403 29.072H135.529V27.9984Z" fill="white"/>
<path d="M140.034 27.9984H138.908V29.072H140.034V27.9984Z" fill="white"/>
<path d="M144.539 27.9984H143.413L143.413 29.072H144.539L144.539 27.9984Z" fill="white"/>
<path d="M146.791 27.9984H145.665L145.665 29.072H146.791V27.9984Z" fill="white"/>
<path d="M147.917 27.9984H146.791V29.072H147.917V27.9984Z" fill="white"/>
<path d="M150.17 27.9984H149.043L149.044 29.072H150.17V27.9984Z" fill="white"/>
<path d="M123.141 29.072H122.015V30.1459H123.141V29.072Z" fill="white"/>
<path d="M125.394 29.072L124.268 29.072V30.1459H125.394L125.394 29.072Z" fill="white"/>
<path d="M126.52 29.072H125.394L125.394 30.1459H126.52V29.072Z" fill="white"/>
<path d="M129.899 29.072L128.772 29.072V30.1459H129.899L129.899 29.072Z" fill="white"/>
<path d="M133.277 29.072H132.151V30.1459H133.277V29.072Z" fill="white"/>
<path d="M137.782 29.072H136.655V30.1459H137.782V29.072Z" fill="white"/>
<path d="M141.16 29.072L140.034 29.072L140.034 30.1459H141.16V29.072Z" fill="white"/>
<path d="M142.286 29.072H141.16V30.1459H142.286V29.072Z" fill="white"/>
<path d="M143.413 29.072L142.286 29.072V30.1459H143.413L143.413 29.072Z" fill="white"/>
<path d="M144.539 29.072H143.413L143.413 30.1459H144.539V29.072Z" fill="white"/>
<path d="M145.665 29.072H144.539V30.1459H145.665L145.665 29.072Z" fill="white"/>
<path d="M147.917 29.072H146.791L146.791 30.1459H147.917V29.072Z" fill="white"/>
<path d="M149.044 29.072H147.917V30.1459H149.043L149.044 29.072Z" fill="white"/>
<path d="M132.151 30.1459L131.024 30.1459V31.2197H132.151L132.151 30.1459Z" fill="white"/>
<path d="M133.277 30.1459H132.151L132.151 31.2197H133.277V30.1459Z" fill="white"/>
<path d="M134.403 30.1459L133.277 30.1459V31.2197H134.403V30.1459Z" fill="white"/>
<path d="M135.529 30.1459H134.403V31.2197H135.529V30.1459Z" fill="white"/>
<path d="M136.655 30.1459L135.529 30.1459V31.2197H136.656L136.655 30.1459Z" fill="white"/>
<path d="M137.782 30.1459H136.655L136.656 31.2197H137.782V30.1459Z" fill="white"/>
<path d="M141.16 30.1459H140.034V31.2197H141.16V30.1459Z" fill="white"/>
<path d="M145.665 30.1459H144.539L144.539 31.2197H145.665V30.1459Z" fill="white"/>
<path d="M147.917 30.1459H146.791V31.2197H147.917V30.1459Z" fill="white"/>
<path d="M149.043 30.1459H147.917V31.2197H149.043V30.1459Z" fill="white"/>
<path d="M132.151 31.2197H131.024V32.2934H132.151V31.2197Z" fill="white"/>
<path d="M133.277 31.2197H132.151V32.2934H133.277V31.2197Z" fill="white"/>
<path d="M134.403 31.2197H133.277V32.2934H134.403V31.2197Z" fill="white"/>
<path d="M135.529 31.2197H134.403V32.2934H135.529V31.2197Z" fill="white"/>
<path d="M141.16 31.2197H140.034V32.2934H141.16V31.2197Z" fill="white"/>
<path d="M143.413 31.2195H142.286V32.2934H143.413V31.2195Z" fill="white"/>
<path d="M145.665 31.2197H144.539V32.2934H145.665V31.2197Z" fill="white"/>
<path d="M150.17 31.2195L149.043 31.2197L149.044 32.2934H150.17V31.2195Z" fill="white"/>
<path d="M132.151 32.2934H131.024V33.3675H132.151V32.2934Z" fill="white"/>
<path d="M133.277 32.2934H132.151V33.3675H133.277V32.2934Z" fill="white"/>
<path d="M134.403 32.2934H133.277V33.3675H134.403V32.2934Z" fill="white"/>
<path d="M136.656 32.2937L135.529 32.2934L135.53 33.3675H136.656V32.2937Z" fill="white"/>
<path d="M137.782 32.2937H136.656V33.3675H137.782V32.2937Z" fill="white"/>
<path d="M138.908 32.2937H137.782V33.3675H138.908V32.2937Z" fill="white"/>
<path d="M140.034 32.2934L138.908 32.2937V33.3675H140.034L140.034 32.2934Z" fill="white"/>
<path d="M141.16 32.2934H140.034L140.034 33.3675H141.16V32.2934Z" fill="white"/>
<path d="M145.665 32.2934H144.539V33.3675H145.665V32.2934Z" fill="white"/>
<path d="M149.044 32.2934L147.917 32.2937V33.3675H149.043L149.044 32.2934Z" fill="white"/>
<path d="M132.151 33.3675H131.024V34.4413H132.151V33.3675Z" fill="white"/>
<path d="M133.277 33.3675H132.151V34.4413H133.277V33.3675Z" fill="white"/>
<path d="M134.403 33.3675H133.277V34.4413H134.403V33.3675Z" fill="white"/>
<path d="M136.656 33.3675H135.53V34.4413H136.656V33.3675Z" fill="white"/>
<path d="M140.034 33.3675H138.908L138.908 34.4413H140.034V33.3675Z" fill="white"/>
<path d="M141.16 33.3675H140.034V34.4413H141.16V33.3675Z" fill="white"/>
<path d="M142.286 33.3675L141.16 33.3675V34.4413H142.286V33.3675Z" fill="white"/>
<path d="M143.413 33.3675H142.286V34.4413H143.413V33.3675Z" fill="white"/>
<path d="M144.539 33.3675L143.413 33.3675V34.4413H144.539L144.539 33.3675Z" fill="white"/>
<path d="M145.665 33.3675H144.539L144.539 34.4413H145.665V33.3675Z" fill="white"/>
<path d="M149.043 33.3675H147.917V34.4413H149.043V33.3675Z" fill="white"/>
<path d="M150.17 33.3675L149.043 33.3675V34.4413H150.17V33.3675Z" fill="white"/>
<path d="M132.151 34.4413H131.024V35.5152H132.151V34.4413Z" fill="white"/>
<path d="M133.277 34.4413H132.151V35.5152H133.277V34.4413Z" fill="white"/>
<path d="M134.403 34.4413H133.277V35.5152H134.403V34.4413Z" fill="white"/>
<path d="M137.782 34.4414L136.656 34.4413L136.655 35.5152H137.782V34.4414Z" fill="white"/>
<path d="M138.908 34.4413L137.782 34.4414V35.5152H138.908L138.908 34.4413Z" fill="white"/>
<path d="M140.034 34.4413H138.908L138.908 35.5152H140.034V34.4413Z" fill="white"/>
<path d="M142.286 34.4413H141.16L141.16 35.5152H142.286V34.4413Z" fill="white"/>
<path d="M143.413 34.4413H142.286V35.5152H143.413V34.4413Z" fill="white"/>
<path d="M149.043 34.4413H147.917V35.5152H149.043V34.4413Z" fill="white"/>
<path d="M150.17 34.4413H149.043V35.5152H150.17V34.4413Z" fill="white"/>
<path d="M133.277 35.5152H132.151L132.151 36.5889H133.277V35.5152Z" fill="white"/>
<path d="M134.403 35.5152H133.277V36.5889H134.403V35.5152Z" fill="white"/>
<path d="M136.655 35.5152L135.53 35.515V36.5889H136.656L136.655 35.5152Z" fill="white"/>
<path d="M137.782 35.5152H136.655L136.656 36.5889H137.782V35.5152Z" fill="white"/>
<path d="M140.034 35.5152H138.908L138.908 36.5889H140.034V35.5152Z" fill="white"/>
<path d="M142.286 35.5152H141.16V36.5889H142.286V35.5152Z" fill="white"/>
<path d="M145.665 35.515H144.539V36.5889H145.665V35.515Z" fill="white"/>
<path d="M146.791 35.515H145.665V36.5889H146.791V35.515Z" fill="white"/>
<path d="M147.917 35.5152L146.791 35.515V36.5889H147.917L147.917 35.5152Z" fill="white"/>
<path d="M149.043 35.5152H147.917L147.917 36.5889H149.043V35.5152Z" fill="white"/>
<path d="M150.17 35.5152H149.043V36.5889H150.17V35.5152Z" fill="white"/>
<path d="M133.277 36.5889H132.151V37.6627H133.277V36.5889Z" fill="white"/>
<path d="M138.908 36.5889H137.782L137.782 37.6627H138.908L138.908 36.5889Z" fill="white"/>
<path d="M143.413 36.5888L142.286 36.5889L142.286 37.6627H143.413V36.5888Z" fill="white"/>
<path d="M144.539 36.5889L143.413 36.5888V37.6627H144.539L144.539 36.5889Z" fill="white"/>
<path d="M145.665 36.5889H144.539L144.539 37.6627H145.665V36.5889Z" fill="white"/>
<path d="M147.917 36.5889H146.791L146.791 37.6627H147.917V36.5889Z" fill="white"/>
<path d="M149.043 36.5889H147.917V37.6627H149.043V36.5889Z" fill="white"/>
<path d="M150.17 36.5889H149.043V37.6627H150.17V36.5889Z" fill="white"/>
<path d="M132.151 37.6627L131.024 37.6628V38.7367H132.151L132.151 37.6627Z" fill="white"/>
<path d="M136.656 37.6628H135.53V38.7367H136.656V37.6628Z" fill="white"/>
<path d="M137.782 37.6627L136.656 37.6628V38.7367H137.782L137.782 37.6627Z" fill="white"/>
<path d="M138.908 37.6627H137.782L137.782 38.7367H138.908V37.6627Z" fill="white"/>
<path d="M141.16 37.6628H140.034V38.7367H141.16V37.6628Z" fill="white"/>
<path d="M143.413 37.6627H142.286V38.7367H143.413V37.6627Z" fill="white"/>
<path d="M146.791 37.6627H145.665L145.665 38.7367H146.791L146.791 37.6627Z" fill="white"/>
<path d="M150.17 37.6627H149.043L149.044 38.7367H150.17V37.6627Z" fill="white"/>
<path d="M127.207 11.8913H124.707C123.488 11.8913 122.456 12.659 122.125 13.7082C122.091 13.8168 122.065 13.9283 122.046 14.0424C122.026 14.1682 122.015 14.297 122.015 14.4282V16.8689C122.015 18.2685 123.223 19.4067 124.707 19.4067L127.207 19.4065C128.69 19.4065 129.898 18.2685 129.898 16.8689V14.4282C129.898 13.0293 128.69 11.8913 127.207 11.8913ZM128.716 16.8688C128.716 17.6463 128.039 18.2789 127.207 18.2789L124.707 18.279C123.875 18.279 123.198 17.6463 123.198 16.8688V14.428C123.198 14.1851 123.264 13.9564 123.38 13.7568C123.492 13.5645 123.65 13.3992 123.841 13.2741C124.086 13.1132 124.385 13.0186 124.707 13.0186H127.207C128.039 13.0186 128.716 13.6509 128.716 14.428V16.8688Z" fill="white"/>
<path d="M147.478 11.8913H144.978C143.759 11.8913 142.727 12.659 142.397 13.7082C142.362 13.8168 142.336 13.9283 142.317 14.0424C142.297 14.1682 142.286 14.297 142.286 14.4282V16.8689C142.286 18.2685 143.494 19.4067 144.978 19.4067L147.478 19.4065C148.962 19.4065 150.169 18.2685 150.169 16.8689V14.4282C150.169 13.0293 148.962 11.8913 147.478 11.8913ZM148.987 16.8688C148.987 17.6463 148.31 18.2789 147.478 18.2789L144.978 18.279C144.146 18.279 143.469 17.6463 143.469 16.8688V14.428C143.469 14.1851 143.535 13.9564 143.651 13.7568C143.763 13.5645 143.922 13.3992 144.112 13.2741C144.357 13.1132 144.656 13.0186 144.978 13.0186H147.478C148.31 13.0186 148.987 13.6509 148.987 14.428V16.8688Z" fill="white"/>
<path d="M127.207 31.2204H124.707C123.488 31.2204 122.456 31.9881 122.125 33.0373C122.091 33.1459 122.065 33.2574 122.046 33.3714C122.026 33.4973 122.015 33.6261 122.015 33.7572V36.198C122.015 37.5976 123.223 38.7356 124.707 38.7356H127.207C128.69 38.7356 129.898 37.5975 129.898 36.1979V33.7572C129.898 32.3584 128.69 31.2204 127.207 31.2204ZM128.716 36.198C128.716 36.9754 128.039 37.6081 127.207 37.6081H124.707C123.875 37.6081 123.198 36.9756 123.198 36.198V33.7572C123.198 33.5143 123.264 33.2857 123.38 33.0859C123.492 32.8937 123.65 32.7284 123.841 32.6034C124.086 32.4424 124.385 32.3479 124.707 32.3479H127.207C128.039 32.3479 128.716 32.9801 128.716 33.7572V36.198Z" fill="white"/>
<path d="M125.191 17.26C124.682 17.26 124.267 16.8724 124.267 16.3964V14.9016C124.267 14.7529 124.307 14.6129 124.378 14.4906C124.447 14.3728 124.544 14.2715 124.661 14.195C124.811 14.0965 124.994 14.0385 125.191 14.0385H126.722C127.232 14.0385 127.646 14.4257 127.646 14.9016V16.3964C127.646 16.8723 127.232 17.2599 126.722 17.2599L125.191 17.26Z" fill="white"/>
<path d="M145.463 17.26C144.953 17.26 144.538 16.8724 144.538 16.3964V14.9016C144.538 14.7529 144.579 14.6129 144.65 14.4906C144.718 14.3728 144.815 14.2715 144.932 14.195C145.082 14.0965 145.265 14.0385 145.462 14.0385H146.994C147.503 14.0385 147.918 14.4257 147.918 14.9016V16.3964C147.918 16.8723 147.503 17.2599 146.994 17.2599L145.463 17.26Z" fill="white"/>
<path d="M125.191 36.5888C124.682 36.5888 124.267 36.2012 124.267 35.7253V34.2305C124.267 34.0818 124.307 33.9419 124.378 33.8194C124.447 33.7015 124.544 33.6003 124.661 33.524C124.811 33.4254 124.994 33.3675 125.191 33.3675H126.722C127.232 33.3675 127.646 33.7545 127.646 34.2305V35.7252C127.646 36.2012 127.232 36.5888 126.722 36.5888H125.191Z" fill="white"/>
<path d="M210.712 6.91568V0.556641H212.735L213.93 4.89366L215.111 0.556641H217.139V6.91568H215.891L215.886 1.90946L214.571 6.91568H213.273L211.965 1.90946L211.96 6.91568H210.712Z" fill="white"/>
<path d="M206.541 6.91568V1.63119H204.566V0.556641H209.857V1.63119H207.892V6.91568H206.541Z" fill="white"/>
<path d="M73.9015 12.3369C68.206 12.3369 65.3846 15.127 65.3846 20.6573V30.024C65.3846 35.5543 68.206 38.3443 73.9015 38.3443H89.8903V34.8069H74.3717C70.8709 34.8069 69.1466 33.1131 69.1466 29.6752V20.7569C69.1466 17.2694 70.9231 15.4756 74.5284 15.4756H82.7839C85.6578 15.4756 87.0685 16.8208 87.0685 19.4614V20.6571C87.0685 22.9489 85.6578 24.0949 82.8363 24.0949H71.2366V27.0343H83.8812C88.4794 27.0343 90.7785 25.1411 90.7785 21.3047V19.2121C90.7785 14.6284 88.3227 12.3366 83.4632 12.3366L73.9015 12.3369Z" fill="#9563BA"/>
<path d="M58.2788 1.625C53.8375 1.625 51.6428 3.76733 51.6428 8.15166V38.3442H55.4048V15.5752H61.4659V12.3368H55.4048V8.25134C55.4048 5.85989 56.6066 4.66416 59.0623 4.66416H61.6749V1.625H58.2788Z" fill="#9563BA"/>
<path d="M41.5061 12.5861V38.3443H45.3204V12.5861H41.5061ZM41.5061 1.625V7.40457H45.3204V1.625H41.5061Z" fill="#9563BA"/>
<path d="M13.395 1.97379V38.3443H36.8557V34.6077H17.3663V1.97393L13.395 1.97379Z" fill="#9563BA"/>
<path d="M2.16471 39.2296H0.723111V37.7468H2.16471V39.2296ZM8.85125 39.2296H2.95957V37.7468H8.85125V39.2296Z" fill="white"/>
<path d="M6.21759 36.6228L6.05859 35.0966C6.59414 35.0046 6.98567 34.8205 7.23741 34.541C7.489 34.2614 7.61381 33.8843 7.61381 33.4099C7.61381 32.9084 7.50216 32.5295 7.27901 32.2752C7.05571 32.0207 6.79459 31.8926 6.49565 31.8926C6.30276 31.8926 6.13998 31.9468 6.00564 32.0531C5.86948 32.1596 5.75208 32.3473 5.65375 32.6143C5.58567 32.7965 5.46842 33.2114 5.29807 33.8608C5.07856 34.696 4.81003 35.2824 4.49021 35.6198C4.0418 36.0943 3.49505 36.3306 2.84981 36.3306C2.43559 36.3306 2.04588 36.2186 1.68446 35.9968C1.32304 35.7732 1.04875 35.4519 0.859496 35.0317C0.670389 34.6114 0.575684 34.1062 0.575684 33.5108C0.575684 32.5422 0.800948 31.8115 1.25314 31.3226C1.70518 30.8319 2.30685 30.5757 3.06177 30.5504L3.1185 32.1199C2.69853 32.1867 2.39777 32.3292 2.21426 32.5475C2.0306 32.7658 1.93801 33.0941 1.93801 33.5307C1.93801 33.9817 2.03635 34.3353 2.23317 34.5897C2.3598 34.7539 2.52833 34.8368 2.74013 34.8368C2.93317 34.8368 3.09777 34.7592 3.23393 34.6041C3.40987 34.4075 3.59157 33.9295 3.78068 33.17C3.96797 32.4105 4.16479 31.8493 4.3654 31.4868C4.56782 31.1223 4.8421 30.8374 5.19217 30.6317C5.5421 30.4259 5.97357 30.3231 6.48627 30.3231C6.95163 30.3231 7.38869 30.4459 7.7955 30.693C8.20216 30.9401 8.50488 31.2883 8.7017 31.7392C8.90034 32.1903 8.99868 32.7532 8.99868 33.426C8.99868 34.4057 8.76222 35.1579 8.28733 35.6829C7.81441 36.2078 7.12379 36.5198 6.21759 36.6228Z" fill="white"/>
<path d="M0.723262 27.5413H3.73521C3.13552 27.0596 2.83461 26.4823 2.83461 25.813C2.83461 25.4685 2.90087 25.1582 3.0334 24.8821C3.16759 24.6061 3.33794 24.3987 3.54414 24.2579C3.75034 24.1172 3.97924 24.0216 4.23098 23.9711C4.48257 23.9187 4.87228 23.8935 5.40011 23.8935H8.8511V25.3764H5.74444C5.1278 25.3764 4.73612 25.4053 4.56956 25.4613C4.40314 25.519 4.27061 25.6199 4.17424 25.7643C4.07576 25.9086 4.02659 26.0891 4.02659 26.3073C4.02659 26.5563 4.08907 26.7782 4.21585 26.9748C4.34066 27.1714 4.52992 27.3139 4.78332 27.4041C5.03506 27.4961 5.40965 27.5413 5.90344 27.5413H8.8511V29.0242H0.723111L0.723262 27.5413Z" fill="white"/>
<path d="M2.16471 22.3907H0.723111V20.9079H2.16471V22.3907ZM8.85125 22.3907H2.95957V20.9079H8.85125V22.3907Z" fill="white"/>
<path d="M8.851 17.8389L2.95932 20.103V18.5443L5.96568 17.4873L6.97022 17.1806C6.71485 17.0993 6.54646 17.047 6.46507 17.0272C6.29866 16.9767 6.13209 16.9244 5.96568 16.8667L2.95932 15.795V14.2688L8.851 16.5004V17.8389Z" fill="white"/>
<path d="M4.77578 12.2592L4.52616 13.6013C3.95097 13.4499 3.52525 13.1882 3.249 12.8185C2.97275 12.4486 2.83463 11.8984 2.83463 11.1695C2.83463 10.5075 2.91602 10.0131 3.08062 9.68841C3.24522 9.36557 3.45339 9.13635 3.70694 9.00465C3.96035 8.87294 4.42389 8.8063 5.10119 8.8063L6.91753 8.82793C7.43402 8.82793 7.81617 8.80442 8.06216 8.75754C8.30815 8.71066 8.57109 8.62223 8.85112 8.4924V9.96437C8.749 10.0023 8.59756 10.0511 8.39711 10.1069C8.30437 10.1304 8.24386 10.1484 8.21542 10.1593C8.47653 10.4119 8.67321 10.6825 8.80377 10.9711C8.93433 11.2598 8.99862 11.5665 8.99862 11.8929C8.99862 12.4685 8.83402 12.923 8.50483 13.255C8.17759 13.5869 7.76141 13.7529 7.25808 13.7529C6.92706 13.7529 6.62994 13.6771 6.36882 13.5256C6.10967 13.3741 5.90906 13.1629 5.77109 12.8887C5.63296 12.6164 5.51178 12.2231 5.4077 11.709C5.27154 11.0161 5.14476 10.5345 5.02555 10.2675H4.86852C4.56579 10.2675 4.35021 10.3378 4.21965 10.4786C4.09091 10.6212 4.02661 10.888 4.02661 11.2795C4.02661 11.5448 4.08153 11.7504 4.19318 11.8984C4.30286 12.0481 4.49771 12.1671 4.77578 12.2592ZM6.03584 10.2675C6.1021 10.457 6.18153 10.7582 6.27427 11.1714C6.367 11.5826 6.45778 11.8532 6.54476 11.9796C6.69045 12.1726 6.87215 12.27 7.09348 12.27C7.31299 12.27 7.50029 12.1924 7.65914 12.0373C7.81814 11.8821 7.89756 11.6855 7.89756 11.4456C7.89756 11.1786 7.80483 10.9224 7.62132 10.6789C7.47941 10.5003 7.30921 10.3811 7.10483 10.3253C6.97245 10.2874 6.71889 10.2675 6.34613 10.2675H6.03584Z" fill="white"/>
<path d="M8.851 8.06291L5.81636 6.03887L2.95932 7.9765V6.16524L4.57884 5.17305L2.95932 4.11927V2.38014L5.75009 4.28358L8.851 2.20703V4.01656L7.02528 5.17305L8.851 6.32406V8.06291Z" fill="white"/>
</g>
<path d="M79.1567 44.8582C79.8908 44.8582 80.5236 45.0101 81.0551 45.3138C81.5867 45.6091 82.0297 46.0479 82.384 46.6301L81.5361 47.2882C81.2239 46.7482 80.8695 46.3685 80.4729 46.1491C80.0848 45.9213 79.6123 45.8074 79.0554 45.8074C78.6083 45.8074 78.237 45.8707 77.9417 45.9973C77.6548 46.1238 77.4439 46.2926 77.3089 46.5035C77.1739 46.706 77.1064 46.938 77.1064 47.1996C77.1064 47.4949 77.1992 47.7565 77.3848 47.9843C77.5704 48.2037 77.9417 48.3766 78.4986 48.5032L80.3084 48.9082C81.11 49.0854 81.6668 49.3554 81.979 49.7182C82.2997 50.0726 82.46 50.5155 82.46 51.0471C82.46 51.5196 82.325 51.9415 82.055 52.3127C81.7934 52.6755 81.4222 52.9582 80.9412 53.1607C80.4603 53.3632 79.895 53.4645 79.2453 53.4645C78.6378 53.4645 78.102 53.3843 77.6379 53.224C77.1823 53.0552 76.79 52.8316 76.4609 52.5532C76.1318 52.2748 75.8618 51.9626 75.6509 51.6166L76.5368 50.8952C76.6972 51.2159 76.9039 51.4985 77.157 51.7432C77.4101 51.9879 77.7139 52.1777 78.0683 52.3127C78.4311 52.4477 78.8445 52.5152 79.3086 52.5152C79.7389 52.5152 80.1101 52.4646 80.4223 52.3634C80.7429 52.2537 80.9876 52.0976 81.1564 51.8951C81.3251 51.6841 81.4095 51.431 81.4095 51.1357C81.4095 50.8657 81.3209 50.6252 81.1437 50.4143C80.9665 50.1949 80.6333 50.0304 80.1439 49.9207L78.1822 49.4777C77.6675 49.3596 77.2498 49.1993 76.9292 48.9968C76.617 48.7859 76.3892 48.5412 76.2458 48.2627C76.1108 47.9759 76.0433 47.6679 76.0433 47.3388C76.0433 46.8916 76.1656 46.4824 76.4103 46.1112C76.6634 45.7315 77.022 45.4277 77.4861 45.1999C77.9586 44.9721 78.5154 44.8582 79.1567 44.8582ZM84.8361 45.7948C84.6083 45.7948 84.4226 45.7273 84.2792 45.5923C84.1442 45.4488 84.0767 45.2632 84.0767 45.0354C84.0767 44.8076 84.1442 44.6262 84.2792 44.4912C84.4226 44.3477 84.6083 44.276 84.8361 44.276C85.0639 44.276 85.2453 44.3477 85.3803 44.4912C85.5237 44.6262 85.5955 44.8076 85.5955 45.0354C85.5955 45.2632 85.5237 45.4488 85.3803 45.5923C85.2453 45.7273 85.0639 45.7948 84.8361 45.7948ZM85.3423 47.0098V53.3379H84.3298V47.0098H85.3423ZM87.6916 53.3379V47.0098H88.5776L88.6409 47.997C88.8687 47.6088 89.164 47.3262 89.5268 47.149C89.8981 46.9718 90.2777 46.8832 90.6659 46.8832C91.1131 46.8832 91.5349 46.9845 91.9315 47.187C92.3281 47.3895 92.6318 47.7016 92.8427 48.1235C92.9777 47.8366 93.1676 47.6046 93.4123 47.4274C93.657 47.2418 93.9227 47.1068 94.2096 47.0224C94.5049 46.9296 94.7834 46.8832 95.0449 46.8832C95.4499 46.8832 95.8338 46.9676 96.1966 47.1363C96.5679 47.3051 96.8716 47.5666 97.1079 47.921C97.3441 48.2754 97.4623 48.731 97.4623 49.2879V53.3379H96.4498V49.3891C96.4498 48.8154 96.3063 48.402 96.0195 48.1488C95.7326 47.8957 95.3782 47.7691 94.9563 47.7691C94.6273 47.7691 94.3193 47.8493 94.0324 48.0096C93.7456 48.1699 93.5135 48.4062 93.3363 48.7184C93.1676 49.0305 93.0832 49.4145 93.0832 49.8701V53.3379H92.0707V49.3891C92.0707 48.8154 91.9273 48.402 91.6404 48.1488C91.3535 47.8957 90.9991 47.7691 90.5773 47.7691C90.2988 47.7691 90.012 47.8451 89.7166 47.997C89.4298 48.1404 89.1893 48.3724 88.9952 48.693C88.8012 49.0137 88.7041 49.4355 88.7041 49.9587V53.3379H87.6916ZM99.7546 55.9957V47.0098H100.641L100.729 48.5538L100.59 48.3766C100.7 48.0813 100.864 47.824 101.084 47.6046C101.303 47.3768 101.569 47.1996 101.881 47.073C102.193 46.9465 102.531 46.8832 102.893 46.8832C103.408 46.8832 103.881 47.014 104.311 47.2755C104.75 47.5371 105.1 47.9126 105.361 48.402C105.623 48.8913 105.754 49.482 105.754 50.1738C105.754 50.8573 105.619 51.4479 105.349 51.9457C105.087 52.4351 104.737 52.8105 104.298 53.0721C103.859 53.3337 103.379 53.4645 102.855 53.4645C102.332 53.4645 101.872 53.3379 101.476 53.0848C101.088 52.8232 100.809 52.4941 100.641 52.0976L100.767 51.9077V55.9957H99.7546ZM102.754 52.5785C103.379 52.5785 103.864 52.3591 104.21 51.9204C104.564 51.4816 104.741 50.8995 104.741 50.1738C104.741 49.4482 104.568 48.866 104.222 48.4273C103.885 47.9885 103.408 47.7691 102.792 47.7691C102.387 47.7691 102.033 47.8704 101.729 48.0729C101.425 48.267 101.189 48.5454 101.02 48.9082C100.852 49.2626 100.767 49.6845 100.767 50.1738C100.767 50.6548 100.847 51.0766 101.008 51.4395C101.176 51.8023 101.408 52.0849 101.704 52.2874C102.007 52.4815 102.358 52.5785 102.754 52.5785ZM108.651 44.0988V51.7305C108.651 52.0512 108.71 52.2748 108.829 52.4013C108.947 52.5195 109.137 52.5785 109.398 52.5785C109.567 52.5785 109.706 52.5659 109.816 52.5405C109.925 52.5152 110.073 52.4688 110.259 52.4013L110.094 53.2873C109.959 53.3463 109.812 53.3885 109.651 53.4138C109.491 53.4476 109.326 53.4645 109.158 53.4645C108.643 53.4645 108.259 53.3252 108.006 53.0468C107.761 52.7684 107.639 52.3423 107.639 51.7685V44.0988H108.651ZM112.064 45.7948C111.837 45.7948 111.651 45.7273 111.507 45.5923C111.372 45.4488 111.305 45.2632 111.305 45.0354C111.305 44.8076 111.372 44.6262 111.507 44.4912C111.651 44.3477 111.837 44.276 112.064 44.276C112.292 44.276 112.474 44.3477 112.609 44.4912C112.752 44.6262 112.824 44.8076 112.824 45.0354C112.824 45.2632 112.752 45.4488 112.609 45.5923C112.474 45.7273 112.292 45.7948 112.064 45.7948ZM112.571 47.0098V53.3379H111.558V47.0098H112.571ZM117.489 44.0355C117.708 44.0355 117.915 44.0609 118.109 44.1115C118.303 44.1621 118.455 44.2338 118.565 44.3266L118.299 45.1493C118.198 45.0818 118.088 45.0354 117.97 45.0101C117.852 44.9763 117.721 44.9595 117.578 44.9595C117.215 44.9595 116.932 45.048 116.73 45.2252C116.527 45.394 116.426 45.6682 116.426 46.0479V47.0098V47.3388V53.3379H115.413V45.9466C115.413 45.6682 115.456 45.4109 115.54 45.1746C115.624 44.9384 115.751 44.7359 115.92 44.5671C116.097 44.3984 116.316 44.2676 116.578 44.1748C116.839 44.082 117.143 44.0355 117.489 44.0355ZM118.54 47.0098V47.883H114.148V47.0098H118.54ZM120.4 45.7948C120.172 45.7948 119.987 45.7273 119.843 45.5923C119.708 45.4488 119.641 45.2632 119.641 45.0354C119.641 44.8076 119.708 44.6262 119.843 44.4912C119.987 44.3477 120.172 44.276 120.4 44.276C120.628 44.276 120.809 44.3477 120.944 44.4912C121.088 44.6262 121.159 44.8076 121.159 45.0354C121.159 45.2632 121.088 45.4488 120.944 45.5923C120.809 45.7273 120.628 45.7948 120.4 45.7948ZM120.906 47.0098V53.3379H119.894V47.0098H120.906ZM125.908 53.4645C125.309 53.4645 124.773 53.3337 124.3 53.0721C123.836 52.8105 123.474 52.4351 123.212 51.9457C122.95 51.4479 122.82 50.8573 122.82 50.1738C122.82 49.4904 122.95 48.904 123.212 48.4146C123.474 47.9168 123.832 47.5371 124.288 47.2755C124.743 47.014 125.262 46.8832 125.845 46.8832C126.435 46.8832 126.937 47.0098 127.351 47.2629C127.772 47.516 128.093 47.862 128.312 48.3007C128.532 48.731 128.642 49.2162 128.642 49.7562C128.642 49.8996 128.637 50.0304 128.629 50.1485C128.62 50.2666 128.608 50.3721 128.591 50.4649H123.478V49.5663H128.148L127.629 49.6676C127.629 49.0601 127.46 48.5918 127.123 48.2627C126.794 47.9337 126.359 47.7691 125.819 47.7691C125.406 47.7691 125.047 47.8662 124.743 48.0602C124.448 48.2459 124.216 48.5201 124.047 48.8829C123.887 49.2373 123.807 49.6676 123.807 50.1738C123.807 50.6716 123.891 51.102 124.06 51.4648C124.229 51.8276 124.465 52.106 124.769 52.3001C125.081 52.4857 125.452 52.5785 125.882 52.5785C126.347 52.5785 126.722 52.4899 127.009 52.3127C127.304 52.1355 127.54 51.8951 127.718 51.5913L128.515 52.0596C128.355 52.3465 128.148 52.5954 127.895 52.8063C127.65 53.0173 127.359 53.1818 127.022 53.2999C126.692 53.4096 126.321 53.4645 125.908 53.4645ZM132.845 53.4645C132.229 53.4645 131.66 53.3337 131.137 53.0721C130.622 52.8105 130.225 52.4393 129.947 51.9584L130.808 51.3382C130.993 51.7263 131.263 52.0301 131.618 52.2495C131.98 52.4688 132.415 52.5785 132.921 52.5785C133.368 52.5785 133.719 52.4941 133.972 52.3254C134.225 52.1482 134.351 51.9204 134.351 51.642C134.351 51.4648 134.292 51.3045 134.174 51.161C134.065 51.0091 133.849 50.8995 133.529 50.832L132.01 50.5155C131.394 50.389 130.951 50.178 130.681 49.8827C130.42 49.5874 130.289 49.2204 130.289 48.7816C130.289 48.4357 130.386 48.1193 130.58 47.8324C130.782 47.5455 131.065 47.3177 131.428 47.149C131.799 46.9718 132.234 46.8832 132.731 46.8832C133.356 46.8832 133.883 47.0055 134.313 47.2502C134.744 47.4949 135.064 47.8409 135.275 48.288L134.427 48.8449C134.284 48.4737 134.052 48.2037 133.731 48.0349C133.411 47.8577 133.077 47.7691 132.731 47.7691C132.428 47.7691 132.166 47.8113 131.947 47.8957C131.736 47.9801 131.571 48.0982 131.453 48.2501C131.343 48.3935 131.289 48.558 131.289 48.7437C131.289 48.9293 131.352 49.1023 131.478 49.2626C131.605 49.4145 131.841 49.5241 132.187 49.5916L133.769 49.9207C134.36 50.0388 134.773 50.2329 135.01 50.5029C135.246 50.7729 135.364 51.102 135.364 51.4901C135.364 51.8866 135.258 52.2368 135.047 52.5405C134.837 52.8359 134.541 53.0637 134.162 53.224C133.782 53.3843 133.343 53.4645 132.845 53.4645ZM141.745 53.3379V44.9848H147.605V45.934H142.757V48.6298H146.529V49.579H142.757V52.3887H147.794V53.3379H141.745ZM149.626 53.3379V47.0098H150.512L150.575 47.997C150.803 47.6088 151.098 47.3262 151.461 47.149C151.832 46.9718 152.212 46.8832 152.6 46.8832C153.047 46.8832 153.469 46.9845 153.866 47.187C154.262 47.3895 154.566 47.7016 154.777 48.1235C154.912 47.8366 155.102 47.6046 155.346 47.4274C155.591 47.2418 155.857 47.1068 156.144 47.0224C156.439 46.9296 156.717 46.8832 156.979 46.8832C157.384 46.8832 157.768 46.9676 158.131 47.1363C158.502 47.3051 158.806 47.5666 159.042 47.921C159.278 48.2754 159.396 48.731 159.396 49.2879V53.3379H158.384V49.3891C158.384 48.8154 158.24 48.402 157.954 48.1488C157.667 47.8957 157.312 47.7691 156.89 47.7691C156.561 47.7691 156.253 47.8493 155.966 48.0096C155.68 48.1699 155.448 48.4062 155.27 48.7184C155.102 49.0305 155.017 49.4145 155.017 49.8701V53.3379H154.005V49.3891C154.005 48.8154 153.861 48.402 153.574 48.1488C153.288 47.8957 152.933 47.7691 152.511 47.7691C152.233 47.7691 151.946 47.8451 151.651 47.997C151.364 48.1404 151.123 48.3724 150.929 48.693C150.735 49.0137 150.638 49.4355 150.638 49.9587V53.3379H149.626ZM164.334 53.4645C163.735 53.4645 163.199 53.3337 162.726 53.0721C162.262 52.8105 161.9 52.4351 161.638 51.9457C161.376 51.4479 161.246 50.8573 161.246 50.1738C161.246 49.4904 161.376 48.904 161.638 48.4146C161.9 47.9168 162.258 47.5371 162.714 47.2755C163.169 47.014 163.688 46.8832 164.271 46.8832C164.861 46.8832 165.363 47.0098 165.777 47.2629C166.199 47.516 166.519 47.862 166.739 48.3007C166.958 48.731 167.068 49.2162 167.068 49.7562C167.068 49.8996 167.063 50.0304 167.055 50.1485C167.046 50.2666 167.034 50.3721 167.017 50.4649H161.904V49.5663H166.574L166.055 49.6676C166.055 49.0601 165.886 48.5918 165.549 48.2627C165.22 47.9337 164.785 47.7691 164.245 47.7691C163.832 47.7691 163.473 47.8662 163.169 48.0602C162.874 48.2459 162.642 48.5201 162.473 48.8829C162.313 49.2373 162.233 49.6676 162.233 50.1738C162.233 50.6716 162.317 51.102 162.486 51.4648C162.655 51.8276 162.891 52.106 163.195 52.3001C163.507 52.4857 163.878 52.5785 164.309 52.5785C164.773 52.5785 165.148 52.4899 165.435 52.3127C165.73 52.1355 165.966 51.8951 166.144 51.5913L166.941 52.0596C166.781 52.3465 166.574 52.5954 166.321 52.8063C166.076 53.0173 165.785 53.1818 165.448 53.2999C165.119 53.4096 164.747 53.4645 164.334 53.4645ZM168.993 53.3379V47.0098H169.816L169.955 48.0476C170.132 47.6595 170.39 47.3684 170.727 47.1743C171.073 46.9802 171.491 46.8832 171.98 46.8832C172.09 46.8832 172.208 46.8916 172.334 46.9085C172.469 46.9254 172.583 46.9591 172.676 47.0098L172.499 47.9337C172.406 47.8999 172.305 47.8746 172.195 47.8577C172.086 47.8409 171.929 47.8324 171.727 47.8324C171.465 47.8324 171.2 47.9084 170.93 48.0602C170.668 48.2121 170.449 48.4441 170.271 48.7563C170.094 49.0601 170.006 49.4482 170.006 49.9207V53.3379H168.993ZM179.166 45.8454L179.394 46.744C179.386 46.744 179.373 46.744 179.356 46.744C179.339 46.744 179.323 46.744 179.306 46.744C178.892 46.744 178.572 46.8284 178.344 46.9971C178.124 47.1574 178.015 47.419 178.015 47.7818L177.395 47.4654C177.395 47.1363 177.471 46.8495 177.622 46.6048C177.774 46.3601 177.981 46.1745 178.243 46.0479C178.504 45.9129 178.791 45.8454 179.103 45.8454C179.112 45.8454 179.12 45.8454 179.128 45.8454C179.145 45.8454 179.158 45.8454 179.166 45.8454ZM177.243 52.5279C177.842 52.5279 178.31 52.6671 178.648 52.9455C178.985 53.2155 179.154 53.5784 179.154 54.034C179.154 54.4474 179.015 54.806 178.736 55.1098C178.466 55.4135 178.099 55.6455 177.635 55.8059C177.179 55.9746 176.665 56.059 176.091 56.059C175.095 56.059 174.349 55.8902 173.851 55.5527C173.361 55.2152 173.117 54.8102 173.117 54.3377C173.117 54.0002 173.226 53.6965 173.446 53.4265C173.674 53.1649 174.053 53.0173 174.585 52.9835L174.496 53.1734C174.209 53.0974 173.965 52.9709 173.762 52.7937C173.568 52.608 173.471 52.3423 173.471 51.9963C173.471 51.6504 173.598 51.3551 173.851 51.1104C174.112 50.8573 174.496 50.7012 175.003 50.6421L175.673 50.9838H175.547C175.133 51.026 174.838 51.1315 174.661 51.3002C174.492 51.4605 174.408 51.6377 174.408 51.8318C174.408 52.068 174.492 52.2452 174.661 52.3634C174.838 52.473 175.083 52.5279 175.395 52.5279H177.243ZM176.078 55.211C176.568 55.211 176.968 55.1604 177.281 55.0591C177.601 54.9579 177.838 54.8271 177.989 54.6668C178.141 54.5065 178.217 54.3335 178.217 54.1479C178.217 53.9201 178.124 53.7387 177.939 53.6037C177.762 53.4687 177.437 53.4012 176.964 53.4012H175.015C174.745 53.4012 174.517 53.4687 174.332 53.6037C174.146 53.7471 174.053 53.9412 174.053 54.1859C174.053 54.498 174.231 54.747 174.585 54.9326C174.948 55.1182 175.446 55.211 176.078 55.211ZM175.99 46.8832C176.496 46.8832 176.943 46.976 177.331 47.1616C177.728 47.3388 178.036 47.5877 178.255 47.9084C178.475 48.229 178.584 48.6002 178.584 49.0221C178.584 49.4355 178.475 49.8068 178.255 50.1359C178.036 50.4565 177.728 50.7096 177.331 50.8952C176.943 51.0724 176.496 51.161 175.99 51.161C175.154 51.161 174.513 50.9627 174.066 50.5662C173.619 50.1612 173.395 49.6465 173.395 49.0221C173.395 48.6002 173.505 48.229 173.724 47.9084C173.952 47.5877 174.26 47.3388 174.648 47.1616C175.036 46.976 175.483 46.8832 175.99 46.8832ZM175.99 47.7059C175.551 47.7059 175.184 47.8282 174.889 48.0729C174.593 48.3091 174.446 48.6255 174.446 49.0221C174.446 49.4102 174.593 49.7266 174.889 49.9713C175.184 50.216 175.551 50.3384 175.99 50.3384C176.428 50.3384 176.796 50.216 177.091 49.9713C177.386 49.7266 177.534 49.4102 177.534 49.0221C177.534 48.6255 177.386 48.3091 177.091 48.0729C176.796 47.8282 176.428 47.7059 175.99 47.7059ZM183.219 53.4645C182.62 53.4645 182.084 53.3337 181.612 53.0721C181.148 52.8105 180.785 52.4351 180.524 51.9457C180.262 51.4479 180.131 50.8573 180.131 50.1738C180.131 49.4904 180.262 48.904 180.524 48.4146C180.785 47.9168 181.144 47.5371 181.599 47.2755C182.055 47.014 182.574 46.8832 183.156 46.8832C183.747 46.8832 184.249 47.0098 184.662 47.2629C185.084 47.516 185.405 47.862 185.624 48.3007C185.843 48.731 185.953 49.2162 185.953 49.7562C185.953 49.8996 185.949 50.0304 185.94 50.1485C185.932 50.2666 185.919 50.3721 185.902 50.4649H180.789V49.5663H185.459L184.941 49.6676C184.941 49.0601 184.772 48.5918 184.434 48.2627C184.105 47.9337 183.671 47.7691 183.131 47.7691C182.717 47.7691 182.359 47.8662 182.055 48.0602C181.76 48.2459 181.528 48.5201 181.359 48.8829C181.199 49.2373 181.118 49.6676 181.118 50.1738C181.118 50.6716 181.203 51.102 181.372 51.4648C181.54 51.8276 181.777 52.106 182.08 52.3001C182.392 52.4857 182.764 52.5785 183.194 52.5785C183.658 52.5785 184.034 52.4899 184.32 52.3127C184.616 52.1355 184.852 51.8951 185.029 51.5913L185.827 52.0596C185.666 52.3465 185.459 52.5954 185.206 52.8063C184.962 53.0173 184.671 53.1818 184.333 53.2999C184.004 53.4096 183.633 53.4645 183.219 53.4645ZM187.879 53.3379V47.0098H188.765L188.853 48.4273L188.689 48.288C188.824 47.9505 189.005 47.6805 189.233 47.478C189.461 47.2671 189.722 47.1152 190.018 47.0224C190.321 46.9296 190.634 46.8832 190.954 46.8832C191.41 46.8832 191.823 46.9718 192.194 47.149C192.566 47.3177 192.861 47.5793 193.08 47.9337C193.308 48.288 193.422 48.7395 193.422 49.2879V53.3379H192.41V49.6423C192.41 48.942 192.258 48.4568 191.954 48.1868C191.659 47.9084 191.292 47.7691 190.853 47.7691C190.549 47.7691 190.245 47.8409 189.942 47.9843C189.638 48.1277 189.385 48.3598 189.182 48.6804C188.988 49.001 188.891 49.4313 188.891 49.9713V53.3379H187.879ZM198.335 46.8832C198.773 46.8832 199.157 46.9507 199.486 47.0857C199.824 47.2207 200.115 47.4148 200.36 47.6679C200.604 47.921 200.803 48.2205 200.954 48.5665L199.993 49.0221C199.858 48.6171 199.651 48.3091 199.372 48.0982C199.102 47.8788 198.748 47.7691 198.309 47.7691C197.887 47.7691 197.525 47.8662 197.221 48.0602C196.917 48.2459 196.685 48.5201 196.525 48.8829C196.364 49.2373 196.284 49.6676 196.284 50.1738C196.284 50.6716 196.364 51.102 196.525 51.4648C196.685 51.8276 196.917 52.106 197.221 52.3001C197.525 52.4857 197.887 52.5785 198.309 52.5785C198.638 52.5785 198.921 52.5279 199.157 52.4266C199.402 52.3254 199.6 52.1777 199.752 51.9837C199.912 51.7896 200.022 51.5534 200.081 51.2749L201.018 51.604C200.874 51.9921 200.676 52.3254 200.423 52.6038C200.178 52.8823 199.879 53.0974 199.524 53.2493C199.178 53.3927 198.782 53.4645 198.335 53.4645C197.744 53.4645 197.217 53.3337 196.753 53.0721C196.288 52.8105 195.926 52.4351 195.664 51.9457C195.403 51.4479 195.272 50.8573 195.272 50.1738C195.272 49.4904 195.403 48.904 195.664 48.4146C195.926 47.9168 196.288 47.5371 196.753 47.2755C197.217 47.014 197.744 46.8832 198.335 46.8832ZM207.764 47.0098L204.789 54.401C204.629 54.8145 204.452 55.1393 204.258 55.3755C204.072 55.6202 203.861 55.7932 203.625 55.8945C203.397 56.0041 203.131 56.059 202.828 56.059C202.541 56.059 202.275 56.0168 202.03 55.9324C201.794 55.8565 201.583 55.751 201.398 55.616L201.676 54.7301C201.845 54.882 202.022 54.9916 202.208 55.0591C202.402 55.1351 202.591 55.173 202.777 55.173C202.996 55.173 203.203 55.1055 203.397 54.9705C203.591 54.8355 203.769 54.5613 203.929 54.1479L204.258 53.3252L203.625 51.8191L201.613 47.0098H202.764L204.346 51.1357L204.739 52.2621L205.194 51.0091L206.675 47.0098H207.764ZM208.655 51.8191C208.899 51.8191 209.098 51.8951 209.25 52.047C209.401 52.1988 209.477 52.3971 209.477 52.6418C209.477 52.8865 209.401 53.0848 209.25 53.2366C209.098 53.3885 208.899 53.4645 208.655 53.4645C208.41 53.4645 208.212 53.3885 208.06 53.2366C207.908 53.0848 207.832 52.8865 207.832 52.6418C207.832 52.3971 207.908 52.1988 208.06 52.047C208.212 51.8951 208.41 51.8191 208.655 51.8191ZM212.017 51.8191C212.261 51.8191 212.46 51.8951 212.611 52.047C212.763 52.1988 212.839 52.3971 212.839 52.6418C212.839 52.8865 212.763 53.0848 212.611 53.2366C212.46 53.3885 212.261 53.4645 212.017 53.4645C211.772 53.4645 211.574 53.3885 211.422 53.2366C211.27 53.0848 211.194 52.8865 211.194 52.6418C211.194 52.3971 211.27 52.1988 211.422 52.047C211.574 51.8951 211.772 51.8191 212.017 51.8191ZM215.378 51.8191C215.623 51.8191 215.821 51.8951 215.973 52.047C216.125 52.1988 216.201 52.3971 216.201 52.6418C216.201 52.8865 216.125 53.0848 215.973 53.2366C215.821 53.3885 215.623 53.4645 215.378 53.4645C215.134 53.4645 214.935 53.3885 214.784 53.2366C214.632 53.0848 214.556 52.8865 214.556 52.6418C214.556 52.3971 214.632 52.1988 214.784 52.047C214.935 51.8951 215.134 51.8191 215.378 51.8191Z" fill="white"/>
<defs>
<clipPath id="clip0_1810_655">
<rect width="216.562" height="38.6719" fill="white" transform="translate(0.575684 0.556641)"/>
</clipPath>
</defs>
</svg>
