<svg width="162" height="47" viewBox="0 0 162 47" fill="none" xmlns="http://www.w3.org/2000/svg">
<path d="M156 47H6C2.7015 47 0 44.3806 0 41.1823V6.27625C0 3.07798 2.7015 0.458567 6 0.458567H156C159.298 0.458567 162 3.07798 162 6.27625V41.1823C162 44.3806 159.298 47 156 47Z" fill="black"/>
<path d="M156 1.39085C158.778 1.39085 161.038 3.58266 161.038 6.27625V41.1823C161.038 43.8759 158.778 46.0677 156 46.0677H6C3.222 46.0677 0.9615 43.8759 0.9615 41.1823V6.27625C0.9615 3.58266 3.222 1.39085 6 1.39085H156ZM156 0.458567H6C2.7015 0.458567 0 3.07798 0 6.27625V41.1823C0 44.3806 2.7015 47 6 47H156C159.298 47 162 44.3806 162 41.1823V6.27625C162 3.07798 159.298 0.458567 156 0.458567Z" fill="#A6A6A6"/>
<path d="M12.5223 9.22992C12.1698 9.58771 11.9658 10.1447 11.9658 10.8661V36.5977C11.9658 37.3191 12.1698 37.8762 12.5223 38.234L12.6093 38.3125L27.4803 23.8992V23.5589L12.6093 9.14556L12.5223 9.22992Z" fill="url(#paint0_linear_2193_7795)"/>
<path d="M32.431 28.7051L27.4795 23.8982V23.5579L32.437 18.751L32.548 18.8136L38.419 22.0526C40.0945 22.9718 40.0945 24.4844 38.419 25.4094L32.548 28.6425L32.431 28.7051V28.7051Z" fill="url(#paint1_linear_2193_7795)"/>
<path d="M32.548 28.6437L27.4795 23.7292L12.5215 38.2342C13.078 38.8014 13.9855 38.8698 15.0175 38.3025L32.548 28.6437" fill="url(#paint2_linear_2193_7795)"/>
<path d="M32.548 18.814L15.0175 9.15523C13.9855 8.59383 13.078 8.66218 12.5215 9.22941L27.4795 23.7285L32.548 18.814Z" fill="url(#paint3_linear_2193_7795)"/>
<path d="M56.901 12.3786C56.901 13.3501 56.601 14.1282 56.01 14.7085C55.3305 15.3965 54.4455 15.7426 53.361 15.7426C52.3245 15.7426 51.4395 15.3907 50.7135 14.6969C49.986 13.993 49.623 13.129 49.623 12.095C49.623 11.0609 49.986 10.1969 50.7135 9.49881C51.4395 8.79924 52.3245 8.44727 53.361 8.44727C53.877 8.44727 54.369 8.55053 54.8385 8.74251C55.3065 8.93595 55.6875 9.19775 55.9635 9.52063L55.3365 10.1344C54.855 9.58317 54.1995 9.31119 53.361 9.31119C52.605 9.31119 51.9495 9.56717 51.393 10.0835C50.8425 10.6013 50.5665 11.2717 50.5665 12.095C50.5665 12.9182 50.8425 13.5945 51.393 14.1122C51.9495 14.6227 52.605 14.8845 53.361 14.8845C54.1635 14.8845 54.8385 14.6227 55.371 14.1064C55.722 13.7646 55.9215 13.2934 55.974 12.6913H53.361V11.8506H56.847C56.889 12.0324 56.901 12.2084 56.901 12.3786V12.3786Z" fill="white" stroke="white" stroke-width="0.16" stroke-miterlimit="10"/>
<path d="M62.432 9.46407H59.1575V11.6748H62.1095V12.5154H59.1575V14.7262H62.432V15.5828H58.2305V8.60742H62.432V9.46407Z" fill="white" stroke="white" stroke-width="0.16" stroke-miterlimit="10"/>
<path d="M66.3349 15.5828H65.4079V9.46407H63.3994V8.60742H68.3449V9.46407H66.3349V15.5828V15.5828Z" fill="white" stroke="white" stroke-width="0.16" stroke-miterlimit="10"/>
<path d="M71.9238 15.5828V8.60742H72.8493V15.5828H71.9238Z" fill="white" stroke="white" stroke-width="0.16" stroke-miterlimit="10"/>
<path d="M76.9511 15.5828H76.0316V9.46407H74.0156V8.60742H78.9671V9.46407H76.9511V15.5828Z" fill="white" stroke="white" stroke-width="0.16" stroke-miterlimit="10"/>
<path d="M88.3307 14.6853C87.6212 15.3907 86.7422 15.7426 85.6937 15.7426C84.6392 15.7426 83.7602 15.3907 83.0507 14.6853C82.3427 13.9813 81.9902 13.1174 81.9902 12.095C81.9902 11.0725 82.3427 10.2086 83.0507 9.50463C83.7602 8.79924 84.6392 8.44727 85.6937 8.44727C86.7362 8.44727 87.6152 8.79924 88.3247 9.51045C89.0387 10.2202 89.3912 11.0783 89.3912 12.095C89.3912 13.1174 89.0387 13.9813 88.3307 14.6853ZM83.7362 14.1006C84.2702 14.6227 84.9197 14.8845 85.6937 14.8845C86.4617 14.8845 87.1172 14.6227 87.6452 14.1006C88.1777 13.5785 88.4477 12.908 88.4477 12.095C88.4477 11.2819 88.1777 10.6114 87.6452 10.0893C87.1172 9.56717 86.4617 9.30537 85.6937 9.30537C84.9197 9.30537 84.2702 9.56717 83.7362 10.0893C83.2037 10.6114 82.9337 11.2819 82.9337 12.095C82.9337 12.908 83.2037 13.5785 83.7362 14.1006V14.1006Z" fill="white" stroke="white" stroke-width="0.16" stroke-miterlimit="10"/>
<path d="M90.6914 15.5828V8.60742H91.8164L95.3144 14.0324H95.3549L95.3144 12.6914V8.60742H96.2399V15.5828H95.2739L91.6109 9.89022H91.5704L91.6109 11.237V15.5828H90.6914V15.5828Z" fill="white" stroke="white" stroke-width="0.16" stroke-miterlimit="10"/>
<path d="M81.762 25.7688C78.9435 25.7688 76.641 27.8486 76.641 30.7182C76.641 33.5645 78.9435 35.6661 81.762 35.6661C84.5865 35.6661 86.889 33.5645 86.889 30.7182C86.889 27.8486 84.5865 25.7688 81.762 25.7688ZM81.762 33.7172C80.2155 33.7172 78.885 32.4795 78.885 30.7182C78.885 28.9336 80.2155 27.7177 81.762 27.7177C83.3085 27.7177 84.645 28.9336 84.645 30.7182C84.645 32.4795 83.3085 33.7172 81.762 33.7172V33.7172ZM70.5885 25.7688C67.764 25.7688 65.4675 27.8486 65.4675 30.7182C65.4675 33.5645 67.764 35.6661 70.5885 35.6661C73.4115 35.6661 75.7095 33.5645 75.7095 30.7182C75.7095 27.8486 73.4115 25.7688 70.5885 25.7688ZM70.5885 33.7172C69.0405 33.7172 67.7055 32.4795 67.7055 30.7182C67.7055 28.9336 69.0405 27.7177 70.5885 27.7177C72.135 27.7177 73.4655 28.9336 73.4655 30.7182C73.4655 32.4795 72.135 33.7172 70.5885 33.7172ZM57.2925 27.2858V29.3889H62.472C62.3205 30.564 61.9155 31.4279 61.2945 32.0301C60.5385 32.7573 59.361 33.5645 57.2925 33.5645C54.105 33.5645 51.609 31.0702 51.609 27.9795C51.609 24.8889 54.105 22.3945 57.2925 22.3945C59.016 22.3945 60.27 23.0476 61.1955 23.8941L62.724 22.412C61.4295 21.2136 59.7075 20.2929 57.2925 20.2929C52.9215 20.2929 49.248 23.7413 49.248 27.9795C49.248 32.2177 52.9215 35.6661 57.2925 35.6661C59.655 35.6661 61.4295 34.9156 62.8245 33.5078C64.254 32.1217 64.6995 30.1728 64.6995 28.5991C64.6995 28.1104 64.6575 27.661 64.5825 27.2858H57.2925ZM111.662 28.9162C111.24 27.8094 109.94 25.7688 107.291 25.7688C104.666 25.7688 102.48 27.7744 102.48 30.7182C102.48 33.4903 104.643 35.6661 107.543 35.6661C109.887 35.6661 111.24 34.2801 111.797 33.4729L110.057 32.3486C109.476 33.1718 108.686 33.7172 107.543 33.7172C106.407 33.7172 105.593 33.2125 105.071 32.2177L111.897 29.479L111.662 28.9162V28.9162ZM104.702 30.564C104.643 28.6558 106.23 27.6785 107.367 27.6785C108.258 27.6785 109.014 28.1104 109.266 28.7285L104.702 30.564V30.564ZM99.153 35.3651H101.397V20.8209H99.153V35.3651ZM95.478 26.8712H95.403C94.899 26.2924 93.9375 25.7688 92.7195 25.7688C90.1635 25.7688 87.8265 27.9446 87.8265 30.7342C87.8265 33.5078 90.1635 35.6661 92.7195 35.6661C93.9375 35.6661 94.899 35.1382 95.403 34.5419H95.478V35.2516C95.478 37.1438 94.4355 38.1605 92.754 38.1605C91.383 38.1605 90.5325 37.2005 90.1815 36.3933L88.23 37.1831C88.7925 38.495 90.282 40.1094 92.754 40.1094C95.385 40.1094 97.605 38.6084 97.605 34.9564V26.0699H95.478V26.8712V26.8712ZM92.9115 33.7172C91.365 33.7172 90.0705 32.462 90.0705 30.7342C90.0705 28.9903 91.365 27.7177 92.9115 27.7177C94.4355 27.7177 95.637 28.9903 95.637 30.7342C95.637 32.462 94.4355 33.7172 92.9115 33.7172V33.7172ZM122.168 20.8209H116.801V35.3651H119.039V29.8543H122.168C124.653 29.8543 127.091 28.1104 127.091 25.3368C127.091 22.5647 124.647 20.8209 122.168 20.8209V20.8209ZM122.226 27.8312H119.039V22.844H122.226C123.897 22.844 124.851 24.1893 124.851 25.3368C124.851 26.4626 123.897 27.8312 122.226 27.8312ZM136.061 25.7412C134.444 25.7412 132.762 26.4335 132.071 27.9679L134.057 28.7751C134.484 27.9679 135.27 27.7061 136.101 27.7061C137.262 27.7061 138.44 28.3824 138.458 29.5765V29.7292C138.053 29.5023 137.186 29.1663 136.119 29.1663C133.98 29.1663 131.801 30.308 131.801 32.4388C131.801 34.3877 133.553 35.6429 135.522 35.6429C137.028 35.6429 137.859 34.984 138.381 34.2175H138.458V35.3418H140.619V29.7626C140.619 27.184 138.633 25.7412 136.061 25.7412ZM135.791 33.7114C135.059 33.7114 134.039 33.3594 134.039 32.4795C134.039 31.3538 135.311 30.9218 136.412 30.9218C137.397 30.9218 137.859 31.1327 138.458 31.4105C138.282 32.7573 137.087 33.7114 135.791 33.7114V33.7114ZM148.494 26.0597L145.921 32.3646H145.845L143.186 26.0597H140.772L144.768 34.8706L142.488 39.7734H144.827L150.984 26.0597H148.494V26.0597ZM128.321 35.3651H130.565V20.8209H128.321V35.3651Z" fill="white"/>
<defs>
<linearGradient id="paint0_linear_2193_7795" x1="26.16" y1="36.8657" x2="6.64232" y2="16.7364" gradientUnits="userSpaceOnUse">
<stop stop-color="#00A0FF"/>
<stop offset="0.0066" stop-color="#00A1FF"/>
<stop offset="0.2601" stop-color="#00BEFF"/>
<stop offset="0.5122" stop-color="#00D2FF"/>
<stop offset="0.7604" stop-color="#00DFFF"/>
<stop offset="1" stop-color="#00E3FF"/>
</linearGradient>
<linearGradient id="paint1_linear_2193_7795" x1="40.6008" y1="23.7264" x2="11.5645" y2="23.7264" gradientUnits="userSpaceOnUse">
<stop stop-color="#FFE000"/>
<stop offset="0.4087" stop-color="#FFBD00"/>
<stop offset="0.7754" stop-color="#FFA500"/>
<stop offset="1" stop-color="#FF9C00"/>
</linearGradient>
<linearGradient id="paint2_linear_2193_7795" x1="29.7919" y1="21.0577" x2="3.32439" y2="-6.2393" gradientUnits="userSpaceOnUse">
<stop stop-color="#FF3A44"/>
<stop offset="1" stop-color="#C31162"/>
</linearGradient>
<linearGradient id="paint3_linear_2193_7795" x1="8.75625" y1="46.7942" x2="20.5752" y2="34.605" gradientUnits="userSpaceOnUse">
<stop stop-color="#32A071"/>
<stop offset="0.0685" stop-color="#2DA771"/>
<stop offset="0.4762" stop-color="#15CF74"/>
<stop offset="0.8009" stop-color="#06E775"/>
<stop offset="1" stop-color="#00F076"/>
</linearGradient>
</defs>
</svg>
