
<svg width="26" height="27" viewBox="0 0 26 27" fill="none" xmlns="http://www.w3.org/2000/svg">
<g clip-path="url(#clip0_233_195)">
<path d="M12.708 25.0452C12.3521 25.0452 12.0089 24.9111 11.7415 24.6675C10.7316 23.7491 9.75789 22.886 8.89883 22.1247L8.89444 22.1207C6.37579 19.8886 4.20084 17.9608 2.68756 16.0619C0.995932 13.939 0.208008 11.9262 0.208008 9.72734C0.208008 7.59096 0.91239 5.62001 2.19127 4.17731C3.4854 2.71754 5.26114 1.91357 7.19194 1.91357C8.63504 1.91357 9.95664 2.38806 11.1199 3.32375C11.707 3.79605 12.2392 4.37408 12.708 5.04832C13.177 4.37408 13.709 3.79605 14.2962 3.32375C15.4595 2.38806 16.7811 1.91357 18.2242 1.91357C20.1548 1.91357 21.9308 2.71754 23.2249 4.17731C24.5038 5.62001 25.208 7.59096 25.208 9.72734C25.208 11.9262 24.4202 13.939 22.7286 16.0617C21.2153 17.9608 19.0406 19.8884 16.5223 22.1203C15.6617 22.8829 14.6865 23.7473 13.6742 24.6679C13.407 24.9111 13.0637 25.0452 12.708 25.0452ZM7.19194 3.43662C5.67503 3.43662 4.28152 4.06622 3.26777 5.20959C2.23895 6.37022 1.67228 7.97459 1.67228 9.72734C1.67228 11.5767 2.33317 13.2307 3.81499 15.0901C5.24721 16.8875 7.37753 18.7755 9.84411 20.9617L9.84868 20.9657C10.711 21.73 11.6885 22.5964 12.7059 23.5216C13.7294 22.5946 14.7084 21.7268 15.5724 20.9613C18.0388 18.7751 20.1689 16.8875 21.6012 15.0901C23.0828 13.2307 23.7437 11.5767 23.7437 9.72734C23.7437 7.97459 23.177 6.37022 22.1482 5.20959C21.1346 4.06622 19.7409 3.43662 18.2242 3.43662C17.113 3.43662 16.0928 3.80399 15.1919 4.52841C14.3891 5.17429 13.8299 5.99075 13.502 6.56204C13.3334 6.85582 13.0366 7.03117 12.708 7.03117C12.3793 7.03117 12.0826 6.85582 11.914 6.56204C11.5863 5.99075 11.027 5.17429 10.224 4.52841C9.32321 3.80399 8.30297 3.43662 7.19194 3.43662Z" fill="black"/>
</g>
<defs>
<clipPath id="clip0_233_195">
<rect width="25" height="26" fill="white" transform="translate(0.208008 0.873291)"/>
</clipPath>
</defs>
</svg>
