<svg width="35" height="15" viewBox="0 0 35 15" fill="none" xmlns="http://www.w3.org/2000/svg">
<path d="M33.4453 8.46387C33.9976 8.46387 34.4453 8.01615 34.4453 7.46387C34.4453 6.91158 33.9976 6.46387 33.4453 6.46387V7.46387V8.46387ZM0.799118 6.75676C0.408596 7.14728 0.408596 7.78045 0.799118 8.17097L7.16308 14.5349C7.5536 14.9255 8.18677 14.9255 8.57729 14.5349C8.96782 14.1444 8.96782 13.5112 8.57729 13.1207L2.92044 7.46387L8.57729 1.80701C8.96782 1.41649 8.96782 0.783324 8.57729 0.392799C8.18677 0.00227499 7.5536 0.00227499 7.16308 0.392799L0.799118 6.75676ZM33.4453 7.46387V6.46387L1.50623 6.46387V7.46387V8.46387L33.4453 8.46387V7.46387Z" fill="#252525"/>
</svg>
