<svg width="246" height="44" viewBox="0 0 246 44" fill="none" xmlns="http://www.w3.org/2000/svg">
<g clip-path="url(#clip0_1324_615)">
<path d="M231.854 12.5335L220.993 12.5338C217.611 12.5338 214.917 13.3648 213.077 15.1703C211.242 16.9715 210.409 19.5948 210.409 22.869V33.5262C210.409 36.8004 211.242 39.4237 213.077 41.2249C214.917 43.0304 217.611 43.8614 220.993 43.8614H240.064V38.0996H221.527C219.682 38.0996 218.476 37.6538 217.72 36.9106C216.96 36.1625 216.501 34.9608 216.501 33.1294V22.9824C216.501 21.1261 216.973 19.8787 217.767 19.0929C218.555 18.3129 219.807 17.8419 221.705 17.8419H231.082C232.579 17.8419 233.526 18.1926 234.103 18.734C234.677 19.2725 235.04 20.1441 235.04 21.5083V22.8688C235.04 23.999 234.7 24.7004 234.158 25.1412C233.588 25.6047 232.637 25.9117 231.142 25.9117H217.056V30.9931H232.329C235.051 30.9931 237.263 30.4347 238.802 29.1575C240.365 27.8598 241.073 25.9545 241.073 23.6056V21.2247C241.073 18.4784 240.337 16.2615 238.717 14.7385C237.099 13.2181 234.752 12.5335 231.854 12.5335Z" fill="#010101"/>
<path d="M118.489 12.5337C115.108 12.5337 112.414 13.3647 110.574 15.1703C108.739 16.9715 107.905 19.5948 107.905 22.8689V33.5262C107.905 36.8003 108.739 39.4236 110.574 41.2248C112.414 43.0304 115.108 43.8614 118.489 43.8614H133.228V38.043H119.32C117.423 38.043 116.153 37.572 115.35 36.7827C114.542 35.9889 114.057 34.7275 114.057 32.8459V23.5494C114.057 21.6678 114.542 20.4238 115.346 19.6453C116.147 18.8692 117.416 18.4089 119.32 18.4089H133.228V12.5339L118.489 12.5337Z" fill="#010101"/>
<path d="M205.402 0.346109L199.25 0.345876V32.8458C199.25 34.7274 198.765 35.9888 197.957 36.7826C197.154 37.5719 195.884 38.0429 193.987 38.0429H185.44C183.543 38.0429 182.273 37.5719 181.47 36.7826C180.662 35.9889 180.177 34.7275 180.177 32.8458V23.5494C180.177 21.6678 180.662 20.4237 181.466 19.6453C182.267 18.8692 183.536 18.4089 185.44 18.4089H198.695V12.5339H184.609C181.228 12.5339 178.534 13.3648 176.694 15.1704C174.859 16.9716 174.025 19.5949 174.025 22.869V33.5263C174.025 36.8004 174.859 39.4238 176.694 41.2249C178.534 43.0305 181.228 43.8615 184.609 43.8615H194.818C198.199 43.8615 200.893 43.0305 202.733 41.2249C204.568 39.4238 205.402 36.8004 205.402 33.5263V0.346109Z" fill="#010101"/>
<path d="M149.459 12.8956H148.179V14.1174H149.459V12.8956Z" fill="#010101"/>
<path d="M152.017 12.8956H150.738V14.1174H152.017V12.8956Z" fill="#010101"/>
<path d="M153.297 12.8956H152.017V14.1174H153.297V12.8956Z" fill="#010101"/>
<path d="M155.855 12.8956H154.576V14.1174H155.855V12.8956Z" fill="#010101"/>
<path d="M157.135 12.8956H155.855V14.1174H157.135V12.8956Z" fill="#010101"/>
<path d="M149.459 14.1174H148.179V15.339H149.459V14.1174Z" fill="#010101"/>
<path d="M150.738 14.1174H149.459V15.339H150.738L150.738 14.1174Z" fill="#010101"/>
<path d="M152.017 14.1174H150.738L150.738 15.339H152.017V14.1174Z" fill="#010101"/>
<path d="M153.297 14.1174H152.017V15.339H153.297V14.1174Z" fill="#010101"/>
<path d="M154.576 14.1174H153.297V15.339H154.576L154.576 14.1174Z" fill="#010101"/>
<path d="M157.135 14.1174H155.855L155.855 15.339H157.135V14.1174Z" fill="#010101"/>
<path d="M149.459 15.339H148.179V16.561H149.459V15.339Z" fill="#010101"/>
<path d="M150.738 15.339H149.459V16.561H150.738V15.339Z" fill="#010101"/>
<path d="M153.297 15.339H152.017L152.017 16.561H153.297V15.339Z" fill="#010101"/>
<path d="M154.576 15.339H153.297V16.561H154.576V15.339Z" fill="#010101"/>
<path d="M155.855 15.339H154.576V16.561H155.855L155.855 15.339Z" fill="#010101"/>
<path d="M157.135 15.339H155.855L155.855 16.561H157.135V15.339Z" fill="#010101"/>
<path d="M150.738 16.561H149.459L149.459 17.7827H150.738V16.561Z" fill="#010101"/>
<path d="M155.855 16.561H154.576L154.576 17.7827H155.855V16.561Z" fill="#010101"/>
<path d="M158.414 16.561L157.135 16.561L157.134 17.7827H158.414V16.561Z" fill="#010101"/>
<path d="M159.693 16.561H158.414V17.7827H159.693V16.561Z" fill="#010101"/>
<path d="M149.459 17.7827L148.179 17.7829V19.0047H149.459L149.459 17.7827Z" fill="#010101"/>
<path d="M152.017 17.7829L150.738 17.7827L150.738 19.0047H152.017V17.7829Z" fill="#010101"/>
<path d="M155.855 17.7827H154.576V19.0047H155.855V17.7827Z" fill="#010101"/>
<path d="M157.134 17.7827H155.855V19.0047H157.135L157.134 17.7827Z" fill="#010101"/>
<path d="M153.297 19.0045L152.017 19.0047L152.017 20.2263H153.297V19.0045Z" fill="#010101"/>
<path d="M154.576 19.0047L153.297 19.0045V20.2263H154.576L154.576 19.0047Z" fill="#010101"/>
<path d="M155.855 19.0047H154.576L154.576 20.2263H155.855V19.0047Z" fill="#010101"/>
<path d="M157.135 19.0047H155.855V20.2263H157.135V19.0047Z" fill="#010101"/>
<path d="M149.459 20.2263H148.179V21.4481H149.459V20.2263Z" fill="#010101"/>
<path d="M152.017 20.2263L150.738 20.2263V21.4481H152.017L152.017 20.2263Z" fill="#010101"/>
<path d="M154.576 20.2263H153.297L153.297 21.4481H154.576V20.2263Z" fill="#010101"/>
<path d="M157.135 20.2263H155.855L155.855 21.4481H157.135V20.2263Z" fill="#010101"/>
<path d="M159.693 20.2263H158.414V21.4481H159.693V20.2263Z" fill="#010101"/>
<path d="M150.738 21.4481H149.459L149.459 22.67H150.738L150.738 21.4481Z" fill="#010101"/>
<path d="M155.855 21.4481H154.576L154.576 22.67H155.855L155.855 21.4481Z" fill="#010101"/>
<path d="M159.693 21.4481H158.414V22.67H159.693V21.4481Z" fill="#010101"/>
<path d="M139.225 22.6698H137.945V23.8915H139.225V22.6698Z" fill="#010101"/>
<path d="M143.062 22.6698H141.783V23.8915H143.062V22.6698Z" fill="#010101"/>
<path d="M144.342 22.6698H143.062V23.8915H144.342V22.6698Z" fill="#010101"/>
<path d="M145.621 22.6698H144.342V23.8915H145.621V22.6698Z" fill="#010101"/>
<path d="M146.9 22.6698H145.621V23.8915H146.9V22.6698Z" fill="#010101"/>
<path d="M148.18 22.6698H146.9V23.8915H148.18V22.6698Z" fill="#010101"/>
<path d="M149.459 22.67L148.18 22.6698V23.8915H149.459L149.459 22.67Z" fill="#010101"/>
<path d="M158.414 22.67L157.134 22.6698V23.8915H158.414L158.414 22.67Z" fill="#010101"/>
<path d="M159.693 22.67H158.414L158.414 23.8915H159.693V22.67Z" fill="#010101"/>
<path d="M160.972 22.6698L159.693 22.67V23.8915H160.972V22.6698Z" fill="#010101"/>
<path d="M164.81 22.6698H163.531V23.8915H164.81V22.6698Z" fill="#010101"/>
<path d="M167.368 22.6698H166.089V23.8915H167.368V22.6698Z" fill="#010101"/>
<path d="M168.648 22.6698H167.368V23.8915H168.648V22.6698Z" fill="#010101"/>
<path d="M169.927 22.6698H168.648V23.8915H169.927V22.6698Z" fill="#010101"/>
<path d="M139.225 23.8915H137.945V25.1134H139.225V23.8915Z" fill="#010101"/>
<path d="M140.504 23.8916L139.225 23.8915V25.1134H140.504V23.8916Z" fill="#010101"/>
<path d="M141.783 23.8915L140.504 23.8916V25.1134H141.783L141.783 23.8915Z" fill="#010101"/>
<path d="M145.621 23.8915H144.342L144.342 25.1134H145.621V23.8915Z" fill="#010101"/>
<path d="M148.18 23.8915H146.9L146.9 25.1134H148.18V23.8915Z" fill="#010101"/>
<path d="M149.459 23.8915H148.18V25.1134H149.459V23.8915Z" fill="#010101"/>
<path d="M152.017 23.8916H150.738V25.1134H152.017V23.8916Z" fill="#010101"/>
<path d="M153.297 23.8916H152.017V25.1134H153.297V23.8916Z" fill="#010101"/>
<path d="M154.576 23.8916H153.297V25.1134H154.576V23.8916Z" fill="#010101"/>
<path d="M155.855 23.8916H154.576V25.1134H155.855V23.8916Z" fill="#010101"/>
<path d="M157.134 23.8915L155.855 23.8916V25.1134H157.135L157.134 23.8915Z" fill="#010101"/>
<path d="M158.414 23.8915H157.134L157.135 25.1134H158.414V23.8915Z" fill="#010101"/>
<path d="M163.531 23.8915L162.252 23.8916V25.1134H163.531L163.531 23.8915Z" fill="#010101"/>
<path d="M164.81 23.8915H163.531L163.531 25.1134H164.81V23.8915Z" fill="#010101"/>
<path d="M166.089 23.8915H164.81V25.1134H166.089L166.089 23.8915Z" fill="#010101"/>
<path d="M167.368 23.8915H166.089L166.089 25.1134H167.368V23.8915Z" fill="#010101"/>
<path d="M168.648 23.8915H167.368V25.1134H168.648V23.8915Z" fill="#010101"/>
<path d="M140.504 25.1134H139.225L139.225 26.3352H140.504V25.1134Z" fill="#010101"/>
<path d="M141.783 25.1134H140.504V26.3352H141.783V25.1134Z" fill="#010101"/>
<path d="M143.062 25.1134L141.783 25.1134V26.3352H143.062V25.1134Z" fill="#010101"/>
<path d="M145.621 25.1134H144.342V26.3352H145.621V25.1134Z" fill="#010101"/>
<path d="M146.9 25.1134H145.621V26.3352H146.9L146.9 25.1134Z" fill="#010101"/>
<path d="M148.18 25.1134H146.9L146.9 26.3352H148.18V25.1134Z" fill="#010101"/>
<path d="M152.017 25.1134H150.738V26.3352H152.017V25.1134Z" fill="#010101"/>
<path d="M154.576 25.1134H153.297L153.297 26.3352H154.576V25.1134Z" fill="#010101"/>
<path d="M155.855 25.1134H154.576V26.3352H155.855V25.1134Z" fill="#010101"/>
<path d="M158.414 25.1134H157.135L157.134 26.3352H158.414V25.1134Z" fill="#010101"/>
<path d="M160.972 25.1134H159.693V26.3352H160.972V25.1134Z" fill="#010101"/>
<path d="M164.81 25.1134H163.531L163.531 26.3352H164.81V25.1134Z" fill="#010101"/>
<path d="M166.089 25.1134H164.81V26.3352H166.089V25.1134Z" fill="#010101"/>
<path d="M169.927 25.1134L168.648 25.1134L168.648 26.3352H169.927V25.1134Z" fill="#010101"/>
<path d="M140.504 26.3352H139.225V27.5573H140.504V26.3352Z" fill="#010101"/>
<path d="M143.062 26.3352H141.783L141.783 27.5573H143.062V26.3352Z" fill="#010101"/>
<path d="M145.621 26.3352H144.342V27.5573H145.621V26.3352Z" fill="#010101"/>
<path d="M148.18 26.3352H146.9L146.9 27.5573H148.18V26.3352Z" fill="#010101"/>
<path d="M149.459 26.3355L148.18 26.3352V27.5573H149.459V26.3355Z" fill="#010101"/>
<path d="M150.738 26.3352L149.459 26.3355V27.5573H150.738L150.738 26.3352Z" fill="#010101"/>
<path d="M153.297 26.3352H152.017L152.017 27.5573H153.297L153.297 26.3352Z" fill="#010101"/>
<path d="M154.576 26.3352H153.297L153.297 27.5573H154.576V26.3352Z" fill="#010101"/>
<path d="M162.251 26.3355L160.972 26.3352L160.972 27.5573H162.251V26.3355Z" fill="#010101"/>
<path d="M163.531 26.3352L162.251 26.3355V27.5573H163.531L163.531 26.3352Z" fill="#010101"/>
<path d="M164.81 26.3352H163.531L163.531 27.5573H164.81V26.3352Z" fill="#010101"/>
<path d="M166.089 26.3352H164.81V27.5573H166.089V26.3352Z" fill="#010101"/>
<path d="M167.368 26.3355L166.089 26.3352V27.5573H167.368V26.3355Z" fill="#010101"/>
<path d="M168.648 26.3352L167.368 26.3355V27.5573H168.648L168.648 26.3352Z" fill="#010101"/>
<path d="M169.927 26.3352H168.648L168.648 27.5573H169.927V26.3352Z" fill="#010101"/>
<path d="M139.225 27.5573L137.945 27.5571V28.7789H139.225L139.225 27.5573Z" fill="#010101"/>
<path d="M140.504 27.5573H139.225L139.225 28.7789H140.504V27.5573Z" fill="#010101"/>
<path d="M141.783 27.5573H140.504V28.7789H141.783L141.783 27.5573Z" fill="#010101"/>
<path d="M143.062 27.5573H141.783L141.783 28.7789H143.062V27.5573Z" fill="#010101"/>
<path d="M145.621 27.5573H144.342V28.7789H145.621V27.5573Z" fill="#010101"/>
<path d="M146.9 27.5573H145.621V28.7789H146.9L146.9 27.5573Z" fill="#010101"/>
<path d="M148.18 27.5573H146.9L146.9 28.7789H148.18V27.5573Z" fill="#010101"/>
<path d="M149.459 27.5573H148.18V28.7789H149.459V27.5573Z" fill="#010101"/>
<path d="M150.738 27.5573H149.459V28.7789H150.738V27.5573Z" fill="#010101"/>
<path d="M153.297 27.5573H152.017V28.7789H153.297V27.5573Z" fill="#010101"/>
<path d="M154.576 27.5573H153.297V28.7789H154.576V27.5573Z" fill="#010101"/>
<path d="M158.414 27.5571H157.134V28.7789H158.414V27.5571Z" fill="#010101"/>
<path d="M159.693 27.5571H158.414V28.7789H159.693V27.5571Z" fill="#010101"/>
<path d="M162.251 27.5573H160.972V28.7789H162.251V27.5573Z" fill="#010101"/>
<path d="M163.531 27.5573H162.251V28.7789H163.531V27.5573Z" fill="#010101"/>
<path d="M169.927 27.5573H168.648L168.648 28.7789H169.927V27.5573Z" fill="#010101"/>
<path d="M139.225 28.7789H137.945V30.0005H139.225V28.7789Z" fill="#010101"/>
<path d="M144.342 28.7789H143.062L143.062 30.0005H144.342L144.342 28.7789Z" fill="#010101"/>
<path d="M149.459 28.7789H148.18L148.179 30.0005H149.459V28.7789Z" fill="#010101"/>
<path d="M150.738 28.7789H149.459V30.0005H150.738V28.7789Z" fill="#010101"/>
<path d="M157.134 28.7789L155.855 28.7788V30.0005H157.135L157.134 28.7789Z" fill="#010101"/>
<path d="M158.414 28.7789H157.134L157.135 30.0005H158.414V28.7789Z" fill="#010101"/>
<path d="M159.693 28.7789H158.414V30.0005H159.693V28.7789Z" fill="#010101"/>
<path d="M164.81 28.7788L163.531 28.7789L163.531 30.0005H164.81V28.7788Z" fill="#010101"/>
<path d="M168.648 28.7789L167.368 28.7788V30.0005H168.648L168.648 28.7789Z" fill="#010101"/>
<path d="M139.225 30.0005H137.945V31.2226H139.225V30.0005Z" fill="#010101"/>
<path d="M140.504 30.0008L139.225 30.0005V31.2226H140.504V30.0008Z" fill="#010101"/>
<path d="M141.783 30.0008H140.504V31.2226H141.783V30.0008Z" fill="#010101"/>
<path d="M144.342 30.0005H143.062V31.2226H144.342V30.0005Z" fill="#010101"/>
<path d="M146.9 30.0008H145.621V31.2226H146.9V30.0008Z" fill="#010101"/>
<path d="M149.459 30.0005H148.179V31.2226H149.459V30.0005Z" fill="#010101"/>
<path d="M153.297 30.0008H152.017V31.2226H153.297V30.0008Z" fill="#010101"/>
<path d="M154.576 30.0008H153.297V31.2226H154.576V30.0008Z" fill="#010101"/>
<path d="M155.855 30.0005L154.576 30.0008V31.2226H155.855L155.855 30.0005Z" fill="#010101"/>
<path d="M158.414 30.0005H157.135L157.134 31.2226H158.414V30.0005Z" fill="#010101"/>
<path d="M160.972 30.0008L159.693 30.0005L159.693 31.2226H160.972V30.0008Z" fill="#010101"/>
<path d="M162.251 30.0008H160.972V31.2226H162.251V30.0008Z" fill="#010101"/>
<path d="M164.81 30.0005H163.531V31.2226H164.81V30.0005Z" fill="#010101"/>
<path d="M166.089 30.0008L164.81 30.0005V31.2226H166.089V30.0008Z" fill="#010101"/>
<path d="M167.368 30.0005L166.089 30.0008V31.2226H167.368L167.368 30.0005Z" fill="#010101"/>
<path d="M168.648 30.0005H167.368L167.368 31.2226H168.648V30.0005Z" fill="#010101"/>
<path d="M169.927 30.0008L168.648 30.0005V31.2226H169.927V30.0008Z" fill="#010101"/>
<path d="M139.225 31.2226H137.945V32.4441H139.225V31.2226Z" fill="#010101"/>
<path d="M143.062 31.2226H141.783L141.783 32.4441H143.062L143.062 31.2226Z" fill="#010101"/>
<path d="M144.342 31.2226H143.062L143.062 32.4441H144.342V31.2226Z" fill="#010101"/>
<path d="M148.179 31.2226H146.9L146.9 32.4441H148.18L148.179 31.2226Z" fill="#010101"/>
<path d="M150.738 31.2223L149.459 31.2226L149.459 32.4441H150.738V31.2223Z" fill="#010101"/>
<path d="M152.017 31.2226L150.738 31.2223V32.4441H152.017L152.017 31.2226Z" fill="#010101"/>
<path d="M153.297 31.2226H152.017L152.017 32.4441H153.297V31.2226Z" fill="#010101"/>
<path d="M158.414 31.2226H157.134V32.4441H158.414V31.2226Z" fill="#010101"/>
<path d="M163.531 31.2226H162.251L162.252 32.4441H163.531L163.531 31.2226Z" fill="#010101"/>
<path d="M166.089 31.2226H164.81L164.81 32.4441H166.089V31.2226Z" fill="#010101"/>
<path d="M167.368 31.2226H166.089V32.4441H167.368V31.2226Z" fill="#010101"/>
<path d="M169.927 31.2226H168.648L168.648 32.4441H169.927V31.2226Z" fill="#010101"/>
<path d="M139.225 32.4441H137.945V33.666H139.225V32.4441Z" fill="#010101"/>
<path d="M141.783 32.4441L140.504 32.4442V33.666H141.783L141.783 32.4441Z" fill="#010101"/>
<path d="M143.062 32.4441H141.783L141.783 33.666H143.062V32.4441Z" fill="#010101"/>
<path d="M146.9 32.4441L145.621 32.4442V33.666H146.9L146.9 32.4441Z" fill="#010101"/>
<path d="M150.738 32.4441H149.459V33.666H150.738V32.4441Z" fill="#010101"/>
<path d="M155.855 32.4442H154.576V33.666H155.855V32.4442Z" fill="#010101"/>
<path d="M159.693 32.4442L158.414 32.4441L158.414 33.666H159.693V32.4442Z" fill="#010101"/>
<path d="M160.972 32.4442H159.693V33.666H160.972V32.4442Z" fill="#010101"/>
<path d="M162.252 32.4441L160.972 32.4442V33.666H162.251L162.252 32.4441Z" fill="#010101"/>
<path d="M163.531 32.4441H162.252L162.251 33.666H163.531V32.4441Z" fill="#010101"/>
<path d="M164.81 32.4441H163.531V33.666H164.81L164.81 32.4441Z" fill="#010101"/>
<path d="M167.368 32.4441H166.089L166.089 33.666H167.368V32.4441Z" fill="#010101"/>
<path d="M168.648 32.4441H167.368V33.666H168.648L168.648 32.4441Z" fill="#010101"/>
<path d="M149.459 33.666L148.179 33.666V34.8877H149.459L149.459 33.666Z" fill="#010101"/>
<path d="M150.738 33.666H149.459L149.459 34.8877H150.738V33.666Z" fill="#010101"/>
<path d="M152.017 33.666L150.738 33.666V34.8877H152.017V33.666Z" fill="#010101"/>
<path d="M153.297 33.666H152.017V34.8877H153.297V33.666Z" fill="#010101"/>
<path d="M154.576 33.666L153.297 33.666V34.8877H154.576L154.576 33.666Z" fill="#010101"/>
<path d="M155.855 33.666H154.576L154.576 34.8877H155.855V33.666Z" fill="#010101"/>
<path d="M159.693 33.666H158.414V34.8877H159.693V33.666Z" fill="#010101"/>
<path d="M164.81 33.666H163.531L163.531 34.8877H164.81V33.666Z" fill="#010101"/>
<path d="M167.368 33.666H166.089V34.8877H167.368V33.666Z" fill="#010101"/>
<path d="M168.648 33.666H167.368V34.8877H168.648V33.666Z" fill="#010101"/>
<path d="M149.459 34.8877H148.179V36.1093H149.459V34.8877Z" fill="#010101"/>
<path d="M150.738 34.8877H149.459V36.1093H150.738V34.8877Z" fill="#010101"/>
<path d="M152.017 34.8877H150.738V36.1093H152.017V34.8877Z" fill="#010101"/>
<path d="M153.297 34.8877H152.017V36.1093H153.297V34.8877Z" fill="#010101"/>
<path d="M159.693 34.8877H158.414V36.1093H159.693V34.8877Z" fill="#010101"/>
<path d="M162.251 34.8876H160.972V36.1093H162.251V34.8876Z" fill="#010101"/>
<path d="M164.81 34.8877H163.531V36.1093H164.81V34.8877Z" fill="#010101"/>
<path d="M169.927 34.8876L168.648 34.8877L168.648 36.1093H169.927V34.8876Z" fill="#010101"/>
<path d="M149.459 36.1093H148.179V37.3315H149.459V36.1093Z" fill="#010101"/>
<path d="M150.738 36.1093H149.459V37.3315H150.738V36.1093Z" fill="#010101"/>
<path d="M152.017 36.1093H150.738V37.3315H152.017V36.1093Z" fill="#010101"/>
<path d="M154.576 36.1097L153.297 36.1093L153.297 37.3315H154.576V36.1097Z" fill="#010101"/>
<path d="M155.855 36.1097H154.576V37.3315H155.855V36.1097Z" fill="#010101"/>
<path d="M157.135 36.1097H155.855V37.3315H157.135V36.1097Z" fill="#010101"/>
<path d="M158.414 36.1093L157.135 36.1097V37.3315H158.414L158.414 36.1093Z" fill="#010101"/>
<path d="M159.693 36.1093H158.414L158.414 37.3315H159.693V36.1093Z" fill="#010101"/>
<path d="M164.81 36.1093H163.531V37.3315H164.81V36.1093Z" fill="#010101"/>
<path d="M168.648 36.1093L167.368 36.1097V37.3315H168.648L168.648 36.1093Z" fill="#010101"/>
<path d="M149.459 37.3315H148.179V38.5532H149.459V37.3315Z" fill="#010101"/>
<path d="M150.738 37.3315H149.459V38.5532H150.738V37.3315Z" fill="#010101"/>
<path d="M152.017 37.3315H150.738V38.5532H152.017V37.3315Z" fill="#010101"/>
<path d="M154.576 37.3315H153.297V38.5532H154.576V37.3315Z" fill="#010101"/>
<path d="M158.414 37.3315H157.135L157.134 38.5532H158.414V37.3315Z" fill="#010101"/>
<path d="M159.693 37.3315H158.414V38.5532H159.693V37.3315Z" fill="#010101"/>
<path d="M160.972 37.3314L159.693 37.3315V38.5532H160.972V37.3314Z" fill="#010101"/>
<path d="M162.251 37.3314H160.972V38.5532H162.251V37.3314Z" fill="#010101"/>
<path d="M163.531 37.3315L162.251 37.3314V38.5532H163.531L163.531 37.3315Z" fill="#010101"/>
<path d="M164.81 37.3315H163.531L163.531 38.5532H164.81V37.3315Z" fill="#010101"/>
<path d="M168.648 37.3315H167.368V38.5532H168.648V37.3315Z" fill="#010101"/>
<path d="M169.927 37.3314L168.648 37.3315V38.5532H169.927V37.3314Z" fill="#010101"/>
<path d="M149.459 38.5532H148.179V39.7751H149.459V38.5532Z" fill="#010101"/>
<path d="M150.738 38.5532H149.459V39.7751H150.738V38.5532Z" fill="#010101"/>
<path d="M152.017 38.5532H150.738V39.7751H152.017V38.5532Z" fill="#010101"/>
<path d="M155.855 38.5533L154.576 38.5532L154.576 39.7751H155.855V38.5533Z" fill="#010101"/>
<path d="M157.134 38.5532L155.855 38.5533V39.7751H157.135L157.134 38.5532Z" fill="#010101"/>
<path d="M158.414 38.5532H157.134L157.135 39.7751H158.414V38.5532Z" fill="#010101"/>
<path d="M160.972 38.5532H159.693L159.693 39.7751H160.972V38.5532Z" fill="#010101"/>
<path d="M162.251 38.5532H160.972V39.7751H162.251V38.5532Z" fill="#010101"/>
<path d="M168.648 38.5532H167.368V39.7751H168.648V38.5532Z" fill="#010101"/>
<path d="M169.927 38.5532H168.648V39.7751H169.927V38.5532Z" fill="#010101"/>
<path d="M150.738 39.7751H149.459L149.459 40.9966H150.738V39.7751Z" fill="#010101"/>
<path d="M152.017 39.7751H150.738V40.9966H152.017V39.7751Z" fill="#010101"/>
<path d="M154.576 39.7751L153.297 39.7749V40.9966H154.576L154.576 39.7751Z" fill="#010101"/>
<path d="M155.855 39.7751H154.576L154.576 40.9966H155.855V39.7751Z" fill="#010101"/>
<path d="M158.414 39.7751H157.135L157.134 40.9966H158.414V39.7751Z" fill="#010101"/>
<path d="M160.972 39.7751H159.693V40.9966H160.972V39.7751Z" fill="#010101"/>
<path d="M164.81 39.7749H163.531V40.9966H164.81V39.7749Z" fill="#010101"/>
<path d="M166.089 39.7749H164.81V40.9966H166.089V39.7749Z" fill="#010101"/>
<path d="M167.368 39.7751L166.089 39.7749V40.9966H167.368L167.368 39.7751Z" fill="#010101"/>
<path d="M168.648 39.7751H167.368L167.368 40.9966H168.648V39.7751Z" fill="#010101"/>
<path d="M169.927 39.7751H168.648V40.9966H169.927V39.7751Z" fill="#010101"/>
<path d="M150.738 40.9966H149.459V42.2184H150.738V40.9966Z" fill="#010101"/>
<path d="M157.134 40.9966H155.855L155.855 42.2184H157.135L157.134 40.9966Z" fill="#010101"/>
<path d="M162.251 40.9966L160.972 40.9966L160.972 42.2184H162.251V40.9966Z" fill="#010101"/>
<path d="M163.531 40.9966L162.251 40.9966V42.2184H163.531L163.531 40.9966Z" fill="#010101"/>
<path d="M164.81 40.9966H163.531L163.531 42.2184H164.81V40.9966Z" fill="#010101"/>
<path d="M167.368 40.9966H166.089L166.089 42.2184H167.368V40.9966Z" fill="#010101"/>
<path d="M168.648 40.9966H167.368V42.2184H168.648V40.9966Z" fill="#010101"/>
<path d="M169.927 40.9966H168.648V42.2184H169.927V40.9966Z" fill="#010101"/>
<path d="M149.459 42.2184L148.179 42.2186V43.4404H149.459L149.459 42.2184Z" fill="#010101"/>
<path d="M154.576 42.2186H153.297V43.4404H154.576V42.2186Z" fill="#010101"/>
<path d="M155.855 42.2184L154.576 42.2186V43.4404H155.855L155.855 42.2184Z" fill="#010101"/>
<path d="M157.135 42.2184H155.855L155.855 43.4404H157.135V42.2184Z" fill="#010101"/>
<path d="M159.693 42.2186H158.414V43.4404H159.693V42.2186Z" fill="#010101"/>
<path d="M162.251 42.2184H160.972V43.4404H162.251V42.2184Z" fill="#010101"/>
<path d="M166.089 42.2184H164.81L164.81 43.4404H166.089L166.089 42.2184Z" fill="#010101"/>
<path d="M169.927 42.2184H168.648L168.648 43.4404H169.927V42.2184Z" fill="#010101"/>
<path d="M143.843 12.8963H141.003C139.618 12.8963 138.446 13.7698 138.071 14.9635C138.032 15.0871 138.002 15.214 137.981 15.3438C137.957 15.4869 137.945 15.6335 137.945 15.7827V18.5598C137.945 20.1522 139.317 21.4471 141.003 21.4471L143.843 21.447C145.528 21.447 146.9 20.1522 146.9 18.5598V15.7827C146.9 14.1911 145.528 12.8963 143.843 12.8963ZM145.557 18.5596C145.557 19.4442 144.788 20.1639 143.842 20.1639L141.003 20.1641C140.057 20.1641 139.289 19.4442 139.289 18.5596V15.7825C139.289 15.5061 139.364 15.246 139.496 15.0188C139.623 14.8 139.803 14.6119 140.019 14.4696C140.298 14.2866 140.637 14.179 141.003 14.179H143.843C144.788 14.179 145.557 14.8983 145.557 15.7825V18.5596Z" fill="#010101"/>
<path d="M166.869 12.8963H164.029C162.645 12.8963 161.472 13.7698 161.097 14.9635C161.058 15.0871 161.028 15.214 161.007 15.3438C160.984 15.4869 160.972 15.6335 160.972 15.7827V18.5598C160.972 20.1522 162.344 21.4471 164.029 21.4471L166.869 21.447C168.555 21.447 169.927 20.1522 169.927 18.5598V15.7827C169.927 14.1911 168.555 12.8963 166.869 12.8963ZM168.584 18.5596C168.584 19.4442 167.815 20.1639 166.869 20.1639L164.03 20.1641C163.084 20.1641 162.315 19.4442 162.315 18.5596V15.7825C162.315 15.5061 162.39 15.246 162.522 15.0188C162.65 14.8 162.829 14.6119 163.046 14.4696C163.325 14.2866 163.664 14.179 164.029 14.179H166.869C167.815 14.179 168.584 14.8983 168.584 15.7825V18.5596Z" fill="#010101"/>
<path d="M143.843 34.8885H141.003C139.618 34.8885 138.446 35.762 138.071 36.9557C138.032 37.0793 138.002 37.2062 137.981 37.3359C137.957 37.4791 137.945 37.6257 137.945 37.7749V40.552C137.945 42.1444 139.317 43.4392 141.003 43.4392H143.843C145.528 43.4392 146.9 42.1442 146.9 40.5518V37.7749C146.9 36.1833 145.528 34.8885 143.843 34.8885ZM145.557 40.552C145.557 41.4365 144.788 42.1564 143.842 42.1564H141.003C140.057 42.1564 139.289 41.4366 139.289 40.552V37.7749C139.289 37.4985 139.364 37.2384 139.496 37.011C139.623 36.7924 139.803 36.6043 140.019 36.462C140.298 36.2789 140.637 36.1714 141.003 36.1714H143.843C144.788 36.1714 145.557 36.8907 145.557 37.7749V40.552Z" fill="#010101"/>
<path d="M141.553 19.0047C140.974 19.0047 140.503 18.5637 140.503 18.0221V16.3214C140.503 16.1522 140.549 15.9929 140.63 15.8538C140.708 15.7197 140.818 15.6045 140.951 15.5175C141.121 15.4054 141.329 15.3394 141.553 15.3394H143.292C143.871 15.3394 144.342 15.7799 144.342 16.3214V18.0221C144.342 18.5636 143.871 19.0046 143.292 19.0046L141.553 19.0047Z" fill="#010101"/>
<path d="M164.58 19.0047C164.001 19.0047 163.53 18.5637 163.53 18.0221V16.3214C163.53 16.1522 163.576 15.9929 163.657 15.8538C163.735 15.7197 163.845 15.6045 163.977 15.5175C164.148 15.4054 164.356 15.3394 164.58 15.3394H166.319C166.898 15.3394 167.369 15.7799 167.369 16.3214V18.0221C167.369 18.5636 166.898 19.0046 166.319 19.0046L164.58 19.0047Z" fill="#010101"/>
<path d="M141.553 40.9966C140.974 40.9966 140.503 40.5556 140.503 40.0141V38.3134C140.503 38.1442 140.549 37.985 140.63 37.8456C140.708 37.7115 140.818 37.5963 140.951 37.5095C141.121 37.3974 141.329 37.3314 141.553 37.3314H143.292C143.871 37.3314 144.342 37.7718 144.342 38.3134V40.0139C144.342 40.5556 143.871 40.9966 143.292 40.9966H141.553Z" fill="#010101"/>
<path d="M238.699 7.23517V0H240.997L242.354 4.93456L243.696 0H245.999V7.23517H244.581L244.576 1.53921L243.083 7.23517H241.608L240.122 1.53921L240.117 7.23517H238.699Z" fill="#010101"/>
<path d="M233.961 7.23517V1.2226H231.718V0H237.727V1.2226H235.495V7.23517H233.961Z" fill="#010101"/>
<path d="M83.2927 13.4024C76.823 13.4024 73.618 16.5768 73.618 22.8691V33.5264C73.618 39.8186 76.823 42.9931 83.2927 42.9931H101.455V38.9683H83.8268C79.8502 38.9683 77.8914 37.0411 77.8914 33.1295V22.9825C77.8914 19.0145 79.9095 16.9735 84.0048 16.9735H93.3825C96.647 16.9735 98.2495 18.5041 98.2495 21.5085V22.8689C98.2495 25.4765 96.647 26.7803 93.442 26.7803H80.2655V30.1248H94.629C99.8522 30.1248 102.464 27.9707 102.464 23.6057V21.2248C102.464 16.0096 99.6741 13.4021 94.1541 13.4021L83.2927 13.4024Z" fill="#CD030A"/>
<path d="M65.5464 1.2146C60.5014 1.2146 58.0084 3.65209 58.0084 8.64049V42.9929H62.2818V17.0868H69.1668V13.4022H62.2818V8.75391C62.2818 6.03296 63.6469 4.67249 66.4364 4.67249H69.4041V1.2146H65.5464Z" fill="#CD030A"/>
<path d="M46.4938 13.6859V42.9931H50.8265V13.6859H46.4938ZM46.4938 1.2146V7.79047H50.8265V1.2146H46.4938Z" fill="#CD030A"/>
<path d="M14.5615 1.61144V42.993H41.2112V38.7416H19.0726V1.61161L14.5615 1.61144Z" fill="#CD030A"/>
<path d="M1.80503 44.0005H0.167467V42.3134H1.80503V44.0005ZM9.40047 44.0005H2.70793V42.3134H9.40047V44.0005Z" fill="#010101"/>
<path d="M6.40881 41.0346L6.2282 39.2981C6.83655 39.1934 7.2813 38.9839 7.56726 38.6658C7.85304 38.3478 7.99482 37.9187 7.99482 37.3789C7.99482 36.8084 7.868 36.3772 7.61452 36.0879C7.36086 35.7983 7.06425 35.6526 6.72467 35.6526C6.50557 35.6526 6.32065 35.7143 6.16805 35.8353C6.01339 35.9564 5.88003 36.1699 5.76833 36.4737C5.691 36.681 5.55781 37.1531 5.36431 37.892C5.11495 38.8423 4.80992 39.5095 4.44663 39.8934C3.93726 40.4332 3.3162 40.702 2.58325 40.702C2.11273 40.702 1.67004 40.5747 1.25949 40.3222C0.848941 40.0678 0.537376 39.7023 0.322391 39.2242C0.107578 38.7459 0 38.1712 0 37.4938C0 36.3917 0.255885 35.5603 0.769546 35.0041C1.28303 34.4457 1.96648 34.1542 2.82402 34.1255L2.88846 35.9113C2.4114 35.9872 2.06977 36.1494 1.86131 36.3977C1.65268 36.6461 1.54751 37.0196 1.54751 37.5164C1.54751 38.0295 1.65921 38.4318 1.88279 38.7213C2.02663 38.9081 2.21807 39.0025 2.45866 39.0025C2.67794 39.0025 2.86492 38.9142 3.01958 38.7377C3.21944 38.514 3.42584 37.9701 3.64065 37.106C3.8534 36.2418 4.07698 35.6033 4.30485 35.1909C4.53479 34.7761 4.84635 34.452 5.24401 34.2179C5.6415 33.9839 6.13162 33.8668 6.71402 33.8668C7.24263 33.8668 7.73911 34.0065 8.20121 34.2877C8.66315 34.5688 9.00702 34.965 9.2306 35.4781C9.45624 35.9913 9.56794 36.6318 9.56794 37.3973C9.56794 38.5119 9.29934 39.3678 8.7599 39.9651C8.22269 40.5624 7.4382 40.9174 6.40881 41.0346Z" fill="#010101"/>
<path d="M0.167639 30.7018H3.58901C2.90779 30.1537 2.56598 29.4969 2.56598 28.7353C2.56598 28.3434 2.64125 27.9903 2.79179 27.6762C2.94422 27.3622 3.13773 27.1262 3.37196 26.966C3.60619 26.806 3.8662 26.6971 4.15216 26.6397C4.43795 26.5801 4.88063 26.5514 5.48022 26.5514H9.4003V28.2387H5.87135C5.17089 28.2387 4.72597 28.2715 4.53676 28.3352C4.34773 28.4008 4.19718 28.5157 4.08772 28.68C3.97584 28.8441 3.91999 29.0495 3.91999 29.2978C3.91999 29.5811 3.99096 29.8335 4.13497 30.0572C4.27675 30.2809 4.49174 30.4431 4.77959 30.5457C5.06554 30.6504 5.49105 30.7018 6.05197 30.7018H9.4003V32.389H0.167467L0.167639 30.7018Z" fill="#010101"/>
<path d="M1.80503 24.8415H0.167467V23.1544H1.80503V24.8415ZM9.40047 24.8415H2.70793V23.1544H9.40047V24.8415Z" fill="#010101"/>
<path d="M9.40019 19.6627L2.70765 22.2387V20.4653L6.12266 19.2625L7.26375 18.9136C6.97366 18.8212 6.78239 18.7616 6.68994 18.7391C6.5009 18.6817 6.31169 18.6221 6.12266 18.5564L2.70765 17.3371V15.6006L9.40019 18.1397V19.6627Z" fill="#010101"/>
<path d="M4.77102 13.3141L4.48746 14.8412C3.83409 14.6689 3.3505 14.3711 3.0367 13.9505C2.7229 13.5296 2.566 12.9036 2.566 12.0743C2.566 11.3211 2.65846 10.7586 2.84543 10.3892C3.03241 10.0218 3.26887 9.76104 3.55689 9.61119C3.84474 9.46134 4.37129 9.38551 5.14067 9.38551L7.2039 9.41013C7.7906 9.41013 8.22469 9.38338 8.50412 9.33004C8.78355 9.27669 9.08223 9.17608 9.40032 9.02837V10.7031C9.28432 10.7463 9.1123 10.8018 8.8846 10.8653C8.77925 10.8921 8.71051 10.9126 8.67821 10.9249C8.97482 11.2123 9.19823 11.5202 9.34653 11.8486C9.49484 12.177 9.56787 12.526 9.56787 12.8974C9.56787 13.5523 9.3809 14.0695 9.00696 14.4471C8.63524 14.8248 8.16248 15.0137 7.59074 15.0137C7.21473 15.0137 6.87721 14.9274 6.5806 14.755C6.28622 14.5827 6.05835 14.3424 5.90162 14.0304C5.74472 13.7205 5.60707 13.2731 5.48883 12.6881C5.33417 11.8998 5.19016 11.3518 5.05474 11.048H4.87636C4.53249 11.048 4.2876 11.1281 4.13929 11.2883C3.99305 11.4504 3.92001 11.7541 3.92001 12.1995C3.92001 12.5014 3.98239 12.7352 4.10922 12.9036C4.23381 13.074 4.45515 13.2094 4.77102 13.3141ZM6.20236 11.048C6.27763 11.2636 6.36785 11.6064 6.47319 12.0764C6.57854 12.5444 6.68165 12.8523 6.78046 12.996C6.94595 13.2156 7.15235 13.3264 7.40376 13.3264C7.65312 13.3264 7.86587 13.2381 8.04631 13.0617C8.22693 12.8851 8.31715 12.6614 8.31715 12.3884C8.31715 12.0846 8.2118 11.7931 8.00335 11.5161C7.84215 11.3129 7.64882 11.1773 7.41665 11.1138C7.26628 11.0706 6.97826 11.048 6.55482 11.048H6.20236Z" fill="#010101"/>
<path d="M9.40019 8.5397L5.95304 6.2368L2.70765 8.44139V6.38057L4.54731 5.25169L2.70765 4.05272V2.07397L5.87777 4.23966L9.40019 1.87701V3.93586L7.3263 5.25169L9.40019 6.56128V8.5397Z" fill="#010101"/>
</g>
<defs>
<clipPath id="clip0_1324_615">
<rect width="246" height="44" fill="white"/>
</clipPath>
</defs>
</svg>
