<svg width="21" height="20" viewBox="0 0 21 20" fill="none" xmlns="http://www.w3.org/2000/svg">
<g clip-path="url(#clip0_432_386)">
<path d="M20.4109 9.52103L18.2709 8.01236C17.8832 7.73904 17.3473 8.01736 17.3473 8.49127V9.414H7.0723C6.74871 9.414 6.48633 9.67634 6.48633 9.99998C6.48633 10.3236 6.74871 10.5859 7.0723 10.5859H17.3472V11.5086C17.3472 11.9856 17.886 12.2588 18.2708 11.9875L20.4108 10.4788C20.7376 10.2486 20.7442 9.7565 20.4109 9.52103Z" fill="white"/>
<path d="M17.4735 13.7624C17.1934 13.6004 16.8349 13.696 16.6729 13.9762C15.2964 16.3557 12.7235 17.9532 9.78332 17.9532C5.39793 17.9532 1.83012 14.3854 1.83012 10C1.83012 5.6146 5.39793 2.04679 9.78332 2.04679C12.7255 2.04679 15.2972 3.64574 16.6728 6.02371C16.8348 6.30386 17.1934 6.39945 17.4734 6.23753C17.7536 6.0755 17.8493 5.71703 17.6873 5.43691C16.1042 2.70027 13.1476 0.874878 9.78332 0.874878C4.73984 0.874878 0.658203 4.95609 0.658203 10C0.658203 15.0435 4.73941 19.1251 9.78332 19.1251C13.1491 19.1251 16.1049 17.2984 17.6873 14.563C17.8493 14.2829 17.7536 13.9244 17.4735 13.7624Z" fill="white"/>
</g>
<defs>
<clipPath id="clip0_432_386">
<rect width="20" height="20" fill="white" transform="translate(0.658203)"/>
</clipPath>
</defs>
</svg>
