<svg width="32" height="32" viewBox="0 0 32 32" fill="none" xmlns="http://www.w3.org/2000/svg">
<g clip-path="url(#clip0_351_388)">
<path d="M1.94401 10.5964H31.0065C31.5413 10.5964 31.9752 10.1624 31.9752 9.62771C31.9752 9.09294 31.5412 8.65899 31.0065 8.65899H1.94401C1.40923 8.65899 0.975281 9.09302 0.975281 9.62771C0.975281 10.1624 1.40931 10.5964 1.94401 10.5964Z" fill="white"/>
<path d="M31.0065 15.4402H1.94401C1.40923 15.4402 0.975281 15.8743 0.975281 16.4089C0.975281 16.9436 1.40931 17.3777 1.94401 17.3777H31.0065C31.5413 17.3777 31.9752 16.9436 31.9752 16.4089C31.9752 15.8743 31.5413 15.4402 31.0065 15.4402Z" fill="white"/>
<path d="M31.0065 22.2215H11.6315C11.0967 22.2215 10.6628 22.6555 10.6628 23.1902C10.6628 23.725 11.0968 24.1589 11.6315 24.1589H31.0065C31.5413 24.1589 31.9752 23.7249 31.9752 23.1902C31.9753 22.6554 31.5413 22.2215 31.0065 22.2215Z" fill="white"/>
</g>
<defs>
<clipPath id="clip0_351_388">
<rect width="31" height="31" fill="white" transform="translate(0.975281 0.908951)"/>
</clipPath>
</defs>
</svg>
