<svg width="40" height="40" viewBox="0 0 40 40" fill="none" xmlns="http://www.w3.org/2000/svg">
<path d="M5.85938 22.3438C6.81946 22.3438 7.71301 22.598 8.51349 23.009L10.0974 21.1267C9.39514 20.7117 8.63556 20.3925 7.83264 20.2127C7.17804 20.0653 6.52924 20.0113 5.85297 20.0012C4.97955 20.0079 4.12018 19.6634 3.47717 19.0262C2.8064 18.3624 2.42188 17.439 2.42188 16.347C2.42188 10.3452 7.47803 5.9375 12.8165 5.9375H14.1406C14.7882 5.9375 15.3125 6.46179 15.3125 7.10938C15.3125 7.75696 14.7882 8.28125 14.1406 8.28125H12.8165C12.4673 8.28125 12.1344 8.34137 11.7969 8.3847V10.6491C12.4774 10.7108 13.1183 10.9213 13.7247 11.2036C13.7323 11.1948 13.7421 11.189 13.7494 11.1801C14.7113 11.6299 15.5405 12.3334 16.1411 13.2343L18.8086 17.2351C18.9917 17.5085 19.2801 17.6929 19.6063 17.7432C21.9788 18.1079 24.0353 19.6204 25.1154 21.8289C24.1144 23.3249 23.5156 25.1071 23.5156 27.0312H25.9375C25.9375 23.154 29.0915 20 32.9688 20C36.846 20 40 23.154 40 27.0312C40 30.9085 36.846 34.0625 32.9688 34.0625C29.9173 34.0625 27.3401 32.0972 26.3693 29.375H15.3125C14.6649 29.375 14.1406 28.8507 14.1406 28.2031C14.1406 27.5519 14.0628 26.8869 13.9105 26.228C13.5913 24.8596 12.8796 23.6142 11.9244 22.5967L10.3427 24.4763C11.189 25.4922 11.7188 26.7807 11.7188 28.2031C11.7188 31.4337 9.08997 34.0625 5.85938 34.0625C2.62878 34.0625 0 31.4337 0 28.2031C0 24.9725 2.62878 22.3438 5.85938 22.3438ZM32.9688 31.7188C35.5539 31.7188 37.6562 29.6164 37.6562 27.0312C37.6562 24.4461 35.5539 22.3438 32.9688 22.3438C30.3836 22.3438 28.2812 24.4461 28.2812 27.0312H31.7969C32.4435 27.0312 32.9688 26.506 32.9688 25.8594C32.9688 25.2118 33.493 24.6875 34.1406 24.6875C34.7882 24.6875 35.3125 25.2118 35.3125 25.8594C35.3125 27.7979 33.7354 29.375 31.7969 29.375H28.9331C29.7461 30.7693 31.2411 31.7188 32.9688 31.7188ZM5.85938 31.7188C7.79785 31.7188 9.375 30.1416 9.375 28.2031C9.375 27.5241 9.17267 26.8951 8.83789 26.3568L6.7749 28.9355C6.36749 29.4437 5.62958 29.5203 5.12695 29.1187C4.62219 28.7134 4.53979 27.9767 4.94385 27.4707L7.00439 24.895C6.64368 24.7696 6.26251 24.6875 5.85938 24.6875C3.9209 24.6875 2.34375 26.2646 2.34375 28.2031C2.34375 30.1416 3.9209 31.7188 5.85938 31.7188Z" fill="white"/>
<path d="M20.0989 14.946L18.0912 11.9342C17.4494 10.9711 16.6077 10.1886 15.6516 9.58099C16.9376 8.76892 18.4202 8.28125 20.0001 8.28125C22.7689 8.28125 25.3266 9.69269 26.832 11.9562L24.9576 13.0811C23.4519 13.9844 21.803 14.5892 20.0989 14.946Z" fill="white"/>
<path d="M26.1636 15.0903L33.6838 10.625H38.8281C39.4757 10.625 40 11.1493 40 11.7969C40 15.0275 37.3712 17.6563 34.1406 17.6563C31.7966 17.6563 29.3649 17.7072 26.7596 19.9719C26.7496 19.9533 26.7496 19.9323 26.7383 19.9142C25.8292 18.4525 24.5456 17.319 23.074 16.5225C24.1394 16.1328 25.1825 15.6787 26.1636 15.0903Z" fill="white"/>
</svg>
