<svg width="236" height="62" viewBox="0 0 236 62" fill="none" xmlns="http://www.w3.org/2000/svg">
<g clip-path="url(#clip0_1952_5680)">
<path d="M222.217 12.7758L211.819 12.7761C208.581 12.7761 206.002 13.5704 204.241 15.2963C202.484 17.0179 201.686 19.5254 201.686 22.6549V32.8415C201.686 35.971 202.484 38.4785 204.241 40.2001C206.002 41.926 208.581 42.7202 211.819 42.7202H230.077V37.2129H212.33C210.564 37.2129 209.409 36.7868 208.686 36.0764C207.958 35.3614 207.518 34.2127 207.518 32.4622V22.7633C207.518 20.989 207.97 19.7966 208.73 19.0456C209.484 18.3 210.684 17.8498 212.5 17.8498H221.478C222.911 17.8498 223.818 18.185 224.37 18.7025C224.92 19.2172 225.267 20.0504 225.267 21.3543V22.6547C225.267 23.735 224.942 24.4054 224.423 24.8268C223.877 25.2698 222.966 25.5632 221.535 25.5632H208.05V30.4203H222.672C225.277 30.4203 227.396 29.8865 228.869 28.6657C230.365 27.4253 231.043 25.6042 231.043 23.359V21.0832C231.043 18.4583 230.339 16.3392 228.787 14.8835C227.238 13.4302 224.991 12.7758 222.217 12.7758Z" fill="#272727"/>
<path d="M113.683 12.7761C110.446 12.7761 107.866 13.5704 106.105 15.2962C104.348 17.0179 103.55 19.5253 103.55 22.6548V32.8415C103.55 35.971 104.348 38.4784 106.105 40.2001C107.866 41.9259 110.446 42.7202 113.683 42.7202H127.793V37.1588H114.478C112.662 37.1588 111.446 36.7086 110.677 35.9541C109.904 35.1954 109.439 33.9897 109.439 32.1912V23.3053C109.439 21.5068 109.904 20.3177 110.673 19.5736C111.44 18.8318 112.655 18.3918 114.478 18.3918H127.793V12.7763L113.683 12.7761Z" fill="#272727"/>
<path d="M196.892 1.12672L191.003 1.1265V32.1912C191.003 33.9896 190.538 35.1953 189.764 35.954C188.995 36.7085 187.78 37.1587 185.963 37.1587H177.781C175.964 37.1587 174.749 36.7085 173.98 35.9541C173.207 35.1954 172.742 33.9897 172.742 32.1912V23.3052C172.742 21.5067 173.206 20.3176 173.976 19.5736C174.743 18.8317 175.958 18.3918 177.781 18.3918H190.471V12.7762H176.985C173.748 12.7762 171.169 13.5705 169.407 15.2963C167.65 17.018 166.852 19.5254 166.852 22.655V32.8416C166.852 35.9711 167.65 38.4786 169.407 40.2002C171.169 41.926 173.748 42.7203 176.985 42.7203H186.759C189.996 42.7203 192.576 41.926 194.337 40.2002C196.094 38.4786 196.892 35.9711 196.892 32.8416V1.12672Z" fill="#272727"/>
<path d="M143.333 13.122H142.108V14.2898H143.333V13.122Z" fill="#272727"/>
<path d="M145.782 13.122H144.557V14.2898H145.782V13.122Z" fill="#272727"/>
<path d="M147.007 13.122H145.782V14.2898H147.007V13.122Z" fill="#272727"/>
<path d="M149.456 13.122H148.232V14.2898H149.456V13.122Z" fill="#272727"/>
<path d="M150.682 13.122H149.456V14.2898H150.682V13.122Z" fill="#272727"/>
<path d="M143.333 14.2898H142.108V15.4575H143.333V14.2898Z" fill="#272727"/>
<path d="M144.557 14.2898H143.333V15.4575H144.558L144.557 14.2898Z" fill="#272727"/>
<path d="M145.782 14.2898H144.557L144.558 15.4575H145.782V14.2898Z" fill="#272727"/>
<path d="M147.007 14.2898H145.782V15.4575H147.007V14.2898Z" fill="#272727"/>
<path d="M148.232 14.2898H147.007V15.4575H148.232L148.232 14.2898Z" fill="#272727"/>
<path d="M150.682 14.2898H149.456L149.457 15.4575H150.682V14.2898Z" fill="#272727"/>
<path d="M143.333 15.4575H142.108V16.6255H143.333V15.4575Z" fill="#272727"/>
<path d="M144.558 15.4575H143.333V16.6255H144.558V15.4575Z" fill="#272727"/>
<path d="M147.007 15.4575H145.782L145.782 16.6255H147.007V15.4575Z" fill="#272727"/>
<path d="M148.232 15.4575H147.007V16.6255H148.232V15.4575Z" fill="#272727"/>
<path d="M149.457 15.4575H148.232V16.6255H149.456L149.457 15.4575Z" fill="#272727"/>
<path d="M150.682 15.4575H149.457L149.456 16.6255H150.682V15.4575Z" fill="#272727"/>
<path d="M144.558 16.6255H143.333L143.333 17.7933H144.558V16.6255Z" fill="#272727"/>
<path d="M149.456 16.6255H148.232L148.232 17.7933H149.456V16.6255Z" fill="#272727"/>
<path d="M151.906 16.6255L150.682 16.6255L150.681 17.7933H151.906V16.6255Z" fill="#272727"/>
<path d="M153.131 16.6255H151.906V17.7933H153.131V16.6255Z" fill="#272727"/>
<path d="M143.333 17.7933L142.108 17.7935V18.9613H143.333L143.333 17.7933Z" fill="#272727"/>
<path d="M145.782 17.7935L144.558 17.7933L144.557 18.9613H145.782V17.7935Z" fill="#272727"/>
<path d="M149.456 17.7933H148.232V18.9613H149.456V17.7933Z" fill="#272727"/>
<path d="M150.681 17.7933H149.456V18.9613H150.682L150.681 17.7933Z" fill="#272727"/>
<path d="M147.007 18.9611L145.782 18.9613L145.782 20.1289H147.007V18.9611Z" fill="#272727"/>
<path d="M148.232 18.9613L147.007 18.9611V20.1289H148.232L148.232 18.9613Z" fill="#272727"/>
<path d="M149.456 18.9613H148.232L148.232 20.1289H149.456V18.9613Z" fill="#272727"/>
<path d="M150.682 18.9613H149.456V20.1289H150.682V18.9613Z" fill="#272727"/>
<path d="M143.333 20.1289H142.108V21.2968H143.333V20.1289Z" fill="#272727"/>
<path d="M145.782 20.1289L144.557 20.1289V21.2968H145.782L145.782 20.1289Z" fill="#272727"/>
<path d="M148.232 20.1289H147.007L147.007 21.2968H148.232V20.1289Z" fill="#272727"/>
<path d="M150.682 20.1289H149.456L149.457 21.2968H150.682V20.1289Z" fill="#272727"/>
<path d="M153.131 20.1289H151.906V21.2968H153.131V20.1289Z" fill="#272727"/>
<path d="M144.557 21.2968H143.333L143.333 22.4647H144.558L144.557 21.2968Z" fill="#272727"/>
<path d="M149.457 21.2968H148.232L148.232 22.4647H149.456L149.457 21.2968Z" fill="#272727"/>
<path d="M153.131 21.2968H151.906V22.4647H153.131V21.2968Z" fill="#272727"/>
<path d="M133.535 22.4645H132.31V23.6323H133.535V22.4645Z" fill="#272727"/>
<path d="M137.209 22.4645H135.984V23.6323H137.209V22.4645Z" fill="#272727"/>
<path d="M138.434 22.4645H137.209V23.6323H138.434V22.4645Z" fill="#272727"/>
<path d="M139.658 22.4645H138.434V23.6323H139.658V22.4645Z" fill="#272727"/>
<path d="M140.883 22.4645H139.658V23.6323H140.883V22.4645Z" fill="#272727"/>
<path d="M142.108 22.4645H140.883V23.6323H142.108V22.4645Z" fill="#272727"/>
<path d="M143.333 22.4647L142.108 22.4645V23.6323H143.333L143.333 22.4647Z" fill="#272727"/>
<path d="M151.906 22.4647L150.681 22.4645V23.6323H151.906L151.906 22.4647Z" fill="#272727"/>
<path d="M153.131 22.4647H151.906L151.906 23.6323H153.131V22.4647Z" fill="#272727"/>
<path d="M154.355 22.4645L153.131 22.4647V23.6323H154.355V22.4645Z" fill="#272727"/>
<path d="M158.03 22.4645H156.805V23.6323H158.03V22.4645Z" fill="#272727"/>
<path d="M160.479 22.4645H159.254V23.6323H160.479V22.4645Z" fill="#272727"/>
<path d="M161.704 22.4645H160.479V23.6323H161.704V22.4645Z" fill="#272727"/>
<path d="M162.929 22.4645H161.704V23.6323H162.929V22.4645Z" fill="#272727"/>
<path d="M133.535 23.6323H132.31V24.8002H133.535V23.6323Z" fill="#272727"/>
<path d="M134.759 23.6324L133.535 23.6323V24.8002H134.759V23.6324Z" fill="#272727"/>
<path d="M135.984 23.6323L134.759 23.6324V24.8002H135.984L135.984 23.6323Z" fill="#272727"/>
<path d="M139.658 23.6323H138.434L138.434 24.8002H139.658V23.6323Z" fill="#272727"/>
<path d="M142.108 23.6323H140.883L140.883 24.8002H142.108V23.6323Z" fill="#272727"/>
<path d="M143.333 23.6323H142.108V24.8002H143.333V23.6323Z" fill="#272727"/>
<path d="M145.782 23.6324H144.557V24.8002H145.782V23.6324Z" fill="#272727"/>
<path d="M147.007 23.6324H145.782V24.8002H147.007V23.6324Z" fill="#272727"/>
<path d="M148.232 23.6324H147.007V24.8002H148.232V23.6324Z" fill="#272727"/>
<path d="M149.456 23.6324H148.232V24.8002H149.456V23.6324Z" fill="#272727"/>
<path d="M150.681 23.6323L149.456 23.6324V24.8002H150.682L150.681 23.6323Z" fill="#272727"/>
<path d="M151.906 23.6323H150.681L150.682 24.8002H151.906V23.6323Z" fill="#272727"/>
<path d="M156.805 23.6323L155.581 23.6324V24.8002H156.805L156.805 23.6323Z" fill="#272727"/>
<path d="M158.03 23.6323H156.805L156.805 24.8002H158.03V23.6323Z" fill="#272727"/>
<path d="M159.254 23.6323H158.03V24.8002H159.254L159.254 23.6323Z" fill="#272727"/>
<path d="M160.479 23.6323H159.254L159.254 24.8002H160.479V23.6323Z" fill="#272727"/>
<path d="M161.704 23.6323H160.479V24.8002H161.704V23.6323Z" fill="#272727"/>
<path d="M134.759 24.8002H133.535L133.535 25.968H134.759V24.8002Z" fill="#272727"/>
<path d="M135.984 24.8002H134.759V25.968H135.984V24.8002Z" fill="#272727"/>
<path d="M137.209 24.8002H135.984V25.968H137.209V24.8002Z" fill="#272727"/>
<path d="M139.658 24.8002H138.434V25.968H139.658V24.8002Z" fill="#272727"/>
<path d="M140.883 24.8002H139.658V25.968H140.883L140.883 24.8002Z" fill="#272727"/>
<path d="M142.108 24.8002H140.883L140.883 25.968H142.108V24.8002Z" fill="#272727"/>
<path d="M145.782 24.8002H144.557V25.968H145.782V24.8002Z" fill="#272727"/>
<path d="M148.232 24.8002H147.007L147.007 25.968H148.232V24.8002Z" fill="#272727"/>
<path d="M149.456 24.8002H148.232V25.968H149.456V24.8002Z" fill="#272727"/>
<path d="M151.906 24.8002H150.682L150.681 25.968H151.906V24.8002Z" fill="#272727"/>
<path d="M154.355 24.8002H153.131V25.968H154.355V24.8002Z" fill="#272727"/>
<path d="M158.03 24.8002H156.805L156.805 25.968H158.03V24.8002Z" fill="#272727"/>
<path d="M159.254 24.8002H158.03V25.968H159.254V24.8002Z" fill="#272727"/>
<path d="M162.929 24.8002H161.704L161.704 25.968H162.929V24.8002Z" fill="#272727"/>
<path d="M134.759 25.968H133.535V27.1361H134.759V25.968Z" fill="#272727"/>
<path d="M137.209 25.968H135.984L135.984 27.1361H137.209V25.968Z" fill="#272727"/>
<path d="M139.658 25.968H138.434V27.1361H139.658V25.968Z" fill="#272727"/>
<path d="M142.108 25.968H140.883L140.883 27.1361H142.108V25.968Z" fill="#272727"/>
<path d="M143.333 25.9683L142.108 25.968V27.1361H143.333V25.9683Z" fill="#272727"/>
<path d="M144.557 25.968L143.333 25.9683V27.1361H144.558L144.557 25.968Z" fill="#272727"/>
<path d="M147.007 25.968H145.782L145.782 27.1361H147.007L147.007 25.968Z" fill="#272727"/>
<path d="M148.232 25.968H147.007L147.007 27.1361H148.232V25.968Z" fill="#272727"/>
<path d="M155.58 25.9683L154.355 25.968L154.355 27.1361H155.58V25.9683Z" fill="#272727"/>
<path d="M156.805 25.968L155.58 25.9683V27.1361H156.805L156.805 25.968Z" fill="#272727"/>
<path d="M158.03 25.968H156.805L156.805 27.1361H158.03V25.968Z" fill="#272727"/>
<path d="M159.254 25.968H158.03V27.1361H159.254V25.968Z" fill="#272727"/>
<path d="M160.479 25.9683L159.254 25.968V27.1361H160.479V25.9683Z" fill="#272727"/>
<path d="M161.704 25.968L160.479 25.9683V27.1361H161.704L161.704 25.968Z" fill="#272727"/>
<path d="M162.929 25.968H161.704L161.704 27.1361H162.929V25.968Z" fill="#272727"/>
<path d="M133.535 27.1361L132.31 27.136V28.3038H133.535L133.535 27.1361Z" fill="#272727"/>
<path d="M134.759 27.1361H133.535L133.535 28.3038H134.759V27.1361Z" fill="#272727"/>
<path d="M135.984 27.1361H134.759V28.3038H135.984L135.984 27.1361Z" fill="#272727"/>
<path d="M137.209 27.1361H135.984L135.984 28.3038H137.209V27.1361Z" fill="#272727"/>
<path d="M139.658 27.1361H138.434V28.3038H139.658V27.1361Z" fill="#272727"/>
<path d="M140.883 27.1361H139.658V28.3038H140.883L140.883 27.1361Z" fill="#272727"/>
<path d="M142.108 27.1361H140.883L140.883 28.3038H142.108V27.1361Z" fill="#272727"/>
<path d="M143.333 27.1361H142.108V28.3038H143.333V27.1361Z" fill="#272727"/>
<path d="M144.558 27.1361H143.333V28.3038H144.558V27.1361Z" fill="#272727"/>
<path d="M147.007 27.1361H145.782V28.3038H147.007V27.1361Z" fill="#272727"/>
<path d="M148.232 27.1361H147.007V28.3038H148.232V27.1361Z" fill="#272727"/>
<path d="M151.906 27.136H150.681V28.3038H151.906V27.136Z" fill="#272727"/>
<path d="M153.131 27.136H151.906V28.3038H153.131V27.136Z" fill="#272727"/>
<path d="M155.58 27.1361H154.355V28.3038H155.58V27.1361Z" fill="#272727"/>
<path d="M156.805 27.1361H155.58V28.3038H156.805V27.1361Z" fill="#272727"/>
<path d="M162.929 27.1361H161.704L161.704 28.3038H162.929V27.1361Z" fill="#272727"/>
<path d="M133.535 28.3038H132.31V29.4715H133.535V28.3038Z" fill="#272727"/>
<path d="M138.434 28.3038H137.209L137.209 29.4715H138.434L138.434 28.3038Z" fill="#272727"/>
<path d="M143.333 28.3038H142.108L142.108 29.4715H143.333V28.3038Z" fill="#272727"/>
<path d="M144.558 28.3038H143.333V29.4715H144.558V28.3038Z" fill="#272727"/>
<path d="M150.681 28.3038L149.457 28.3037V29.4715H150.682L150.681 28.3038Z" fill="#272727"/>
<path d="M151.906 28.3038H150.681L150.682 29.4715H151.906V28.3038Z" fill="#272727"/>
<path d="M153.131 28.3038H151.906V29.4715H153.131V28.3038Z" fill="#272727"/>
<path d="M158.03 28.3037L156.805 28.3038L156.805 29.4715H158.03V28.3037Z" fill="#272727"/>
<path d="M161.704 28.3038L160.479 28.3037V29.4715H161.704L161.704 28.3038Z" fill="#272727"/>
<path d="M133.535 29.4715H132.31V30.6396H133.535V29.4715Z" fill="#272727"/>
<path d="M134.759 29.4718L133.535 29.4715V30.6396H134.759V29.4718Z" fill="#272727"/>
<path d="M135.984 29.4718H134.759V30.6396H135.984V29.4718Z" fill="#272727"/>
<path d="M138.434 29.4715H137.209V30.6396H138.434V29.4715Z" fill="#272727"/>
<path d="M140.883 29.4718H139.658V30.6396H140.883V29.4718Z" fill="#272727"/>
<path d="M143.333 29.4715H142.108V30.6396H143.333V29.4715Z" fill="#272727"/>
<path d="M147.007 29.4718H145.782V30.6396H147.007V29.4718Z" fill="#272727"/>
<path d="M148.232 29.4718H147.007V30.6396H148.232V29.4718Z" fill="#272727"/>
<path d="M149.457 29.4715L148.232 29.4718V30.6396H149.456L149.457 29.4715Z" fill="#272727"/>
<path d="M151.906 29.4715H150.682L150.681 30.6396H151.906V29.4715Z" fill="#272727"/>
<path d="M154.355 29.4718L153.131 29.4715L153.131 30.6396H154.355V29.4718Z" fill="#272727"/>
<path d="M155.58 29.4718H154.355V30.6396H155.58V29.4718Z" fill="#272727"/>
<path d="M158.03 29.4715H156.805V30.6396H158.03V29.4715Z" fill="#272727"/>
<path d="M159.254 29.4718L158.03 29.4715V30.6396H159.254V29.4718Z" fill="#272727"/>
<path d="M160.479 29.4715L159.254 29.4718V30.6396H160.479L160.479 29.4715Z" fill="#272727"/>
<path d="M161.704 29.4715H160.479L160.479 30.6396H161.704V29.4715Z" fill="#272727"/>
<path d="M162.929 29.4718L161.704 29.4715V30.6396H162.929V29.4718Z" fill="#272727"/>
<path d="M133.535 30.6396H132.31V31.8071H133.535V30.6396Z" fill="#272727"/>
<path d="M137.209 30.6396H135.984L135.984 31.8071H137.209L137.209 30.6396Z" fill="#272727"/>
<path d="M138.434 30.6396H137.209L137.209 31.8071H138.434V30.6396Z" fill="#272727"/>
<path d="M142.108 30.6396H140.883L140.883 31.8071H142.108L142.108 30.6396Z" fill="#272727"/>
<path d="M144.558 30.6393L143.333 30.6396L143.333 31.8071H144.558V30.6393Z" fill="#272727"/>
<path d="M145.782 30.6396L144.558 30.6393V31.8071H145.782L145.782 30.6396Z" fill="#272727"/>
<path d="M147.007 30.6396H145.782L145.782 31.8071H147.007V30.6396Z" fill="#272727"/>
<path d="M151.906 30.6396H150.681V31.8071H151.906V30.6396Z" fill="#272727"/>
<path d="M156.805 30.6396H155.58L155.581 31.8071H156.805L156.805 30.6396Z" fill="#272727"/>
<path d="M159.254 30.6396H158.03L158.03 31.8071H159.254V30.6396Z" fill="#272727"/>
<path d="M160.479 30.6396H159.254V31.8071H160.479V30.6396Z" fill="#272727"/>
<path d="M162.929 30.6396H161.704L161.704 31.8071H162.929V30.6396Z" fill="#272727"/>
<path d="M133.535 31.8071H132.31V32.9751H133.535V31.8071Z" fill="#272727"/>
<path d="M135.984 31.8071L134.76 31.8072V32.9751H135.984L135.984 31.8071Z" fill="#272727"/>
<path d="M137.209 31.8071H135.984L135.984 32.9751H137.209V31.8071Z" fill="#272727"/>
<path d="M140.883 31.8071L139.658 31.8072V32.9751H140.883L140.883 31.8071Z" fill="#272727"/>
<path d="M144.558 31.8071H143.333V32.9751H144.558V31.8071Z" fill="#272727"/>
<path d="M149.456 31.8072H148.232V32.9751H149.456V31.8072Z" fill="#272727"/>
<path d="M153.131 31.8072L151.906 31.8071L151.906 32.9751H153.131V31.8072Z" fill="#272727"/>
<path d="M154.355 31.8072H153.131V32.9751H154.355V31.8072Z" fill="#272727"/>
<path d="M155.581 31.8071L154.355 31.8072V32.9751H155.58L155.581 31.8071Z" fill="#272727"/>
<path d="M156.805 31.8071H155.581L155.58 32.9751H156.805V31.8071Z" fill="#272727"/>
<path d="M158.03 31.8071H156.805V32.9751H158.03L158.03 31.8071Z" fill="#272727"/>
<path d="M160.479 31.8071H159.254L159.254 32.9751H160.479V31.8071Z" fill="#272727"/>
<path d="M161.704 31.8071H160.479V32.9751H161.704L161.704 31.8071Z" fill="#272727"/>
<path d="M143.333 32.9751L142.108 32.9751V34.1429H143.333L143.333 32.9751Z" fill="#272727"/>
<path d="M144.558 32.9751H143.333L143.333 34.1429H144.558V32.9751Z" fill="#272727"/>
<path d="M145.782 32.9751L144.558 32.9751V34.1429H145.782V32.9751Z" fill="#272727"/>
<path d="M147.007 32.9751H145.782V34.1429H147.007V32.9751Z" fill="#272727"/>
<path d="M148.232 32.9751L147.007 32.9751V34.1429H148.232L148.232 32.9751Z" fill="#272727"/>
<path d="M149.456 32.9751H148.232L148.232 34.1429H149.456V32.9751Z" fill="#272727"/>
<path d="M153.131 32.9751H151.906V34.1429H153.131V32.9751Z" fill="#272727"/>
<path d="M158.03 32.9751H156.805L156.805 34.1429H158.03V32.9751Z" fill="#272727"/>
<path d="M160.479 32.9751H159.254V34.1429H160.479V32.9751Z" fill="#272727"/>
<path d="M161.704 32.9751H160.479V34.1429H161.704V32.9751Z" fill="#272727"/>
<path d="M143.333 34.1429H142.108V35.3105H143.333V34.1429Z" fill="#272727"/>
<path d="M144.558 34.1429H143.333V35.3105H144.558V34.1429Z" fill="#272727"/>
<path d="M145.782 34.1429H144.558V35.3105H145.782V34.1429Z" fill="#272727"/>
<path d="M147.007 34.1429H145.782V35.3105H147.007V34.1429Z" fill="#272727"/>
<path d="M153.131 34.1429H151.906V35.3105H153.131V34.1429Z" fill="#272727"/>
<path d="M155.58 34.1427H154.355V35.3105H155.58V34.1427Z" fill="#272727"/>
<path d="M158.03 34.1429H156.805V35.3105H158.03V34.1429Z" fill="#272727"/>
<path d="M162.929 34.1427L161.704 34.1429L161.704 35.3105H162.929V34.1427Z" fill="#272727"/>
<path d="M143.333 35.3105H142.108V36.4787H143.333V35.3105Z" fill="#272727"/>
<path d="M144.558 35.3105H143.333V36.4787H144.558V35.3105Z" fill="#272727"/>
<path d="M145.782 35.3105H144.558V36.4787H145.782V35.3105Z" fill="#272727"/>
<path d="M148.232 35.3109L147.007 35.3105L147.007 36.4787H148.232V35.3109Z" fill="#272727"/>
<path d="M149.456 35.3109H148.232V36.4787H149.456V35.3109Z" fill="#272727"/>
<path d="M150.682 35.3109H149.456V36.4787H150.682V35.3109Z" fill="#272727"/>
<path d="M151.906 35.3105L150.682 35.3109V36.4787H151.906L151.906 35.3105Z" fill="#272727"/>
<path d="M153.131 35.3105H151.906L151.906 36.4787H153.131V35.3105Z" fill="#272727"/>
<path d="M158.03 35.3105H156.805V36.4787H158.03V35.3105Z" fill="#272727"/>
<path d="M161.704 35.3105L160.479 35.3109V36.4787H161.704L161.704 35.3105Z" fill="#272727"/>
<path d="M143.333 36.4787H142.108V37.6464H143.333V36.4787Z" fill="#272727"/>
<path d="M144.558 36.4787H143.333V37.6464H144.558V36.4787Z" fill="#272727"/>
<path d="M145.782 36.4787H144.558V37.6464H145.782V36.4787Z" fill="#272727"/>
<path d="M148.232 36.4787H147.007V37.6464H148.232V36.4787Z" fill="#272727"/>
<path d="M151.906 36.4787H150.682L150.681 37.6464H151.906V36.4787Z" fill="#272727"/>
<path d="M153.131 36.4787H151.906V37.6464H153.131V36.4787Z" fill="#272727"/>
<path d="M154.355 36.4786L153.131 36.4787V37.6464H154.355V36.4786Z" fill="#272727"/>
<path d="M155.58 36.4786H154.355V37.6464H155.58V36.4786Z" fill="#272727"/>
<path d="M156.805 36.4787L155.58 36.4786V37.6464H156.805L156.805 36.4787Z" fill="#272727"/>
<path d="M158.03 36.4787H156.805L156.805 37.6464H158.03V36.4787Z" fill="#272727"/>
<path d="M161.704 36.4787H160.479V37.6464H161.704V36.4787Z" fill="#272727"/>
<path d="M162.929 36.4786L161.704 36.4787V37.6464H162.929V36.4786Z" fill="#272727"/>
<path d="M143.333 37.6464H142.108V38.8143H143.333V37.6464Z" fill="#272727"/>
<path d="M144.558 37.6464H143.333V38.8143H144.558V37.6464Z" fill="#272727"/>
<path d="M145.782 37.6464H144.558V38.8143H145.782V37.6464Z" fill="#272727"/>
<path d="M149.456 37.6465L148.232 37.6464L148.232 38.8143H149.456V37.6465Z" fill="#272727"/>
<path d="M150.681 37.6464L149.456 37.6465V38.8143H150.682L150.681 37.6464Z" fill="#272727"/>
<path d="M151.906 37.6464H150.681L150.682 38.8143H151.906V37.6464Z" fill="#272727"/>
<path d="M154.355 37.6464H153.131L153.131 38.8143H154.355V37.6464Z" fill="#272727"/>
<path d="M155.58 37.6464H154.355V38.8143H155.58V37.6464Z" fill="#272727"/>
<path d="M161.704 37.6464H160.479V38.8143H161.704V37.6464Z" fill="#272727"/>
<path d="M162.929 37.6464H161.704V38.8143H162.929V37.6464Z" fill="#272727"/>
<path d="M144.558 38.8143H143.333L143.333 39.982H144.558V38.8143Z" fill="#272727"/>
<path d="M145.782 38.8143H144.558V39.982H145.782V38.8143Z" fill="#272727"/>
<path d="M148.232 38.8143L147.007 38.8142V39.982H148.232L148.232 38.8143Z" fill="#272727"/>
<path d="M149.456 38.8143H148.232L148.232 39.982H149.456V38.8143Z" fill="#272727"/>
<path d="M151.906 38.8143H150.682L150.681 39.982H151.906V38.8143Z" fill="#272727"/>
<path d="M154.355 38.8143H153.131V39.982H154.355V38.8143Z" fill="#272727"/>
<path d="M158.03 38.8142H156.805V39.982H158.03V38.8142Z" fill="#272727"/>
<path d="M159.254 38.8142H158.03V39.982H159.254V38.8142Z" fill="#272727"/>
<path d="M160.479 38.8143L159.254 38.8142V39.982H160.479L160.479 38.8143Z" fill="#272727"/>
<path d="M161.704 38.8143H160.479L160.479 39.982H161.704V38.8143Z" fill="#272727"/>
<path d="M162.929 38.8143H161.704V39.982H162.929V38.8143Z" fill="#272727"/>
<path d="M144.558 39.982H143.333V41.1498H144.558V39.982Z" fill="#272727"/>
<path d="M150.681 39.982H149.456L149.457 41.1498H150.682L150.681 39.982Z" fill="#272727"/>
<path d="M155.58 39.982L154.355 39.982L154.355 41.1498H155.58V39.982Z" fill="#272727"/>
<path d="M156.805 39.982L155.58 39.982V41.1498H156.805L156.805 39.982Z" fill="#272727"/>
<path d="M158.03 39.982H156.805L156.805 41.1498H158.03V39.982Z" fill="#272727"/>
<path d="M160.479 39.982H159.254L159.254 41.1498H160.479V39.982Z" fill="#272727"/>
<path d="M161.704 39.982H160.479V41.1498H161.704V39.982Z" fill="#272727"/>
<path d="M162.929 39.982H161.704V41.1498H162.929V39.982Z" fill="#272727"/>
<path d="M143.333 41.1498L142.108 41.15V42.3178H143.333L143.333 41.1498Z" fill="#272727"/>
<path d="M148.232 41.15H147.007V42.3178H148.232V41.15Z" fill="#272727"/>
<path d="M149.457 41.1498L148.232 41.15V42.3178H149.456L149.457 41.1498Z" fill="#272727"/>
<path d="M150.682 41.1498H149.457L149.456 42.3178H150.682V41.1498Z" fill="#272727"/>
<path d="M153.131 41.15H151.906V42.3178H153.131V41.15Z" fill="#272727"/>
<path d="M155.58 41.1498H154.355V42.3178H155.58V41.1498Z" fill="#272727"/>
<path d="M159.254 41.1498H158.03L158.03 42.3178H159.254L159.254 41.1498Z" fill="#272727"/>
<path d="M162.929 41.1498H161.704L161.704 42.3178H162.929V41.1498Z" fill="#272727"/>
<path d="M137.956 13.1227H135.237C133.912 13.1227 132.789 13.9576 132.43 15.0986C132.393 15.2167 132.364 15.338 132.344 15.4621C132.321 15.5989 132.31 15.739 132.31 15.8816V18.536C132.31 20.0581 133.623 21.2959 135.237 21.2959L137.956 21.2957C139.569 21.2957 140.883 20.0581 140.883 18.536V15.8816C140.883 14.3603 139.569 13.1227 137.956 13.1227ZM139.597 18.5358C139.597 19.3814 138.861 20.0693 137.956 20.0693L135.237 20.0695C134.332 20.0695 133.596 19.3814 133.596 18.5358V15.8814C133.596 15.6172 133.668 15.3685 133.794 15.1514C133.916 14.9423 134.088 14.7625 134.296 14.6265C134.562 14.4516 134.887 14.3487 135.237 14.3487H137.956C138.861 14.3487 139.597 15.0363 139.597 15.8814V18.5358Z" fill="#272727"/>
<path d="M160.001 13.1227H157.282C155.957 13.1227 154.834 13.9576 154.475 15.0986C154.438 15.2167 154.409 15.338 154.389 15.4621C154.367 15.5989 154.355 15.739 154.355 15.8816V18.536C154.355 20.0581 155.669 21.2959 157.282 21.2959L160.001 21.2957C161.615 21.2957 162.928 20.0581 162.928 18.536V15.8816C162.928 14.3603 161.615 13.1227 160.001 13.1227ZM161.643 18.5358C161.643 19.3814 160.906 20.0693 160.001 20.0693L157.283 20.0695C156.378 20.0695 155.641 19.3814 155.641 18.5358V15.8814C155.641 15.6172 155.713 15.3685 155.84 15.1514C155.961 14.9423 156.134 14.7625 156.341 14.6265C156.608 14.4516 156.932 14.3487 157.282 14.3487H160.002C160.906 14.3487 161.643 15.0363 161.643 15.8814V18.5358Z" fill="#272727"/>
<path d="M137.956 34.1436H135.237C133.912 34.1436 132.789 34.9785 132.43 36.1195C132.393 36.2377 132.364 36.3589 132.344 36.4829C132.321 36.6198 132.31 36.7599 132.31 36.9025V39.557C132.31 41.079 133.623 42.3167 135.237 42.3167H137.956C139.569 42.3167 140.883 41.0789 140.883 39.5568V36.9025C140.883 35.3812 139.569 34.1436 137.956 34.1436ZM139.597 39.557C139.597 40.4024 138.861 41.0905 137.956 41.0905H135.237C134.332 41.0905 133.596 40.4026 133.596 39.557V36.9025C133.596 36.6383 133.668 36.3897 133.794 36.1724C133.916 35.9634 134.088 35.7836 134.296 35.6476C134.562 35.4726 134.887 35.3698 135.237 35.3698H137.956C138.861 35.3698 139.597 36.0574 139.597 36.9025V39.557Z" fill="#272727"/>
<path d="M135.764 18.9613C135.21 18.9613 134.759 18.5398 134.759 18.0221V16.3965C134.759 16.2347 134.803 16.0825 134.88 15.9495C134.955 15.8213 135.06 15.7112 135.187 15.6281C135.35 15.5209 135.549 15.4578 135.764 15.4578H137.429C137.983 15.4578 138.434 15.8789 138.434 16.3965V18.0221C138.434 18.5396 137.983 18.9612 137.429 18.9612L135.764 18.9613Z" fill="#272727"/>
<path d="M157.81 18.9613C157.255 18.9613 156.804 18.5398 156.804 18.0221V16.3965C156.804 16.2347 156.848 16.0825 156.926 15.9495C157 15.8213 157.106 15.7112 157.233 15.6281C157.396 15.5209 157.595 15.4578 157.809 15.4578H159.475C160.029 15.4578 160.48 15.8789 160.48 16.3965V18.0221C160.48 18.5396 160.029 18.9612 159.475 18.9612L157.81 18.9613Z" fill="#272727"/>
<path d="M135.764 39.9819C135.21 39.9819 134.759 39.5604 134.759 39.0428V37.4172C134.759 37.2555 134.803 37.1033 134.88 36.9701C134.955 36.8419 135.06 36.7318 135.187 36.6488C135.35 36.5417 135.549 36.4786 135.764 36.4786H137.429C137.983 36.4786 138.434 36.8995 138.434 37.4172V39.0427C138.434 39.5604 137.983 39.9819 137.429 39.9819H135.764Z" fill="#272727"/>
<path d="M228.77 7.71154V0.795898H230.97L232.27 5.51254L233.555 0.795898H235.76V7.71154H234.402L234.397 2.26713L232.967 7.71154H231.556L230.133 2.26713L230.128 7.71154H228.77Z" fill="#272727"/>
<path d="M224.234 7.71154V1.96451H222.087V0.795898H227.84V1.96451H225.703V7.71154H224.234Z" fill="#272727"/>
<path d="M79.9852 13.6066C73.7912 13.6066 70.7228 16.6408 70.7228 22.6552V32.8418C70.7228 38.8562 73.7912 41.8904 79.9852 41.8904H97.3735V38.0434H80.4965C76.6894 38.0434 74.8141 36.2013 74.8141 32.4625V22.7636C74.8141 18.9708 76.7461 17.02 80.667 17.02H89.6451C92.7705 17.02 94.3047 18.4829 94.3047 21.3546V22.655C94.3047 25.1474 92.7705 26.3937 89.702 26.3937H77.087V29.5904H90.8384C95.8391 29.5904 98.3394 27.5315 98.3394 23.3593V21.0835C98.3394 16.0986 95.6686 13.6063 90.3838 13.6063L79.9852 13.6066Z" fill="#724693"/>
<path d="M62.9951 1.95703C58.165 1.95703 55.7782 4.28688 55.7782 9.05497V41.8902H59.8695V17.1282H66.4612V13.6064H59.8695V9.16337C59.8695 6.5626 61.1765 5.26221 63.8471 5.26221H66.6884V1.95703H62.9951Z" fill="#724693"/>
<path d="M44.7543 13.8775V41.8904H48.9024V13.8775H44.7543ZM44.7543 1.95703V8.24248H48.9024V1.95703H44.7543Z" fill="#724693"/>
<path d="M14.1826 2.33635V41.8904H39.6968V37.8267H18.5015V2.33651L14.1826 2.33635Z" fill="#724693"/>
<path d="M1.96933 42.853H0.401542V41.2404H1.96933V42.853ZM9.24113 42.853H2.83376V41.2404H9.24113V42.853Z" fill="#272727"/>
<path d="M6.37695 40.018L6.20403 38.3582C6.78646 38.2582 7.21226 38.058 7.48603 37.7539C7.75964 37.4499 7.89538 37.0398 7.89538 36.5238C7.89538 35.9785 7.77396 35.5664 7.53128 35.2898C7.28843 35.0131 7.00446 34.8738 6.67935 34.8738C6.46958 34.8738 6.29255 34.9327 6.14645 35.0484C5.99837 35.1641 5.8707 35.3682 5.76375 35.6586C5.68972 35.8568 5.56221 36.308 5.37695 37.0142C5.13822 37.9226 4.84618 38.5603 4.49837 38.9273C4.01071 39.4432 3.41611 39.7002 2.71439 39.7002C2.26392 39.7002 1.84009 39.5785 1.44704 39.3372C1.05398 39.094 0.75569 38.7446 0.549865 38.2876C0.344205 37.8305 0.241211 37.2811 0.241211 36.6336C0.241211 35.5802 0.486193 34.7856 0.977967 34.2539C1.46958 33.7202 2.1239 33.4416 2.9449 33.4141L3.0066 35.121C2.54987 35.1936 2.22278 35.3486 2.02321 35.586C1.82348 35.8234 1.72278 36.1804 1.72278 36.6553C1.72278 37.1457 1.82973 37.5302 2.04378 37.807C2.18149 37.9855 2.36477 38.0757 2.59511 38.0757C2.80505 38.0757 2.98406 37.9913 3.13213 37.8227C3.32348 37.6088 3.52107 37.0889 3.72673 36.2629C3.93042 35.437 4.14447 34.8267 4.36263 34.4324C4.58277 34.036 4.88106 33.7262 5.26178 33.5025C5.64233 33.2787 6.11157 33.1669 6.66915 33.1669C7.17524 33.1669 7.65056 33.3004 8.09298 33.5691C8.53523 33.8379 8.86445 34.2166 9.0785 34.707C9.29452 35.1976 9.40147 35.8097 9.40147 36.5414C9.40147 37.6068 9.14431 38.4249 8.62786 38.9958C8.11354 39.5667 7.36247 39.906 6.37695 40.018Z" fill="#272727"/>
<path d="M0.401707 30.1416H3.67729C3.0251 29.6177 2.69786 28.9899 2.69786 28.262C2.69786 27.8873 2.76992 27.5499 2.91405 27.2496C3.05998 26.9495 3.24524 26.7239 3.46949 26.5708C3.69375 26.4178 3.94268 26.3138 4.21645 26.2589C4.49006 26.202 4.91388 26.1745 5.48792 26.1745H9.24097V27.7873H5.86239C5.19177 27.7873 4.76581 27.8186 4.58466 27.8795C4.40368 27.9423 4.25956 28.0521 4.15475 28.2091C4.04764 28.366 3.99417 28.5622 3.99417 28.7996C3.99417 29.0704 4.06212 29.3117 4.2 29.5255C4.33573 29.7393 4.54156 29.8943 4.81714 29.9924C5.09092 30.0925 5.49829 30.1416 6.03531 30.1416H9.24097V31.7543H0.401542L0.401707 30.1416Z" fill="#272727"/>
<path d="M1.96933 24.5401H0.401542V22.9275H1.96933V24.5401ZM9.24113 24.5401H2.83376V22.9275H9.24113V24.5401Z" fill="#272727"/>
<path d="M9.24086 19.59L2.83349 22.0523V20.3572L6.10299 19.2075L7.19545 18.874C6.91773 18.7857 6.73461 18.7287 6.64609 18.7072C6.46511 18.6523 6.28397 18.5954 6.10299 18.5326L2.83349 17.3672V15.7074L9.24086 18.1343V19.59Z" fill="#272727"/>
<path d="M4.80894 13.5218L4.53747 14.9815C3.91193 14.8167 3.44895 14.5322 3.14852 14.1301C2.84809 13.7278 2.69788 13.1295 2.69788 12.3368C2.69788 11.6168 2.78639 11.0792 2.9654 10.7261C3.14441 10.375 3.3708 10.1257 3.64655 9.98245C3.92213 9.83922 4.42624 9.76674 5.16284 9.76674L7.13816 9.79027C7.69986 9.79027 8.11545 9.7647 8.38298 9.71371C8.6505 9.66273 8.93645 9.56656 9.24099 9.42536V11.0262C9.12993 11.0674 8.96524 11.1205 8.74724 11.1812C8.64639 11.2068 8.58057 11.2264 8.54964 11.2381C8.83362 11.5128 9.04751 11.8071 9.18949 12.1211C9.33148 12.435 9.4014 12.7685 9.4014 13.1235C9.4014 13.7495 9.2224 14.2438 8.86438 14.6048C8.50851 14.9658 8.05589 15.1464 7.50851 15.1464C7.14852 15.1464 6.82539 15.0638 6.54142 14.8991C6.25958 14.7344 6.04142 14.5047 5.89137 14.2065C5.74115 13.9103 5.60936 13.4826 5.49617 12.9235C5.34809 12.17 5.21022 11.6462 5.08057 11.3558H4.90979C4.58057 11.3558 4.34612 11.4323 4.20413 11.5855C4.06412 11.7405 3.99419 12.0307 3.99419 12.4565C3.99419 12.745 4.05392 12.9685 4.17534 13.1295C4.29462 13.2923 4.50653 13.4218 4.80894 13.5218ZM6.17929 11.3558C6.25135 11.5619 6.33773 11.8895 6.43859 12.3388C6.53944 12.7861 6.63816 13.0804 6.73276 13.2178C6.8912 13.4277 7.0888 13.5336 7.3295 13.5336C7.56823 13.5336 7.77192 13.4492 7.94467 13.2806C8.11759 13.1118 8.20397 12.8979 8.20397 12.637C8.20397 12.3467 8.10311 12.068 7.90354 11.8032C7.74922 11.609 7.56412 11.4794 7.34184 11.4187C7.19788 11.3774 6.92213 11.3558 6.51674 11.3558H6.17929Z" fill="#272727"/>
<path d="M9.24086 8.95828L5.9406 6.75708L2.83349 8.86431V6.89451L4.59476 5.81548L2.83349 4.66946V2.7781L5.86853 4.84815L9.24086 2.58984V4.55776L7.25534 5.81548L9.24086 7.06724V8.95828Z" fill="#272727"/>
</g>
<path d="M85.7004 48.9246C86.4987 48.9246 87.1869 49.0897 87.765 49.4201C88.3431 49.7412 88.8248 50.2184 89.2102 50.8515L88.288 51.5673C87.9485 50.98 87.5631 50.5671 87.1319 50.3285C86.7098 50.0808 86.1959 49.9569 85.5903 49.9569C85.104 49.9569 84.7002 50.0257 84.379 50.1633C84.0671 50.301 83.8377 50.4845 83.6908 50.7139C83.544 50.9341 83.4706 51.1865 83.4706 51.4709C83.4706 51.7921 83.5716 52.0765 83.7734 52.3243C83.9753 52.5629 84.379 52.751 84.9847 52.8886L86.9529 53.3291C87.8246 53.5218 88.4303 53.8154 88.7698 54.21C89.1185 54.5954 89.2928 55.0771 89.2928 55.6552C89.2928 56.1691 89.146 56.6279 88.8524 57.0316C88.5679 57.4262 88.1642 57.7336 87.6411 57.9538C87.1181 58.174 86.5033 58.2841 85.7967 58.2841C85.1361 58.2841 84.5534 58.197 84.0487 58.0226C83.5532 57.8391 83.1265 57.5959 82.7687 57.2931C82.4108 56.9903 82.1172 56.6508 81.8878 56.2746L82.8512 55.49C83.0256 55.8387 83.2504 56.1461 83.5257 56.4122C83.801 56.6783 84.1313 56.8848 84.5167 57.0316C84.9113 57.1784 85.3609 57.2518 85.8656 57.2518C86.3335 57.2518 86.7373 57.1968 87.0768 57.0867C87.4255 56.9674 87.6916 56.7976 87.8751 56.5774C88.0586 56.348 88.1504 56.0727 88.1504 55.7515C88.1504 55.4579 88.054 55.1964 87.8613 54.967C87.6687 54.7284 87.3062 54.5495 86.774 54.4302L84.6406 53.9485C84.0808 53.82 83.6266 53.6456 83.2779 53.4254C82.9384 53.196 82.6907 52.9299 82.5347 52.6271C82.3878 52.3151 82.3144 51.9802 82.3144 51.6223C82.3144 51.136 82.4475 50.691 82.7136 50.2872C82.9889 49.8743 83.3789 49.544 83.8835 49.2962C84.3974 49.0485 85.003 48.9246 85.7004 48.9246ZM91.8769 49.9431C91.6291 49.9431 91.4273 49.8697 91.2713 49.7229C91.1245 49.5669 91.0511 49.365 91.0511 49.1173C91.0511 48.8695 91.1245 48.6722 91.2713 48.5254C91.4273 48.3694 91.6291 48.2914 91.8769 48.2914C92.1247 48.2914 92.3219 48.3694 92.4688 48.5254C92.6247 48.6722 92.7027 48.8695 92.7027 49.1173C92.7027 49.365 92.6247 49.5669 92.4688 49.7229C92.3219 49.8697 92.1247 49.9431 91.8769 49.9431ZM92.4275 51.2645V58.1465H91.3263V51.2645H92.4275ZM94.9824 58.1465V51.2645H95.9459L96.0147 52.3381C96.2625 51.916 96.5836 51.6086 96.9782 51.4159C97.3819 51.2232 97.7949 51.1268 98.217 51.1268C98.7033 51.1268 99.1621 51.2369 99.5934 51.4572C100.025 51.6774 100.355 52.0169 100.584 52.4757C100.731 52.1637 100.938 51.9114 101.204 51.7187C101.47 51.5168 101.759 51.37 102.071 51.2782C102.392 51.1773 102.695 51.1268 102.979 51.1268C103.42 51.1268 103.837 51.2186 104.232 51.4021C104.636 51.5856 104.966 51.8701 105.223 52.2555C105.48 52.6409 105.608 53.1364 105.608 53.742V58.1465H104.507V53.8521C104.507 53.2281 104.351 52.7785 104.039 52.5032C103.727 52.2279 103.342 52.0903 102.883 52.0903C102.525 52.0903 102.19 52.1775 101.878 52.3518C101.566 52.5262 101.314 52.7831 101.121 53.1226C100.938 53.4621 100.846 53.8796 100.846 54.3751V58.1465H99.7448V53.8521C99.7448 53.2281 99.5888 52.7785 99.2768 52.5032C98.9648 52.2279 98.5794 52.0903 98.1206 52.0903C97.8178 52.0903 97.5058 52.1729 97.1847 52.3381C96.8727 52.4941 96.6112 52.7464 96.4001 53.0951C96.1891 53.4438 96.0835 53.9026 96.0835 54.4715V58.1465H94.9824ZM108.101 61.0369V51.2645H109.065L109.161 52.9437L109.01 52.751C109.129 52.4298 109.308 52.1499 109.546 51.9114C109.785 51.6636 110.074 51.4709 110.414 51.3333C110.753 51.1956 111.12 51.1268 111.515 51.1268C112.074 51.1268 112.588 51.2691 113.056 51.5535C113.533 51.838 113.914 52.2463 114.199 52.7785C114.483 53.3107 114.625 53.953 114.625 54.7055C114.625 55.4487 114.479 56.0911 114.185 56.6324C113.901 57.1646 113.52 57.573 113.043 57.8574C112.565 58.1419 112.042 58.2841 111.473 58.2841C110.905 58.2841 110.404 58.1465 109.973 57.8712C109.551 57.5867 109.248 57.2289 109.065 56.7976L109.202 56.5911V61.0369H108.101ZM111.363 57.3206C112.042 57.3206 112.57 57.0821 112.946 56.6049C113.332 56.1278 113.524 55.4946 113.524 54.7055C113.524 53.9163 113.336 53.2832 112.96 52.806C112.593 52.3289 112.074 52.0903 111.405 52.0903C110.964 52.0903 110.579 52.2004 110.248 52.4206C109.918 52.6317 109.661 52.9345 109.478 53.3291C109.294 53.7145 109.202 54.1733 109.202 54.7055C109.202 55.2285 109.29 55.6873 109.464 56.0819C109.647 56.4764 109.9 56.7838 110.221 57.0041C110.551 57.2151 110.932 57.3206 111.363 57.3206ZM117.777 48.0987V56.3985C117.777 56.7471 117.841 56.9903 117.969 57.1279C118.098 57.2564 118.304 57.3206 118.589 57.3206C118.772 57.3206 118.924 57.3069 119.043 57.2793C119.162 57.2518 119.323 57.2014 119.525 57.1279L119.346 58.0914C119.199 58.1557 119.038 58.2015 118.864 58.2291C118.69 58.2658 118.511 58.2841 118.327 58.2841C117.768 58.2841 117.35 58.1327 117.075 57.8299C116.809 57.5271 116.676 57.0637 116.676 56.4397V48.0987H117.777ZM121.488 49.9431C121.241 49.9431 121.039 49.8697 120.883 49.7229C120.736 49.5669 120.663 49.365 120.663 49.1173C120.663 48.8695 120.736 48.6722 120.883 48.5254C121.039 48.3694 121.241 48.2914 121.488 48.2914C121.736 48.2914 121.933 48.3694 122.08 48.5254C122.236 48.6722 122.314 48.8695 122.314 49.1173C122.314 49.365 122.236 49.5669 122.08 49.7229C121.933 49.8697 121.736 49.9431 121.488 49.9431ZM122.039 51.2645V58.1465H120.938V51.2645H122.039ZM127.388 48.0299C127.627 48.0299 127.851 48.0574 128.062 48.1125C128.274 48.1676 128.439 48.2455 128.558 48.3465L128.269 49.2411C128.159 49.1677 128.04 49.1173 127.911 49.0897C127.783 49.053 127.64 49.0347 127.484 49.0347C127.09 49.0347 126.782 49.131 126.562 49.3237C126.342 49.5073 126.232 49.8055 126.232 50.2184V51.2645V51.6223V58.1465H125.131V50.1083C125.131 49.8055 125.177 49.5256 125.268 49.2687C125.36 49.0117 125.498 48.7915 125.681 48.608C125.874 48.4245 126.113 48.2823 126.397 48.1813C126.681 48.0804 127.012 48.0299 127.388 48.0299ZM128.53 51.2645V52.2142H123.754V51.2645H128.53ZM130.554 49.9431C130.306 49.9431 130.104 49.8697 129.948 49.7229C129.801 49.5669 129.728 49.365 129.728 49.1173C129.728 48.8695 129.801 48.6722 129.948 48.5254C130.104 48.3694 130.306 48.2914 130.554 48.2914C130.802 48.2914 130.999 48.3694 131.146 48.5254C131.302 48.6722 131.38 48.8695 131.38 49.1173C131.38 49.365 131.302 49.5669 131.146 49.7229C130.999 49.8697 130.802 49.9431 130.554 49.9431ZM131.104 51.2645V58.1465H130.003V51.2645H131.104ZM136.544 58.2841C135.892 58.2841 135.309 58.1419 134.796 57.8574C134.291 57.573 133.896 57.1646 133.612 56.6324C133.327 56.0911 133.185 55.4487 133.185 54.7055C133.185 53.9622 133.327 53.3245 133.612 52.7923C133.896 52.2509 134.286 51.838 134.782 51.5535C135.277 51.2691 135.842 51.1268 136.475 51.1268C137.117 51.1268 137.663 51.2645 138.113 51.5397C138.571 51.815 138.92 52.1912 139.159 52.6684C139.397 53.1364 139.517 53.664 139.517 54.2513C139.517 54.4073 139.512 54.5495 139.503 54.6779C139.494 54.8064 139.48 54.9211 139.462 55.022H133.901V54.0448H138.98L138.415 54.1549C138.415 53.4942 138.232 52.985 137.865 52.6271C137.507 52.2692 137.034 52.0903 136.447 52.0903C135.998 52.0903 135.608 52.1958 135.277 52.4069C134.956 52.6088 134.704 52.907 134.52 53.3015C134.346 53.6869 134.259 54.1549 134.259 54.7055C134.259 55.2469 134.351 55.7148 134.534 56.1094C134.718 56.504 134.974 56.8068 135.305 57.0178C135.644 57.2197 136.048 57.3206 136.516 57.3206C137.021 57.3206 137.429 57.2243 137.741 57.0316C138.062 56.8389 138.319 56.5774 138.512 56.247L139.379 56.7563C139.205 57.0683 138.98 57.339 138.705 57.5684C138.438 57.7978 138.122 57.9767 137.755 58.1052C137.397 58.2245 136.993 58.2841 136.544 58.2841ZM144.088 58.2841C143.418 58.2841 142.799 58.1419 142.23 57.8574C141.67 57.573 141.239 57.1692 140.936 56.6462L141.872 55.9718C142.074 56.3939 142.368 56.7242 142.753 56.9628C143.148 57.2014 143.62 57.3206 144.171 57.3206C144.657 57.3206 145.038 57.2289 145.313 57.0454C145.589 56.8527 145.726 56.6049 145.726 56.3021C145.726 56.1094 145.662 55.9351 145.534 55.7791C145.414 55.6139 145.18 55.4946 144.832 55.4212L143.18 55.0771C142.51 54.9395 142.028 54.7101 141.735 54.3889C141.45 54.0677 141.308 53.6686 141.308 53.1914C141.308 52.8152 141.414 52.4711 141.625 52.1591C141.845 51.8471 142.152 51.5994 142.547 51.4159C142.95 51.2232 143.423 51.1268 143.964 51.1268C144.643 51.1268 145.217 51.2599 145.685 51.526C146.153 51.7921 146.502 52.1683 146.731 52.6546L145.809 53.2602C145.653 52.8565 145.4 52.5629 145.052 52.3794C144.703 52.1867 144.341 52.0903 143.964 52.0903C143.634 52.0903 143.35 52.1362 143.111 52.2279C142.882 52.3197 142.703 52.4482 142.574 52.6133C142.455 52.7693 142.395 52.9483 142.395 53.1501C142.395 53.352 142.464 53.5401 142.602 53.7145C142.739 53.8796 142.996 53.9989 143.373 54.0723L145.093 54.4302C145.735 54.5587 146.185 54.7697 146.442 55.0633C146.699 55.357 146.827 55.7148 146.827 56.1369C146.827 56.5682 146.713 56.949 146.483 57.2793C146.254 57.6005 145.933 57.8483 145.52 58.0226C145.107 58.197 144.63 58.2841 144.088 58.2841ZM153.767 58.1465V49.0622H160.139V50.0945H154.868V53.0263H158.97V54.0586H154.868V57.1142H160.346V58.1465H153.767ZM162.338 58.1465V51.2645H163.301L163.37 52.3381C163.618 51.916 163.939 51.6086 164.333 51.4159C164.737 51.2232 165.15 51.1268 165.572 51.1268C166.058 51.1268 166.517 51.2369 166.948 51.4572C167.38 51.6774 167.71 52.0169 167.939 52.4757C168.086 52.1637 168.293 51.9114 168.559 51.7187C168.825 51.5168 169.114 51.37 169.426 51.2782C169.747 51.1773 170.05 51.1268 170.334 51.1268C170.775 51.1268 171.192 51.2186 171.587 51.4021C171.991 51.5856 172.321 51.8701 172.578 52.2555C172.835 52.6409 172.963 53.1364 172.963 53.742V58.1465H171.862V53.8521C171.862 53.2281 171.706 52.7785 171.394 52.5032C171.082 52.2279 170.697 52.0903 170.238 52.0903C169.88 52.0903 169.545 52.1775 169.233 52.3518C168.921 52.5262 168.669 52.7831 168.476 53.1226C168.293 53.4621 168.201 53.8796 168.201 54.3751V58.1465H167.1V53.8521C167.1 53.2281 166.944 52.7785 166.632 52.5032C166.32 52.2279 165.935 52.0903 165.476 52.0903C165.173 52.0903 164.861 52.1729 164.54 52.3381C164.228 52.4941 163.966 52.7464 163.755 53.0951C163.544 53.4438 163.439 53.9026 163.439 54.4715V58.1465H162.338ZM178.333 58.2841C177.682 58.2841 177.099 58.1419 176.585 57.8574C176.08 57.573 175.686 57.1646 175.401 56.6324C175.117 56.0911 174.975 55.4487 174.975 54.7055C174.975 53.9622 175.117 53.3245 175.401 52.7923C175.686 52.2509 176.076 51.838 176.571 51.5535C177.067 51.2691 177.631 51.1268 178.264 51.1268C178.907 51.1268 179.453 51.2645 179.902 51.5397C180.361 51.815 180.71 52.1912 180.948 52.6684C181.187 53.1364 181.306 53.664 181.306 54.2513C181.306 54.4073 181.301 54.5495 181.292 54.6779C181.283 54.8064 181.269 54.9211 181.251 55.022H175.69V54.0448H180.769L180.205 54.1549C180.205 53.4942 180.021 52.985 179.654 52.6271C179.297 52.2692 178.824 52.0903 178.237 52.0903C177.787 52.0903 177.397 52.1958 177.067 52.4069C176.746 52.6088 176.493 52.907 176.31 53.3015C176.135 53.6869 176.048 54.1549 176.048 54.7055C176.048 55.2469 176.14 55.7148 176.323 56.1094C176.507 56.504 176.764 56.8068 177.094 57.0178C177.434 57.2197 177.838 57.3206 178.306 57.3206C178.81 57.3206 179.219 57.2243 179.531 57.0316C179.852 56.8389 180.109 56.5774 180.301 56.247L181.168 56.7563C180.994 57.0683 180.769 57.339 180.494 57.5684C180.228 57.7978 179.911 57.9767 179.544 58.1052C179.186 58.2245 178.783 58.2841 178.333 58.2841ZM183.4 58.1465V51.2645H184.295L184.446 52.3931C184.639 51.971 184.919 51.6544 185.286 51.4434C185.662 51.2323 186.116 51.1268 186.649 51.1268C186.768 51.1268 186.896 51.136 187.034 51.1544C187.181 51.1727 187.305 51.2094 187.406 51.2645L187.213 52.2692C187.112 52.2325 187.002 52.205 186.883 52.1867C186.763 52.1683 186.594 52.1591 186.373 52.1591C186.089 52.1591 185.8 52.2417 185.506 52.4069C185.222 52.572 184.983 52.8244 184.79 53.1639C184.598 53.4942 184.501 53.9163 184.501 54.4302V58.1465H183.4ZM194.464 49.9982L194.712 50.9754C194.703 50.9754 194.689 50.9754 194.67 50.9754C194.652 50.9754 194.634 50.9754 194.615 50.9754C194.166 50.9754 193.817 51.0672 193.569 51.2507C193.331 51.425 193.211 51.7095 193.211 52.1041L192.537 51.76C192.537 51.4021 192.62 51.0901 192.785 50.824C192.95 50.5579 193.175 50.356 193.459 50.2184C193.744 50.0716 194.056 49.9982 194.395 49.9982C194.404 49.9982 194.414 49.9982 194.423 49.9982C194.441 49.9982 194.455 49.9982 194.464 49.9982ZM192.372 57.2656C193.023 57.2656 193.533 57.417 193.9 57.7198C194.267 58.0134 194.45 58.408 194.45 58.9035C194.45 59.3531 194.299 59.7431 193.996 60.0735C193.702 60.4038 193.303 60.6561 192.799 60.8305C192.303 61.014 191.743 61.1058 191.119 61.1058C190.037 61.1058 189.224 60.9222 188.683 60.5552C188.151 60.1882 187.885 59.7477 187.885 59.2338C187.885 58.8668 188.004 58.5365 188.243 58.2428C188.49 57.9584 188.903 57.7978 189.481 57.7611L189.385 57.9676C189.073 57.885 188.807 57.7473 188.587 57.5546C188.376 57.3528 188.27 57.0637 188.27 56.6875C188.27 56.3113 188.408 55.9901 188.683 55.724C188.968 55.4487 189.385 55.279 189.936 55.2147L190.665 55.5864H190.527C190.078 55.6323 189.757 55.747 189.564 55.9305C189.38 56.1048 189.289 56.2975 189.289 56.5086C189.289 56.7655 189.38 56.9582 189.564 57.0867C189.757 57.2059 190.023 57.2656 190.362 57.2656H192.372ZM191.106 60.1836C191.638 60.1836 192.074 60.1285 192.413 60.0184C192.762 59.9083 193.019 59.7661 193.184 59.5917C193.349 59.4174 193.432 59.2293 193.432 59.0274C193.432 58.7796 193.331 58.5823 193.129 58.4355C192.936 58.2887 192.583 58.2153 192.069 58.2153H189.949C189.656 58.2153 189.408 58.2887 189.206 58.4355C189.004 58.5915 188.903 58.8026 188.903 59.0687C188.903 59.4082 189.096 59.6789 189.481 59.8808C189.876 60.0826 190.417 60.1836 191.106 60.1836ZM191.009 51.1268C191.56 51.1268 192.046 51.2278 192.468 51.4296C192.899 51.6223 193.234 51.893 193.473 52.2417C193.712 52.5904 193.831 52.9941 193.831 53.4529C193.831 53.9026 193.712 54.3063 193.473 54.6642C193.234 55.0129 192.899 55.2882 192.468 55.49C192.046 55.6827 191.56 55.7791 191.009 55.7791C190.101 55.7791 189.403 55.5634 188.917 55.1322C188.431 54.6917 188.188 54.132 188.188 53.4529C188.188 52.9941 188.307 52.5904 188.545 52.2417C188.793 51.893 189.128 51.6223 189.55 51.4296C189.972 51.2278 190.459 51.1268 191.009 51.1268ZM191.009 52.0215C190.532 52.0215 190.133 52.1545 189.812 52.4206C189.491 52.6776 189.33 53.0217 189.33 53.4529C189.33 53.875 189.491 54.2191 189.812 54.4852C190.133 54.7514 190.532 54.8844 191.009 54.8844C191.486 54.8844 191.886 54.7514 192.207 54.4852C192.528 54.2191 192.688 53.875 192.688 53.4529C192.688 53.0217 192.528 52.6776 192.207 52.4206C191.886 52.1545 191.486 52.0215 191.009 52.0215ZM198.872 58.2841C198.22 58.2841 197.637 58.1419 197.124 57.8574C196.619 57.573 196.224 57.1646 195.94 56.6324C195.655 56.0911 195.513 55.4487 195.513 54.7055C195.513 53.9622 195.655 53.3245 195.94 52.7923C196.224 52.2509 196.614 51.838 197.11 51.5535C197.605 51.2691 198.17 51.1268 198.803 51.1268C199.445 51.1268 199.991 51.2645 200.441 51.5397C200.899 51.815 201.248 52.1912 201.487 52.6684C201.725 53.1364 201.845 53.664 201.845 54.2513C201.845 54.4073 201.84 54.5495 201.831 54.6779C201.822 54.8064 201.808 54.9211 201.79 55.022H196.229V54.0448H201.308L200.743 54.1549C200.743 53.4942 200.56 52.985 200.193 52.6271C199.835 52.2692 199.362 52.0903 198.775 52.0903C198.326 52.0903 197.936 52.1958 197.605 52.4069C197.284 52.6088 197.032 52.907 196.848 53.3015C196.674 53.6869 196.587 54.1549 196.587 54.7055C196.587 55.2469 196.679 55.7148 196.862 56.1094C197.046 56.504 197.302 56.8068 197.633 57.0178C197.972 57.2197 198.376 57.3206 198.844 57.3206C199.349 57.3206 199.757 57.2243 200.069 57.0316C200.39 56.8389 200.647 56.5774 200.84 56.247L201.707 56.7563C201.533 57.0683 201.308 57.339 201.033 57.5684C200.766 57.7978 200.45 57.9767 200.083 58.1052C199.725 58.2245 199.321 58.2841 198.872 58.2841ZM203.939 58.1465V51.2645H204.902L204.999 52.806L204.82 52.6546C204.967 52.2876 205.164 51.994 205.412 51.7737C205.659 51.5443 205.944 51.3792 206.265 51.2782C206.595 51.1773 206.935 51.1268 207.283 51.1268C207.779 51.1268 208.229 51.2232 208.632 51.4159C209.036 51.5994 209.357 51.8838 209.596 52.2692C209.844 52.6546 209.967 53.1455 209.967 53.742V58.1465H208.866V54.1274C208.866 53.3658 208.701 52.8382 208.371 52.5445C208.05 52.2417 207.65 52.0903 207.173 52.0903C206.843 52.0903 206.513 52.1683 206.182 52.3243C205.852 52.4803 205.577 52.7326 205.356 53.0813C205.145 53.43 205.04 53.898 205.04 54.4852V58.1465H203.939ZM215.31 51.1268C215.787 51.1268 216.204 51.2002 216.562 51.347C216.929 51.4939 217.246 51.7049 217.512 51.9802C217.778 52.2555 217.994 52.5812 218.159 52.9574L217.113 53.4529C216.966 53.0125 216.741 52.6776 216.438 52.4482C216.145 52.2096 215.759 52.0903 215.282 52.0903C214.824 52.0903 214.429 52.1958 214.099 52.4069C213.768 52.6088 213.516 52.907 213.342 53.3015C213.167 53.6869 213.08 54.1549 213.08 54.7055C213.08 55.2469 213.167 55.7148 213.342 56.1094C213.516 56.504 213.768 56.8068 214.099 57.0178C214.429 57.2197 214.824 57.3206 215.282 57.3206C215.64 57.3206 215.948 57.2656 216.204 57.1555C216.471 57.0454 216.686 56.8848 216.851 56.6737C217.026 56.4627 217.145 56.2058 217.209 55.9029L218.228 56.2608C218.072 56.6829 217.856 57.0454 217.581 57.3482C217.315 57.651 216.989 57.885 216.604 58.0501C216.227 58.2061 215.796 58.2841 215.31 58.2841C214.668 58.2841 214.094 58.1419 213.589 57.8574C213.085 57.573 212.69 57.1646 212.406 56.6324C212.121 56.0911 211.979 55.4487 211.979 54.7055C211.979 53.9622 212.121 53.3245 212.406 52.7923C212.69 52.2509 213.085 51.838 213.589 51.5535C214.094 51.2691 214.668 51.1268 215.31 51.1268ZM225.564 51.2645L222.33 59.3027C222.155 59.7523 221.963 60.1056 221.752 60.3625C221.55 60.6286 221.32 60.8167 221.063 60.9268C220.816 61.0461 220.527 61.1058 220.196 61.1058C219.884 61.1058 219.595 61.0599 219.329 60.9681C219.072 60.8855 218.843 60.7708 218.641 60.624L218.944 59.6605C219.127 59.8257 219.32 59.945 219.522 60.0184C219.733 60.101 219.939 60.1423 220.141 60.1423C220.38 60.1423 220.605 60.0689 220.816 59.922C221.027 59.7752 221.219 59.477 221.394 59.0274L221.752 58.1327L221.063 56.4948L218.875 51.2645H220.127L221.848 55.7515L222.275 56.9765L222.77 55.6139L224.381 51.2645H225.564ZM226.533 56.4948C226.799 56.4948 227.015 56.5774 227.18 56.7426C227.345 56.9077 227.428 57.1234 227.428 57.3895C227.428 57.6556 227.345 57.8712 227.18 58.0364C227.015 58.2015 226.799 58.2841 226.533 58.2841C226.267 58.2841 226.052 58.2015 225.886 58.0364C225.721 57.8712 225.639 57.6556 225.639 57.3895C225.639 57.1234 225.721 56.9077 225.886 56.7426C226.052 56.5774 226.267 56.4948 226.533 56.4948ZM230.189 56.4948C230.456 56.4948 230.671 56.5774 230.836 56.7426C231.001 56.9077 231.084 57.1234 231.084 57.3895C231.084 57.6556 231.001 57.8712 230.836 58.0364C230.671 58.2015 230.456 58.2841 230.189 58.2841C229.923 58.2841 229.708 58.2015 229.542 58.0364C229.377 57.8712 229.295 57.6556 229.295 57.3895C229.295 57.1234 229.377 56.9077 229.542 56.7426C229.708 56.5774 229.923 56.4948 230.189 56.4948ZM233.845 56.4948C234.112 56.4948 234.327 56.5774 234.492 56.7426C234.658 56.9077 234.74 57.1234 234.74 57.3895C234.74 57.6556 234.658 57.8712 234.492 58.0364C234.327 58.2015 234.112 58.2841 233.845 58.2841C233.579 58.2841 233.364 58.2015 233.199 58.0364C233.033 57.8712 232.951 57.6556 232.951 57.3895C232.951 57.1234 233.033 56.9077 233.199 56.7426C233.364 56.5774 233.579 56.4948 233.845 56.4948Z" fill="#272727"/>
<defs>
<clipPath id="clip0_1952_5680">
<rect width="235.518" height="42.0568" fill="white" transform="translate(0.241211 0.795898)"/>
</clipPath>
</defs>
</svg>
