<svg width="17" height="18" viewBox="0 0 17 18" fill="none" xmlns="http://www.w3.org/2000/svg">
<g clip-path="url(#clip0_419_9039)">
<path d="M15.5 7.50586H9.98828V1.99414C9.98828 1.16894 9.31934 0.5 8.49414 0.5C7.66894 0.5 7 1.16894 7 1.99414V7.50586H1.48828C0.663084 7.50586 -0.00585938 8.1748 -0.00585938 9C-0.00585938 9.8252 0.663084 10.4941 1.48828 10.4941H7V16.0059C7 16.8311 7.66894 17.5 8.49414 17.5C9.31934 17.5 9.98828 16.8311 9.98828 16.0059V10.4941H15.5C16.3252 10.4941 16.9941 9.8252 16.9941 9C16.9941 8.1748 16.3252 7.50586 15.5 7.50586Z" fill="white"/>
</g>
<defs>
<clipPath id="clip0_419_9039">
<rect width="17" height="17" fill="white" transform="translate(-0.00585938 0.5)"/>
</clipPath>
</defs>
</svg>
