<svg width="21" height="21" viewBox="0 0 21 21" fill="none" xmlns="http://www.w3.org/2000/svg">
<g clip-path="url(#clip0_432_353)">
<path d="M8.78127 4.81871L8.66213 6.32976C8.64611 6.53304 8.7369 6.73 8.90186 6.84984C9.06686 6.96968 9.28221 6.99515 9.47057 6.9171L10.8708 6.33683L12.2712 6.91707C12.4586 6.99484 12.6745 6.97 12.8399 6.8498C13.0048 6.72996 13.0956 6.53296 13.0796 6.32972L12.9605 4.81867L13.945 3.66621C14.0775 3.51121 14.1198 3.29847 14.0568 3.10457C13.9938 2.91066 13.8345 2.76343 13.6362 2.71585L12.1623 2.36222L11.3705 1.06972C11.264 0.895894 11.0747 0.789917 10.8708 0.789917C10.6669 0.789917 10.4777 0.895894 10.3712 1.06976L9.5794 2.36226L8.10549 2.71589C7.90721 2.76347 7.74795 2.91066 7.68494 3.1046C7.62193 3.29851 7.66424 3.51125 7.7967 3.66625L8.78127 4.81871ZM10.0889 3.44511C10.2401 3.40886 10.3706 3.31398 10.4518 3.18144L10.8708 2.4975L11.2899 3.18144C11.3711 3.31398 11.5016 3.40886 11.6528 3.44511L12.4327 3.63226L11.9117 4.2421C11.8108 4.36031 11.7609 4.51378 11.7731 4.66875L11.8362 5.46832L11.0952 5.16128C10.9515 5.10179 10.7902 5.10179 10.6466 5.16128L9.90561 5.46832L9.96865 4.66875C9.98088 4.51375 9.931 4.36031 9.83002 4.2421L9.30904 3.63226L10.0889 3.44511Z" fill="white"/>
<path d="M20.8419 5.40923C20.7788 5.21532 20.6196 5.0681 20.4213 5.02052L18.9474 4.66689L18.1556 3.37439C18.0491 3.20052 17.8599 3.09454 17.656 3.09454C17.4521 3.09454 17.2629 3.20052 17.1563 3.37439L16.3646 4.66689L14.8906 5.02052C14.6924 5.0681 14.5331 5.21529 14.4701 5.40923C14.4071 5.60314 14.4494 5.81587 14.5819 5.97087L15.5664 7.12333L15.4473 8.63439C15.4313 8.83767 15.5221 9.03462 15.687 9.15447C15.852 9.27431 16.0674 9.29982 16.2557 9.22173L17.656 8.6415L19.0563 9.22173C19.2437 9.2995 19.4597 9.27466 19.625 9.15447C19.79 9.03462 19.8808 8.83767 19.8647 8.63439L19.7456 7.12333L20.7302 5.97087C20.8626 5.81587 20.9049 5.60314 20.8419 5.40923ZM18.6969 6.54673C18.5959 6.6649 18.546 6.81841 18.5582 6.97337L18.6213 7.77298L17.8803 7.46595C17.7367 7.40646 17.5753 7.40646 17.4317 7.46595L16.6907 7.77298L16.7537 6.97341C16.766 6.81841 16.7161 6.66493 16.6151 6.54673L16.0941 5.93689L16.874 5.74978C17.0252 5.71353 17.1558 5.61864 17.237 5.48611L17.656 4.80216L18.075 5.48611C18.1562 5.61868 18.2867 5.71353 18.4379 5.74978L19.2179 5.93693L18.6969 6.54673Z" fill="white"/>
<path d="M6.05467 9.15447C6.21963 9.03462 6.31041 8.83763 6.2944 8.63439L6.17525 7.12333L7.15983 5.97087C7.29229 5.81587 7.33459 5.60314 7.27158 5.40923C7.20858 5.21532 7.04932 5.0681 6.85104 5.02052L5.37713 4.66689L4.58533 3.37439C4.47881 3.20052 4.28959 3.09454 4.08568 3.09454C3.88178 3.09454 3.69256 3.20052 3.58604 3.37439L2.79424 4.66689L1.32033 5.02052C1.12205 5.0681 0.962794 5.21529 0.899786 5.40923C0.836778 5.60314 0.879083 5.81587 1.01154 5.97087L1.99611 7.12333L1.87697 8.63439C1.86096 8.83767 1.95174 9.03462 2.1167 9.15447C2.28205 9.27466 2.49799 9.2995 2.68541 9.22173L4.08568 8.6415L5.486 9.22173C5.67432 9.29978 5.88975 9.27435 6.05467 9.15447ZM4.98791 6.97341L5.05096 7.77298L4.30994 7.46595C4.16631 7.40646 4.00494 7.40646 3.86135 7.46595L3.12037 7.77298L3.18342 6.97337C3.19565 6.81841 3.14576 6.66493 3.04479 6.54673L2.52381 5.93693L3.30377 5.74978C3.45494 5.71353 3.58549 5.61864 3.6667 5.48611L4.08568 4.80216L4.50471 5.48611C4.58592 5.61864 4.71647 5.71353 4.86764 5.74978L5.6476 5.93689L5.12658 6.54673C5.02557 6.66493 4.97568 6.81841 4.98791 6.97341Z" fill="white"/>
<path d="M17.5506 13.5782C17.1673 13.1219 16.6057 12.8603 16.0098 12.8603H13.8279L14.2095 11.6721C14.2828 11.4487 14.32 11.2168 14.32 10.9829C14.32 10.022 13.7059 9.17608 12.7923 8.87795C12.111 8.65506 11.3754 9.02803 11.1518 9.71147L10.2625 12.4656C10.1551 12.7948 9.89613 13.0612 9.57 13.1782L8.56641 13.5377V13.1728C8.56641 12.8492 8.30406 12.5868 7.98047 12.5868H5.01172C4.68812 12.5868 4.42578 12.8492 4.42578 13.1728V20.204C4.42578 20.5276 4.68812 20.7899 5.01172 20.7899H7.98047C8.30406 20.7899 8.56641 20.5276 8.56641 20.204V19.6538C8.86719 19.6789 9.14664 19.8078 9.36219 20.0233C9.8134 20.4794 10.4533 20.7443 11.0957 20.7415H14.9898C16.1705 20.7415 17.175 19.8973 17.3784 18.7341L17.992 15.2191C18.0947 14.6324 17.9338 14.0343 17.5506 13.5782ZM7.39453 19.6181H5.59766V13.7587H7.39453V19.6181ZM16.8377 15.0173L16.224 18.5324C16.1189 19.1334 15.5999 19.5696 14.9899 19.5696H11.0957C10.7602 19.5709 10.427 19.4333 10.1913 19.1951C9.75391 18.7578 9.18039 18.5063 8.56641 18.4797V14.7825L9.96535 14.2814C10.63 14.043 11.1576 13.5001 11.3771 12.8274L12.2663 10.0737C12.2882 10.0065 12.3607 9.96983 12.4284 9.9919C12.9712 10.161 13.2801 10.7725 13.0948 11.3104L12.4663 13.267C12.3386 13.6305 12.6391 14.0426 13.0242 14.0321H16.0097C16.5165 14.0198 16.9372 14.5201 16.8377 15.0173Z" fill="white"/>
</g>
<defs>
<clipPath id="clip0_432_353">
<rect width="20" height="20" fill="white" transform="translate(0.871094 0.789917)"/>
</clipPath>
</defs>
</svg>
