<svg width="35" height="35" viewBox="0 0 35 35" fill="none" xmlns="http://www.w3.org/2000/svg">
<g clip-path="url(#clip0_2422_15725)">
<path d="M13.0234 10.5912C11.8926 10.5912 10.9727 11.5111 10.9727 12.642C10.9727 13.7728 11.8926 14.6928 13.0234 14.6928C14.154 14.6928 15.074 13.7728 15.074 12.642C15.074 11.5111 14.154 10.5912 13.0234 10.5912ZM13.0234 13.3256C12.6464 13.3256 12.3398 13.0187 12.3398 12.642C12.3398 12.2649 12.6464 11.9584 13.0234 11.9584C13.4002 11.9584 13.7068 12.2649 13.7068 12.642C13.7068 13.0187 13.4002 13.3256 13.0234 13.3256Z" fill="#724693"/>
<path d="M21.8396 7.85681C20.709 7.85681 19.7891 8.77673 19.7891 9.90759C19.7891 11.0385 20.709 11.9584 21.8396 11.9584C22.9704 11.9584 23.8904 11.0385 23.8904 9.90759C23.8904 8.77673 22.9704 7.85681 21.8396 7.85681ZM21.8396 10.5912C21.4628 10.5912 21.156 10.2844 21.156 9.90759C21.156 9.53055 21.4628 9.224 21.8396 9.224C22.2166 9.224 22.5232 9.53055 22.5232 9.90759C22.5232 10.2844 22.2166 10.5912 21.8396 10.5912Z" fill="#724693"/>
<path d="M34.3828 22.0272L25.3976 6.30455C24.6582 5.0108 23.327 4.23828 21.8368 4.23828C20.3467 4.23828 19.0156 5.0108 18.2759 6.30455L16.6484 9.15295L16.5832 9.03893C15.8438 7.74517 14.5127 6.97266 13.0227 6.97266C11.5324 6.97266 10.2012 7.74517 9.46184 9.03893L0.476584 24.7616C-0.257212 26.0457 -0.252405 27.5761 0.489935 28.8551C1.23228 30.1345 2.55834 30.8982 4.03715 30.8982H22.0077C23.4867 30.8982 24.8128 30.1345 25.5551 28.8551C25.6849 28.6316 25.7917 28.4001 25.8764 28.1638H30.822C32.3011 28.1638 33.6272 27.4001 34.3695 26.1208C35.1116 24.8417 35.1166 23.3114 34.3828 22.0272ZM22.0077 29.531H4.03715C3.05128 29.531 2.16714 29.022 1.67234 28.1691C1.17753 27.3163 1.17406 26.2959 1.66353 25.4398L10.6488 9.71745C11.1417 8.85468 12.0291 8.33985 13.0227 8.33985C14.016 8.33985 14.9034 8.85468 15.3963 9.71745C15.3963 9.71745 24.4678 25.6046 24.4739 25.6166C25.3701 27.3961 23.9543 29.531 22.0077 29.531ZM33.1871 25.4348C32.6923 26.2877 31.8082 26.7966 30.822 26.7966H26.1154C26.1151 26.1918 25.9784 25.5867 25.7052 25.0211L26.9466 23.7795C27.0759 23.6502 27.1469 23.4785 27.1469 23.2961C27.1469 23.113 27.0759 22.9413 26.9466 22.812C26.8174 22.683 26.646 22.6117 26.4633 22.6117C26.2809 22.6117 26.1092 22.683 25.9802 22.812L25.0096 23.7832L17.4356 10.5306L19.4631 6.98307C19.9561 6.1203 20.8434 5.60547 21.8368 5.60547C22.8304 5.60547 23.7177 6.1203 24.2106 6.98307L33.1959 22.7055C33.6851 23.5616 33.6819 24.5819 33.1871 25.4348Z" fill="#724693"/>
<path d="M30.5182 22.3877C30.3355 22.3877 30.1641 22.4587 30.0348 22.588L28.36 24.2628C28.0935 24.5293 28.0935 24.9627 28.36 25.2294C28.4893 25.3584 28.661 25.4297 28.8433 25.4297C29.0257 25.4297 29.1974 25.3584 29.3267 25.2294L31.0012 23.5546C31.268 23.2878 31.268 22.8545 31.0012 22.588C30.8722 22.4587 30.7005 22.3877 30.5182 22.3877Z" fill="#724693"/>
<path d="M28.8814 21.8456C29.1479 21.5789 29.1479 21.1455 28.8814 20.879C28.7521 20.7497 28.5807 20.6787 28.398 20.6787C28.2157 20.6787 28.0432 20.7497 27.9147 20.879C27.6482 21.1455 27.6482 21.5789 27.9147 21.8456C28.0434 21.9746 28.2157 22.0459 28.398 22.0459C28.5807 22.0459 28.7521 21.9746 28.8814 21.8456Z" fill="#724693"/>
<path d="M7.86147 26.7969H5.13564C5.00025 26.7955 4.89291 26.7504 4.79918 26.6559C4.71373 26.5678 4.66326 26.4441 4.66406 26.3258C4.6646 26.2439 4.68516 26.1707 4.72762 26.0949L5.70574 24.3837C5.796 24.2251 5.81976 24.0406 5.77197 23.8641C5.72337 23.6884 5.61015 23.5415 5.45126 23.4507C5.34819 23.3917 5.23123 23.3605 5.11294 23.3605C4.86754 23.3605 4.64003 23.4924 4.51907 23.7049L3.54094 25.4161C3.38099 25.6948 3.29688 26.0094 3.29688 26.3258C3.29821 26.8022 3.48086 27.2554 3.81224 27.602C4.1519 27.959 4.63202 28.1641 5.13003 28.1641H7.86147C8.23825 28.1641 8.54506 27.857 8.54506 27.4805C8.54506 27.1037 8.23825 26.7969 7.86147 26.7969Z" fill="#724693"/>
<path d="M6.12934 22.2638C6.23321 22.3228 6.35017 22.3541 6.46846 22.3541C6.71306 22.3541 6.94084 22.2221 7.06233 22.0096C7.24899 21.6822 7.1347 21.2638 6.80812 21.0766C6.70478 21.0176 6.58809 20.9863 6.4698 20.9863C6.2244 20.9863 5.99689 21.1188 5.87512 21.3308C5.78487 21.4894 5.76164 21.6739 5.80943 21.8504C5.85723 22.0259 5.97152 22.173 6.12934 22.2638Z" fill="#724693"/>
<path d="M21.7021 25.1221C21.5195 25.1221 21.3481 25.1931 21.2188 25.3223L19.544 26.9971C19.4148 27.1264 19.3438 27.2978 19.3438 27.4805C19.3438 27.6629 19.415 27.8346 19.544 27.9638C19.6733 28.0928 19.845 28.1641 20.0273 28.1641C20.21 28.1641 20.3814 28.0928 20.5107 27.9638L22.1852 26.289C22.3144 26.1597 22.3855 25.988 22.3855 25.8057C22.3855 25.623 22.3144 25.4516 22.1852 25.3223C22.0562 25.1931 21.8845 25.1221 21.7021 25.1221Z" fill="#724693"/>
<path d="M20.069 24.58C20.3355 24.3132 20.3355 23.8799 20.069 23.6134C19.9398 23.4841 19.7683 23.4131 19.5857 23.4131C19.4033 23.4131 19.2311 23.4841 19.1023 23.6134C18.9734 23.7426 18.9023 23.914 18.9023 24.0967C18.9023 24.2791 18.9734 24.4508 19.1023 24.58C19.2311 24.709 19.4033 24.7803 19.5857 24.7803C19.7683 24.7803 19.9398 24.709 20.069 24.58Z" fill="#724693"/>
<path d="M17.6528 25.3469C17.4702 25.3469 17.2987 25.418 17.1695 25.5472L15.7198 26.9972C15.5906 27.1264 15.5195 27.2978 15.5195 27.4805C15.5195 27.6629 15.5906 27.8346 15.7198 27.9638C15.8488 28.0928 16.0205 28.1641 16.2029 28.1641C16.3855 28.1641 16.5569 28.0928 16.6862 27.9638L18.1359 26.5138C18.2651 26.3846 18.3362 26.2129 18.3362 26.0305C18.3362 25.8479 18.2651 25.6756 18.1359 25.5472C18.0074 25.418 17.8352 25.3469 17.6528 25.3469Z" fill="#724693"/>
</g>
<defs>
<clipPath id="clip0_2422_15725">
<rect width="35" height="35" fill="white"/>
</clipPath>
</defs>
</svg>
