<svg width="51" height="51" viewBox="0 0 51 51" fill="none" xmlns="http://www.w3.org/2000/svg">
<path d="M39.4788 20.4053L36.396 21.6506C35.9991 21.8115 35.5819 21.8928 35.1569 21.8928C34.246 21.8928 33.3647 21.5084 32.7413 20.8381C32.121 20.1725 31.8007 19.2678 31.8647 18.3568L32.0976 15.0412L29.9585 12.4975C29.4835 11.9318 29.246 11.2396 29.2132 10.5303H8.94287C5.271 10.5303 2.271 13.5303 2.271 17.2178V35.8115C2.271 39.499 5.271 42.4834 8.94287 42.4834H14.021L13.9116 45.5928C13.8804 46.8584 14.5522 48.0146 15.6772 48.6084C16.1616 48.8584 16.6772 48.9834 17.2085 48.9834C17.896 48.9834 18.5835 48.749 19.1616 48.3115L26.9116 42.4834H35.8491C39.521 42.4834 42.521 39.499 42.521 35.8115V21.635L39.4788 20.4053ZM23.1726 31.4678H14.971C14.1944 31.4678 13.5647 30.8381 13.5647 30.0615C13.5647 29.285 14.1944 28.6553 14.971 28.6553H23.1726C23.9491 28.6553 24.5788 29.285 24.5788 30.0615C24.5788 30.8381 23.9491 31.4678 23.1726 31.4678ZM30.4429 24.3646H14.9741C14.1976 24.3646 13.5679 23.735 13.5679 22.9584C13.5679 22.1818 14.1976 21.5521 14.9741 21.5521H30.4429C31.2194 21.5521 31.8491 22.1818 31.8491 22.9584C31.8491 23.735 31.2194 24.3646 30.4429 24.3646Z" fill="white"/>
<path d="M40.2915 4.78613L42.5555 8.40957L46.7008 9.44238C47.3883 9.61426 47.6586 10.4455 47.204 10.9893L44.4571 14.2611L44.7555 18.5221C44.8055 19.2283 44.0977 19.7439 43.4399 19.4783L39.479 17.8768L35.518 19.4783C34.8618 19.7439 34.1524 19.2299 34.2024 18.5221L34.5008 14.2611L31.754 10.9893C31.2977 10.4471 31.5696 9.61426 32.2571 9.44238L36.4024 8.40957L38.6665 4.78613C39.0399 4.18457 39.9165 4.18457 40.2915 4.78613Z" fill="white"/>
</svg>
