<svg width="40" height="40" viewBox="0 0 40 40" fill="none" xmlns="http://www.w3.org/2000/svg">
<path d="M6.98225 21.0801C5.31543 21.0801 3.96387 22.4312 3.96387 24.0985C3.96387 24.227 3.97438 24.3535 3.99054 24.4776C4.17768 25.9653 5.44396 27.116 6.98184 27.116C8.56136 27.116 9.85634 25.9019 9.98769 24.3555C9.99456 24.271 10.0002 24.185 10.0002 24.0981C10.0006 22.4312 8.64947 21.0801 6.98225 21.0801ZM5.47144 22.9611L6.08659 23.5767C6.0389 23.6587 6.00131 23.7472 5.97706 23.8418H5.1097C5.15416 23.5136 5.27986 23.2137 5.47144 22.9611ZM5.10566 24.3644H5.97989C6.00455 24.4574 6.04092 24.5455 6.08942 24.6263L5.47265 25.2427C5.28148 24.9921 5.15295 24.6922 5.10566 24.3644ZM6.72115 25.9734C6.39417 25.9278 6.0971 25.7996 5.84571 25.6101L6.45924 24.9961C6.54008 25.0434 6.62859 25.0782 6.72115 25.1024V25.9734ZM6.72115 23.0945C6.62617 23.1195 6.53725 23.1567 6.45439 23.2056L5.83964 22.5909C6.09225 22.3989 6.39215 22.272 6.72115 22.2263V23.0945ZM7.24375 22.2255C7.57275 22.2712 7.87305 22.3989 8.12525 22.5905L7.51091 23.2052C7.42846 23.1563 7.33873 23.1191 7.24415 23.0941L7.24375 22.2255ZM7.24375 25.9726V25.1028C7.33671 25.0782 7.42441 25.0438 7.50525 24.9961L8.11919 25.6101C7.86779 25.7996 7.57032 25.9269 7.24375 25.9726ZM8.49346 25.2455L7.87467 24.6259C7.92317 24.5447 7.96237 24.4578 7.98703 24.3648H8.85439C8.80831 24.6914 8.68504 24.9937 8.49346 25.2455ZM7.98824 23.8418C7.96358 23.7472 7.9264 23.6587 7.87871 23.5767L8.49467 22.9611C8.68504 23.2137 8.81073 23.5136 8.856 23.8422H7.98824V23.8418Z" fill="white"/>
<path d="M32.0447 21.0801C30.3779 21.0801 29.0264 22.4312 29.0264 24.0985C29.0264 24.227 29.0369 24.3535 29.053 24.4776C29.2402 25.9653 30.5065 27.116 32.0439 27.116C33.6235 27.116 34.9184 25.9019 35.0502 24.3555C35.0571 24.271 35.0627 24.185 35.0627 24.0981C35.0635 22.4312 33.712 21.0801 32.0447 21.0801ZM30.5339 22.9611L31.1487 23.5767C31.101 23.6587 31.0634 23.7472 31.0392 23.8418H30.1718C30.2167 23.5136 30.3424 23.2137 30.5339 22.9611ZM30.1686 24.3644H31.0428C31.0675 24.4574 31.1038 24.5455 31.1523 24.6263L30.536 25.2427C30.344 24.9921 30.215 24.6922 30.1686 24.3644ZM31.7836 25.9734C31.4567 25.9278 31.1596 25.7996 30.9082 25.6101L31.5217 24.9961C31.6026 25.0434 31.6911 25.0782 31.7836 25.1024V25.9734ZM31.7836 23.0945C31.6887 23.1195 31.5997 23.1567 31.5169 23.2056L30.9021 22.5909C31.1548 22.3989 31.4542 22.272 31.7836 22.2263V23.0945ZM32.3067 22.2255C32.6357 22.2712 32.936 22.3989 33.1882 22.5905L32.5734 23.2052C32.491 23.1563 32.4012 23.1183 32.3067 23.0941V22.2255ZM32.3067 25.9726V25.1028C32.3996 25.0782 32.4873 25.0438 32.5682 24.9961L33.1821 25.6101C32.9307 25.7996 32.6328 25.9269 32.3067 25.9726ZM33.556 25.2455L32.9372 24.6267C32.9857 24.5451 33.0253 24.4586 33.0495 24.3652H33.9169C33.8708 24.6914 33.7479 24.9937 33.556 25.2455ZM33.0507 23.8418C33.0261 23.7472 32.9893 23.6587 32.9412 23.5767L33.5568 22.9611C33.7475 23.2137 33.8728 23.5136 33.9185 23.8422H33.0507V23.8418Z" fill="white"/>
<path d="M39.2925 19.5178V17.2843C39.2925 16.925 39.0314 16.6206 38.6766 16.5653C37.825 16.4319 36.3154 16.1801 35.6372 15.9711C34.6647 15.6712 30.9075 14.0804 29.6065 13.7817C28.305 13.483 22.4372 11.8881 16.8172 13.8363C15.8661 14.1657 11.5879 16.2108 9.07235 17.2742C8.3315 17.2903 0.998548 18.8189 0.608114 19.8666C0.217681 20.9146 0.0952161 21.423 0.023273 21.689C-0.0486702 21.9549 0.0232729 23.2277 0.568101 24.114C1.12344 24.4281 2.19248 24.6391 3.42845 24.7805C3.4143 24.7049 3.39894 24.6306 3.38924 24.5542C3.36782 24.3909 3.35772 24.2418 3.35772 24.0995C3.35772 22.1008 4.98331 20.4744 6.98236 20.4744C8.98141 20.4744 10.607 22.1004 10.607 24.0995C10.607 24.2021 10.6001 24.304 10.5925 24.4042C10.5735 24.6286 10.533 24.8464 10.4744 25.0562C10.4773 25.0562 10.4841 25.0562 10.4841 25.0562L28.4764 24.694C28.4683 24.6476 28.4578 24.6015 28.4517 24.5542C28.4303 24.3917 28.4202 24.2422 28.4202 24.0995C28.4202 22.1008 30.0458 20.4748 32.0449 20.4748C34.0439 20.4748 35.6699 22.1004 35.6699 24.0995C35.6699 24.1072 35.6691 24.1136 35.6687 24.1209L35.7455 24.1144L38.8217 23.5353C38.8217 23.5353 39.9998 22.908 39.9998 21.1822C40.0002 20.0311 39.2925 19.5178 39.2925 19.5178ZM21.4446 17.4003L14.7251 17.606C14.8488 16.5992 14.2527 16.3733 14.2527 16.3733C16.9239 13.9486 22.3075 13.8666 22.3075 13.8666L21.4446 17.4003ZM28.9857 17.0927L22.8624 17.2984L23.4173 13.867C26.582 13.8258 28.3899 14.5242 28.3899 14.5242L29.294 15.9832L28.9857 17.0927ZM32.4377 17.0717H30.7317L29.0261 14.7295C30.3057 15.2388 31.3299 15.7407 31.9398 16.058C32.31 16.2504 32.5121 16.6615 32.4377 17.0717Z" fill="white"/>
</svg>
