<svg width="51" height="29" viewBox="0 0 51 29" fill="none" xmlns="http://www.w3.org/2000/svg">
<path d="M34.9566 24.876C34.3566 24.876 33.9566 24.476 33.9566 23.876V2.87598H10.0566C9.45664 2.87598 9.05664 2.47598 9.05664 1.87598C9.05664 1.27598 9.45664 0.875977 10.0566 0.875977H34.8566C35.4566 0.875977 35.9566 1.37598 35.9566 1.97598V23.876C35.9566 24.476 35.5566 24.876 34.9566 24.876Z" fill="white"/>
<path d="M15.6566 24.876H10.0566C9.45664 24.876 9.05664 24.476 9.05664 23.876C9.05664 23.276 9.45664 22.876 10.0566 22.876H15.6566C16.2566 22.876 16.6566 23.276 16.6566 23.876C16.6566 24.476 16.2566 24.876 15.6566 24.876Z" fill="white"/>
<path d="M38.2568 24.876H23.7568C23.1568 24.876 22.7568 24.476 22.7568 23.876C22.7568 23.276 23.1568 22.876 23.7568 22.876H38.2568C38.8568 22.876 39.2568 23.276 39.2568 23.876C39.2568 24.476 38.7568 24.876 38.2568 24.876Z" fill="white"/>
<path d="M48.0566 24.876H46.4566C45.8566 24.876 45.4566 24.476 45.4566 23.876C45.4566 23.276 45.8566 22.876 46.4566 22.876H48.0566C48.5566 22.876 48.9566 22.476 48.9566 21.976V15.276C48.9566 15.176 48.8566 15.076 48.7566 14.876L43.0566 5.67603H35.0566C34.4566 5.67603 34.0566 5.27603 34.0566 4.67603C34.0566 4.07603 34.4566 3.67603 35.0566 3.67603H43.3566C43.8566 3.67603 44.4566 3.97602 44.6566 4.57603L50.4566 13.876C50.6566 14.276 50.8566 14.676 50.8566 15.176V21.876C50.9566 23.576 49.7566 24.876 48.0566 24.876Z" fill="white"/>
<path d="M42.2574 28.8759C40.9574 28.8759 39.6574 28.3759 38.7574 27.4759C37.8574 26.5759 37.3574 25.2759 37.3574 23.9759C37.3574 22.6759 37.8574 21.3759 38.7574 20.4759C39.6574 19.5759 40.9574 19.0759 42.2574 19.0759C43.5574 19.0759 44.8574 19.5759 45.7574 20.4759C47.6574 22.3759 47.6574 25.5759 45.7574 27.4759C44.8574 28.3759 43.6574 28.8759 42.2574 28.8759ZM42.2574 21.0759C41.4574 21.0759 40.6574 21.3759 40.1574 21.8759C39.6574 22.3759 39.3574 23.1759 39.3574 23.9759C39.3574 24.7759 39.6574 25.5759 40.1574 26.0759C41.2574 27.1759 43.2574 27.1759 44.3574 26.0759C45.4574 24.9759 45.4574 22.9759 44.3574 21.8759C43.8574 21.3759 43.0574 21.0759 42.2574 21.0759Z" fill="white"/>
<path d="M19.7574 28.8759C18.4574 28.8759 17.2574 28.3759 16.2574 27.4759C15.3574 26.5759 14.8574 25.2759 14.8574 23.9759C14.8574 22.6759 15.3574 21.3759 16.2574 20.4759C17.1574 19.5759 18.4574 19.0759 19.7574 19.0759C21.0574 19.0759 22.3574 19.5759 23.2574 20.4759C25.1574 22.3759 25.1574 25.5759 23.2574 27.4759C22.3574 28.4759 21.0574 28.8759 19.7574 28.8759ZM19.8574 21.0759C19.0574 21.0759 18.2574 21.3759 17.7574 21.8759C17.2574 22.3759 16.9574 23.1759 16.9574 23.9759C16.9574 24.7759 17.2574 25.5759 17.7574 26.0759C18.8574 27.1759 20.7574 27.1759 21.9574 26.0759C23.0574 24.9759 23.0574 22.9759 21.9574 21.8759C21.4574 21.3759 20.6574 21.0759 19.8574 21.0759Z" fill="white"/>
<path d="M49.5572 15.776H41.6572C40.8572 15.776 40.1572 15.176 40.1572 14.476L39.1572 8.77598C39.1572 8.07598 39.7572 7.37598 40.5572 7.37598H45.3572C45.9572 7.37598 46.3572 7.77598 46.3572 8.37598C46.3572 8.97598 45.9572 9.37598 45.3572 9.37598H41.2572L42.0572 13.776H49.6572C50.2572 13.776 50.6572 14.176 50.6572 14.776C50.6572 15.376 50.1572 15.776 49.5572 15.776Z" fill="white"/>
<path d="M9.95664 6.87598H4.55664C3.95664 6.87598 3.55664 6.47598 3.55664 5.87598C3.55664 5.27598 3.95664 4.87598 4.55664 4.87598H9.95664C10.5566 4.87598 10.9566 5.27598 10.9566 5.87598C10.9566 6.47598 10.4566 6.87598 9.95664 6.87598Z" fill="white"/>
<path d="M12.2566 11.4761H6.55664C5.95664 11.4761 5.55664 11.0761 5.55664 10.4761C5.55664 9.87607 5.95664 9.47607 6.55664 9.47607H12.2566C12.8566 9.47607 13.2566 9.87607 13.2566 10.4761C13.2566 11.0761 12.8566 11.4761 12.2566 11.4761Z" fill="white"/>
<path d="M12.2568 20.9761H4.75684C4.15684 20.9761 3.75684 20.5761 3.75684 19.9761C3.75684 19.3761 4.15684 18.9761 4.75684 18.9761H12.2568C12.8568 18.9761 13.2568 19.3761 13.2568 19.9761C13.2568 20.5761 12.8568 20.9761 12.2568 20.9761Z" fill="white"/>
<path d="M9.65703 16.176H1.95703C1.35703 16.176 0.957031 15.776 0.957031 15.176C0.957031 14.576 1.35703 14.176 1.95703 14.176H9.65703C10.257 14.176 10.657 14.576 10.657 15.176C10.657 15.776 10.257 16.176 9.65703 16.176Z" fill="white"/>
</svg>
