<svg width="21" height="20" viewBox="0 0 21 20" fill="none" xmlns="http://www.w3.org/2000/svg">
<path d="M18.7897 16.4929L17.8966 5.23836C17.8409 4.51328 17.2277 3.94527 16.5005 3.94527H14.7363V3.86598C14.7363 1.73426 13.0021 0 10.8703 0C8.73863 0 7.00437 1.73426 7.00437 3.86598V3.94527H5.24023C4.513 3.94527 3.89976 4.51324 3.84429 5.23684L2.95086 16.4944C2.88172 17.3958 3.19441 18.2932 3.80871 18.9564C4.423 19.6196 5.29382 20 6.19785 20H15.5428C16.4468 20 17.3177 19.6196 17.932 18.9564C18.5463 18.2931 18.8589 17.3958 18.7897 16.4929ZM8.17586 3.86598C8.17586 2.38023 9.38465 1.17148 10.8703 1.17148C12.3561 1.17148 13.5648 2.38027 13.5648 3.86598V3.94527H8.17586V3.86598ZM17.0725 18.1604C16.6734 18.5912 16.1302 18.8285 15.5428 18.8285H6.19789C5.61054 18.8285 5.06734 18.5912 4.6682 18.1604C4.2691 17.7295 4.07402 17.1696 4.11886 16.5855L5.01222 5.32793C5.02129 5.20949 5.12144 5.11676 5.24023 5.11676H7.00437V6.55953C7.00437 6.88301 7.26664 7.14527 7.59011 7.14527C7.91359 7.14527 8.17586 6.88301 8.17586 6.55953V5.11676H13.5648V6.55953C13.5648 6.88301 13.8271 7.14527 14.1506 7.14527C14.4741 7.14527 14.7363 6.88301 14.7363 6.55953V5.11676H16.5005C16.6193 5.11676 16.7194 5.20953 16.7286 5.32949L17.6218 16.584C17.6667 17.1696 17.4716 17.7294 17.0725 18.1604Z" fill="white"/>
<path d="M13.5099 9.93304C13.2812 9.70429 12.9104 9.70429 12.6816 9.93304L10.0662 12.5485L9.06047 11.5428C8.83176 11.3141 8.46086 11.3141 8.23211 11.5428C8.00336 11.7716 8.00336 12.1424 8.23211 12.3712L9.65199 13.791C9.76637 13.9054 9.91629 13.9626 10.0661 13.9626C10.216 13.9626 10.3659 13.9055 10.4803 13.791L13.5099 10.7614C13.7387 10.5326 13.7387 10.1618 13.5099 9.93304Z" fill="white"/>
</svg>
