<svg width="51" height="51" viewBox="0 0 51 51" fill="none" xmlns="http://www.w3.org/2000/svg">
<path d="M25.6089 50.876C23.1222 50.876 20.7842 49.9075 19.0258 48.1491C17.8208 46.9441 16.2186 46.2805 14.5143 46.2805C9.38081 46.2805 5.20444 42.104 5.20444 36.9705C5.20444 35.2663 4.54077 33.6642 3.33569 32.4591C-0.294189 28.8291 -0.294189 22.9229 3.33569 19.2929C4.54077 18.0878 5.20444 16.4856 5.20444 14.7814C5.20444 9.64795 9.38091 5.47148 14.5143 5.47148C16.2186 5.47148 17.8208 4.80781 19.0258 3.60283C20.7842 1.84443 23.1222 0.875977 25.6089 0.875977C28.0957 0.875977 30.4336 1.84443 32.192 3.60283C33.397 4.80781 34.9993 5.47148 36.7036 5.47148C41.8371 5.47148 46.0134 9.64795 46.0134 14.7814C46.0134 16.4856 46.6771 18.0878 47.8822 19.2929C51.5121 22.9229 51.5121 28.8291 47.8822 32.4591C46.6771 33.6642 46.0134 35.2663 46.0134 36.9705C46.0134 42.104 41.837 46.2805 36.7036 46.2805C34.9993 46.2805 33.3971 46.9441 32.192 48.1491C30.4336 49.9075 28.0957 50.876 25.6089 50.876ZM25.6089 3.80869C23.9751 3.80869 22.3413 4.43057 21.0974 5.67432C19.3391 7.43271 17.0011 8.40107 14.5143 8.40107C10.9962 8.40107 8.13413 11.2633 8.13413 14.7813C8.13413 17.2681 7.16567 19.606 5.40728 21.3644C2.91968 23.8521 2.91968 27.8998 5.40728 30.3874C7.16567 32.1458 8.13403 34.4837 8.13403 36.9704C8.13403 40.4885 10.9961 43.3507 14.5142 43.3507C17.001 43.3507 19.339 44.319 21.0973 46.0774C23.585 48.565 27.6327 48.565 30.1204 46.0774C31.8787 44.319 34.2167 43.3507 36.7035 43.3507C40.2215 43.3507 43.0836 40.4885 43.0836 36.9704C43.0836 34.4837 44.0521 32.1458 45.8105 30.3874C48.2981 27.8997 48.2981 23.852 45.8105 21.3644C44.0521 19.606 43.0837 17.2681 43.0837 14.7813C43.0837 11.2633 40.2216 8.40107 36.7036 8.40107C34.2168 8.40107 31.8788 7.43271 30.1205 5.67432C28.8766 4.43057 27.2427 3.80869 25.6089 3.80869Z" fill="white"/>
<path d="M25.6094 40.6221C17.4783 40.6221 10.8633 34.007 10.8633 25.876C10.8633 17.7449 17.4783 11.1299 25.6094 11.1299C33.7404 11.1299 40.3555 17.7449 40.3555 25.876C40.3555 34.007 33.7404 40.6221 25.6094 40.6221ZM25.6094 14.0596C19.0938 14.0596 13.793 19.3604 13.793 25.876C13.793 32.3916 19.0938 37.6924 25.6094 37.6924C32.125 37.6924 37.4258 32.3916 37.4258 25.876C37.4258 19.3604 32.125 14.0596 25.6094 14.0596Z" fill="white"/>
<path d="M23.5367 32.3497L17.8398 26.6528L19.9114 24.5813L23.5367 28.2065L31.3052 20.438L33.3768 22.5096L23.5367 32.3497Z" fill="white"/>
</svg>
