<svg width="51" height="51" viewBox="0 0 51 51" fill="none" xmlns="http://www.w3.org/2000/svg">
<g clip-path="url(#clip0_237_462)">
<path d="M17.083 47.6761C11.783 47.6761 7.58301 43.3761 7.58301 37.9761V20.3761C7.58301 10.1761 15.683 1.97607 25.783 1.97607C35.883 1.97607 43.983 10.2761 43.983 20.3761V22.8761H46.583C48.883 22.8761 50.783 24.7761 50.783 27.0761V34.8761C50.783 37.1761 48.883 39.0761 46.583 39.0761H43.383C42.683 39.0761 41.983 38.4761 41.983 37.6761V20.3761C41.983 11.2761 34.783 3.97607 25.783 3.97607C16.783 3.97607 9.58301 11.3761 9.58301 20.3761V37.9761C9.58301 42.2761 12.883 45.6761 17.083 45.6761C17.683 45.6761 18.083 46.0761 18.083 46.6761C18.083 47.2761 17.583 47.6761 17.083 47.6761ZM43.983 37.1761H46.583C47.783 37.1761 48.783 36.1761 48.783 34.9761V27.1761C48.783 25.9761 47.783 24.9761 46.583 24.9761H43.983V37.1761Z" fill="white"/>
<path d="M8.5832 38.9761H4.9832C2.6832 38.9761 0.783203 37.0761 0.783203 34.7761V26.9761C0.783203 24.6761 2.6832 22.7761 4.9832 22.7761H8.5832C9.1832 22.7761 9.5832 23.1761 9.5832 23.7761C9.5832 24.3761 9.1832 24.7761 8.5832 24.7761H4.9832C3.7832 24.7761 2.7832 25.7761 2.7832 26.9761V34.7761C2.7832 35.9761 3.7832 36.9761 4.9832 36.9761H8.5832C9.1832 36.9761 9.5832 37.3761 9.5832 37.9761C9.5832 38.5761 9.0832 38.9761 8.5832 38.9761Z" fill="white"/>
<path d="M21.8828 49.776H19.3828C18.4828 49.776 17.4828 49.376 16.8828 48.576C16.3828 47.976 16.1828 47.276 16.2828 46.476C16.2828 44.776 17.7828 43.376 19.3828 43.376H21.8828C23.5828 43.376 24.9828 44.776 24.9828 46.476C24.9828 48.176 23.5828 49.776 21.8828 49.776ZM19.3828 45.576C18.6828 45.576 18.2828 46.176 18.2828 46.676V46.876C18.2828 47.076 18.2828 47.276 18.4828 47.376C18.6828 47.676 19.0828 47.776 19.4828 47.776H21.9828C22.6828 47.776 23.0828 47.176 23.0828 46.676C23.0828 45.976 22.4828 45.576 21.9828 45.576H19.3828Z" fill="white"/>
</g>
<defs>
<clipPath id="clip0_237_462">
<rect width="50" height="50" fill="white" transform="translate(0.783203 0.875977)"/>
</clipPath>
</defs>
</svg>
