<svg width="71" height="71" viewBox="0 0 71 71" fill="none" xmlns="http://www.w3.org/2000/svg">
<rect x="0.707031" y="0.348633" width="70" height="70" rx="15" fill="#724693"/>
<g clip-path="url(#clip0_1707_6287)">
<path d="M42.456 36.548C40.656 33.7401 37.5905 32.0635 34.2556 32.0635C30.9206 32.0635 27.8551 33.7401 26.0555 36.548L21.7183 43.3141C20.9987 44.4365 20.6667 45.7335 20.758 47.0638C20.8492 48.3943 21.3555 49.6334 22.2219 50.6478C23.0889 51.6613 24.2345 52.354 25.5349 52.6512C26.8352 52.9485 28.1682 52.8215 29.3896 52.2847L29.4713 52.2484C32.5445 50.9246 36.0561 50.9368 39.1213 52.2847C39.912 52.6323 40.7497 52.8081 41.5951 52.8081C42.0546 52.8081 42.517 52.7559 42.9751 52.6515C44.2754 52.3546 45.421 51.6619 46.2884 50.6481C47.1551 49.6346 47.6616 48.3953 47.7532 47.0644C47.8447 45.7335 47.5127 44.4368 46.7931 43.3138L42.456 36.548Z" fill="white"/>
<path d="M22.8863 36.539C24.1766 36.0434 25.1568 35.0037 25.6463 33.6112C26.1123 32.2861 26.0742 30.7901 25.5386 29.3985C25.0027 28.0079 24.028 26.8726 22.7939 26.2015C21.4975 25.4969 20.0732 25.3821 18.7851 25.8786C16.1935 26.875 15.0042 30.0776 16.1343 33.0191C17.037 35.3604 19.1424 36.8384 21.271 36.8384C21.8145 36.8384 22.3596 36.742 22.8863 36.539Z" fill="white"/>
<path d="M31.3017 31.2382C34.5414 31.2382 37.1772 28.2353 37.1772 24.5442C37.1772 20.8522 34.5414 17.8486 31.3017 17.8486C28.0623 17.8486 25.4268 20.8522 25.4268 24.5442C25.4268 28.2353 28.0623 31.2382 31.3017 31.2382Z" fill="white"/>
<path d="M41.4493 32.8826H41.4496C41.948 33.048 42.4564 33.1271 42.9627 33.1271C45.3254 33.1271 47.6279 31.4074 48.5065 28.7646C49.0125 27.2433 48.9792 25.6347 48.4128 24.2355C47.8202 22.7706 46.7219 21.7074 45.3199 21.2414C43.9176 20.7754 42.4012 20.9698 41.0496 21.7883C39.7584 22.5701 38.769 23.8388 38.2636 25.3601C37.197 28.5693 38.6262 31.9439 41.4493 32.8826Z" fill="white"/>
<path d="M53.8224 32.1017L53.8215 32.1008C51.5873 30.4504 48.246 31.1658 46.3725 33.6963C44.5009 36.228 44.7935 39.6317 47.0243 41.2833C47.8379 41.886 48.7993 42.1741 49.7831 42.1741C51.4979 42.1741 53.282 41.2988 54.4746 39.6893C56.3459 37.1576 56.0536 33.754 53.8224 32.1017Z" fill="white"/>
</g>
<defs>
<clipPath id="clip0_1707_6287">
<rect width="40" height="40" fill="white" transform="translate(15.707 15.3486)"/>
</clipPath>
</defs>
</svg>
