<svg width="51" height="51" viewBox="0 0 51 51" fill="none" xmlns="http://www.w3.org/2000/svg">
<g clip-path="url(#clip0_237_457)">
<path d="M47.1091 14.4422L47.1075 14.4033C47.0858 13.9231 47.0713 13.4149 47.0625 12.8496C47.0217 10.0927 44.8302 7.81232 42.0729 7.6582C36.3242 7.33739 31.877 5.46285 28.0772 1.75917L28.0448 1.72827C26.8054 0.591878 24.9358 0.591878 23.696 1.72827L23.6636 1.75917C19.8638 5.46285 15.4167 7.33739 9.66792 7.65858C6.91105 7.81232 4.71913 10.0927 4.67831 12.85C4.66992 13.4115 4.65504 13.9196 4.6333 14.4033L4.63101 14.4937C4.51924 20.3558 4.38038 27.6514 6.82102 34.2733C8.16303 37.9148 10.1955 41.0802 12.8616 43.6822C15.8981 46.6454 19.8753 48.998 24.6825 50.6741C24.8389 50.7287 25.0014 50.7729 25.167 50.8061C25.4005 50.8527 25.6354 50.8759 25.8704 50.8759C26.1054 50.8759 26.3408 50.8527 26.5738 50.8061C26.7394 50.7729 26.9031 50.7283 27.0602 50.6734C31.8618 48.9941 35.8348 46.6405 38.8686 43.6776C41.5335 41.0749 43.566 37.9087 44.9091 34.2664C47.3589 27.6247 47.2205 20.3153 47.1091 14.4422ZM42.1565 33.2513C39.5823 40.2307 34.3276 45.0238 26.0921 47.9039C26.0627 47.9138 26.0314 47.9226 25.999 47.9291C25.9139 47.9459 25.8273 47.9459 25.7411 47.9287C25.7091 47.9222 25.6778 47.9138 25.6488 47.9039C17.4045 45.0292 12.1463 40.2387 9.57408 33.2589C7.32456 27.1551 7.45197 20.458 7.5645 14.5498L7.56527 14.517C7.58815 14.0093 7.60341 13.4775 7.61181 12.8931C7.63012 11.669 8.60515 10.6562 9.83157 10.5879C13.0847 10.4063 15.9427 9.77764 18.5687 8.66604C21.1913 7.55597 23.5206 5.99119 25.6888 3.88243C25.7991 3.78935 25.9421 3.78897 26.052 3.88243C28.2206 5.99119 30.5499 7.55597 33.1721 8.66604C35.7981 9.77764 38.6561 10.4063 41.9097 10.5879C43.1361 10.6562 44.1111 11.669 44.129 12.8935C44.1378 13.4809 44.1531 14.0127 44.176 14.517C44.2881 20.4321 44.4125 27.1345 42.1565 33.2513Z" fill="white"/>
<path d="M25.8699 13.416C18.9988 13.416 13.4092 19.0061 13.4092 25.8767C13.4092 32.7477 18.9988 38.3377 25.8699 38.3377C32.7405 38.3377 38.3305 32.7477 38.3305 25.8767C38.3305 19.0061 32.7405 13.416 25.8699 13.416ZM25.8699 35.4035C20.6166 35.4035 16.3431 31.1299 16.3431 25.8767C16.3431 20.6235 20.6166 16.3499 25.8699 16.3499C31.1227 16.3499 35.3963 20.6235 35.3963 25.8767C35.3963 31.1299 31.1227 35.4035 25.8699 35.4035Z" fill="white"/>
<path d="M29.4507 22.0084L23.663 27.796L22.0921 26.2251C21.5192 25.6522 20.5903 25.6522 20.0173 26.2251C19.4447 26.7981 19.4447 27.727 20.0173 28.2996L22.6258 30.908C22.9123 31.1945 23.2877 31.3376 23.663 31.3376C24.0384 31.3376 24.4138 31.1945 24.7002 30.908L31.5255 24.0828C32.0981 23.5098 32.0981 22.581 31.5255 22.0084C30.9525 21.435 30.0236 21.435 29.4507 22.0084Z" fill="white"/>
</g>
<defs>
<clipPath id="clip0_237_457">
<rect width="50" height="50" fill="white" transform="translate(0.870117 0.875977)"/>
</clipPath>
</defs>
</svg>
