<svg width="51" height="51" viewBox="0 0 51 51" fill="none" xmlns="http://www.w3.org/2000/svg">
<g clip-path="url(#clip0_245_500)">
<path d="M49.0969 34.5761C48.4969 34.5761 48.0969 34.1761 48.0969 33.5761V18.6761L33.9969 12.4761L20.2969 18.6761V33.5761C20.2969 34.1761 19.8969 34.5761 19.2969 34.5761C18.6969 34.5761 18.2969 34.1761 18.2969 33.5761V18.2761C18.2969 17.4761 18.6969 17.1761 19.0969 17.0761L33.5969 10.4761H34.2969L49.4969 17.1761L49.5969 17.2761C49.6969 17.3761 49.9969 17.7761 49.9969 18.2761V33.6761C50.0969 34.1761 49.5969 34.5761 49.0969 34.5761Z" fill="white"/>
<path d="M34.397 25.8759C34.297 25.8759 34.097 25.8759 33.997 25.7759L18.897 19.0759C18.397 18.8759 18.197 18.2759 18.397 17.7759C18.597 17.2759 19.197 17.0759 19.697 17.2759L34.797 23.9759C35.297 24.1759 35.497 24.7759 35.297 25.2759C35.097 25.6759 34.797 25.8759 34.397 25.8759Z" fill="white"/>
<path d="M34.6977 41.376H33.8977L18.6977 34.676C18.1977 34.476 17.9977 33.876 18.1977 33.376C18.3977 32.876 18.9977 32.676 19.4977 32.876L34.2977 39.476L48.6977 32.876C49.1977 32.676 49.7977 32.876 49.9977 33.376C50.1977 33.876 49.9977 34.476 49.4977 34.676L34.6977 41.376Z" fill="white"/>
<path d="M34.3966 25.876C33.9966 25.876 33.6966 25.676 33.4966 25.276C33.2966 24.776 33.4966 24.176 33.9966 23.976L48.6966 17.376C49.1966 17.176 49.7966 17.376 49.9966 17.876C50.1966 18.376 49.9966 18.976 49.4966 19.176L34.7966 25.876C34.6966 25.876 34.4966 25.876 34.3966 25.876Z" fill="white"/>
<path d="M34.3965 41.376C33.7965 41.376 33.3965 40.976 33.3965 40.376V24.876C33.3965 24.276 33.7965 23.876 34.3965 23.876C34.9965 23.876 35.3965 24.276 35.3965 24.876V40.376C35.3965 40.976 34.8965 41.376 34.3965 41.376Z" fill="white"/>
<path d="M26.4981 22.276C26.0981 22.276 25.7981 22.076 25.5981 21.676C25.3981 21.176 25.5981 20.576 26.0981 20.376L40.7981 13.876C41.2981 13.676 41.8981 13.876 42.0981 14.376C42.2981 14.876 42.0981 15.476 41.5981 15.676L26.8981 22.176C26.7981 22.276 26.5981 22.276 26.4981 22.276Z" fill="white"/>
<path d="M23.3965 12.5759H12.8965C12.2965 12.5759 11.8965 12.1759 11.8965 11.5759C11.8965 10.9759 12.2965 10.5759 12.8965 10.5759H23.4965C24.0965 10.5759 24.4965 10.9759 24.4965 11.5759C24.4965 12.1759 23.9965 12.5759 23.3965 12.5759Z" fill="white"/>
<path d="M13.8973 17.4761H6.19727C5.59727 17.4761 5.19727 17.0761 5.19727 16.4761C5.19727 15.8761 5.59727 15.4761 6.19727 15.4761H13.9973C14.5973 15.4761 14.9973 15.8761 14.9973 16.4761C14.9973 17.0761 14.4973 17.4761 13.8973 17.4761Z" fill="white"/>
<path d="M14.5965 22.4761H9.89648C9.29648 22.4761 8.89648 22.0761 8.89648 21.4761C8.89648 20.8761 9.29648 20.4761 9.89648 20.4761H14.5965C15.1965 20.4761 15.5965 20.8761 15.5965 21.4761C15.5965 22.0761 15.1965 22.4761 14.5965 22.4761Z" fill="white"/>
<path d="M14.6973 32.4761H7.69727C7.09727 32.4761 6.69727 32.0761 6.69727 31.4761C6.69727 30.8761 7.09727 30.4761 7.69727 30.4761H14.6973C15.2973 30.4761 15.6973 30.8761 15.6973 31.4761C15.6973 32.0761 15.2973 32.4761 14.6973 32.4761Z" fill="white"/>
<path d="M13.8969 27.5759H2.29688C1.69687 27.5759 1.29688 27.1759 1.29688 26.5759C1.29688 25.9759 1.69687 25.5759 2.29688 25.5759H13.8969C14.4969 25.5759 14.8969 25.9759 14.8969 26.5759C14.8969 27.0759 14.4969 27.5759 13.8969 27.5759Z" fill="white"/>
</g>
<defs>
<clipPath id="clip0_245_500">
<rect width="50" height="50" fill="white" transform="translate(0.697266 0.875977)"/>
</clipPath>
</defs>
</svg>
