<svg width="21" height="21" viewBox="0 0 21 21" fill="none" xmlns="http://www.w3.org/2000/svg">
<g clip-path="url(#clip0_432_271)">
<path d="M17.9402 13.5335C16.8511 12.4443 15.5546 11.638 14.1402 11.1499C15.6551 10.1065 16.6504 8.36033 16.6504 6.3858C16.6504 3.19803 14.0569 0.604553 10.8691 0.604553C7.68137 0.604553 5.08789 3.19803 5.08789 6.3858C5.08789 8.36033 6.08316 10.1065 7.59812 11.1499C6.18367 11.638 4.88727 12.4443 3.79809 13.5335C1.90934 15.4222 0.869141 17.9335 0.869141 20.6046H2.43164C2.43164 15.9521 6.21668 12.1671 10.8691 12.1671C15.5216 12.1671 19.3066 15.9521 19.3066 20.6046H20.8691C20.8691 17.9335 19.8289 15.4222 17.9402 13.5335ZM10.8691 10.6046C8.54293 10.6046 6.65039 8.71205 6.65039 6.3858C6.65039 4.05955 8.54293 2.16705 10.8691 2.16705C13.1954 2.16705 15.0879 4.05955 15.0879 6.3858C15.0879 8.71205 13.1954 10.6046 10.8691 10.6046Z" fill="white"/>
</g>
<defs>
<clipPath id="clip0_432_271">
<rect width="20" height="20" fill="white" transform="translate(0.869141 0.604553)"/>
</clipPath>
</defs>
</svg>
