<svg width="35" height="35" viewBox="0 0 35 35" fill="none" xmlns="http://www.w3.org/2000/svg">
<g clip-path="url(#clip0_2422_15707)">
<path d="M30.1055 29.7489L28.7797 31.0747V24.7659H26.7289V31.0747L25.4031 29.7489L23.9531 31.1989L27.7543 35L31.5554 31.1989L30.1055 29.7489Z" fill="#724693"/>
<path d="M16.475 24.7659V31.0747L15.1492 29.7489L13.6992 31.1989L17.5004 35L21.3015 31.1989L19.8516 29.7489L18.5258 31.0747V24.7659H16.475Z" fill="#724693"/>
<path d="M6.22108 24.7659V31.0747L4.89528 29.7489L3.44531 31.1989L7.24647 35L11.0476 31.1989L9.59766 29.7489L8.27186 31.0747V24.7659H6.22108Z" fill="#724693"/>
<path d="M13.055 6.7374C12.6074 7.51339 12.3711 8.39859 12.3711 9.29688C12.3711 12.1236 14.6713 14.4238 17.498 14.4238C20.3248 14.4238 22.625 12.1236 22.625 9.29688C22.625 8.39672 22.3887 7.51152 21.9059 6.68026L17.498 0L13.055 6.7374Z" fill="#724693"/>
<path d="M28.7812 14.4238C31.0433 14.4238 32.8828 12.5842 32.8828 10.3222C32.8828 9.70754 32.7496 9.11661 32.4601 8.50965L28.7812 1.77332L25.0741 8.56573C24.8129 9.11661 24.6797 9.70754 24.6797 10.3222C24.6797 12.5842 26.5192 14.4238 28.7812 14.4238Z" fill="#724693"/>
<path d="M2.51159 8.56599C2.25043 9.11661 2.11719 9.70754 2.11719 10.3222C2.11719 12.5842 3.95675 14.4238 6.21875 14.4238C8.48075 14.4238 10.3203 12.5842 10.3203 10.3222C10.3203 9.70754 10.1871 9.11661 9.89761 8.50965L6.21875 1.77332L2.51159 8.56599Z" fill="#724693"/>
<path d="M28.7793 18.5254H26.7285V16.4746H20.5762V18.5254H18.5254V16.4746H12.373V18.5254H10.3223V16.4746H0V22.627H6.2207V20.5762H8.27148V22.627H14.4238V20.5762H16.4746V22.627H22.627V20.5762H24.6777V22.627H35V16.4746H28.7793V18.5254Z" fill="#724693"/>
</g>
<defs>
<clipPath id="clip0_2422_15707">
<rect width="35" height="35" fill="white"/>
</clipPath>
</defs>
</svg>
